<svg width="32" height="41" viewBox="0 0 32 41" fill="none" xmlns="http://www.w3.org/2000/svg">
<path d="M28.972 40.7273C28.5165 40.7269 28.0671 40.6238 27.6571 40.4255C27.2469 40.2271 26.8867 39.9385 26.6033 39.5815C25.7262 38.6325 18.9475 31.9615 14.7936 27.8942C14.5062 27.6165 14.2763 27.2847 14.1174 26.9176C13.9585 26.5507 13.8736 26.1558 13.8677 25.7558C13.8617 25.3558 13.9348 24.9585 14.0827 24.5869C14.2306 24.2153 14.4505 23.8767 14.7295 23.5905C15.0086 23.3045 15.3414 23.0765 15.7088 22.9198C16.0762 22.7631 16.4709 22.6809 16.8701 22.6776C17.2694 22.6744 17.6654 22.7504 18.0352 22.9011C18.4051 23.052 18.7415 23.2745 19.0251 23.5562C19.0547 23.5853 22.0464 26.5149 25.0156 29.4415L25.946 30.3587V16.1129C25.946 10.5729 21.4844 6.06571 16 6.06571C10.5157 6.06571 6.05405 10.5729 6.05405 16.1129V37.6942C6.05405 38.4985 5.73513 39.27 5.16745 39.8387C4.59978 40.4075 3.82984 40.7269 3.02702 40.7269C2.2242 40.7269 1.45427 40.4075 0.886595 39.8387C0.318918 39.27 0 38.4985 0 37.6942V16.1129C0 7.22818 7.17755 0 16 0C24.8224 0 32 7.22818 32 16.1129V37.6942C31.9996 38.4985 31.6805 39.27 31.1127 39.8389C30.5449 40.4076 29.7749 40.7271 28.972 40.7273ZM26.22 38.9544L26.2213 38.9571L26.22 38.9544Z" fill="url(#paint0_linear_1_5184)"/>
<path d="M16.0002 19.028C17.9108 19.028 19.4596 17.4762 19.4596 15.5619C19.4596 13.6476 17.9108 12.0957 16.0002 12.0957C14.0895 12.0957 12.5406 13.6476 12.5406 15.5619C12.5406 17.4762 14.0895 19.028 16.0002 19.028Z" fill="url(#paint1_linear_1_5184)"/>
<defs>
<linearGradient id="paint0_linear_1_5184" x1="16" y1="41.216" x2="16" y2="0.12218" gradientUnits="userSpaceOnUse">
<stop stop-color="#00C0F4"/>
<stop offset="1" stop-color="#12ECA0"/>
</linearGradient>
<linearGradient id="paint1_linear_1_5184" x1="16.0002" y1="41.2047" x2="16.0002" y2="0.116598" gradientUnits="userSpaceOnUse">
<stop stop-color="#00C0F4"/>
<stop offset="1" stop-color="#12ECA0"/>
</linearGradient>
</defs>
</svg>
