<svg id="Layer_1" data-name="Layer 1" xmlns="http://www.w3.org/2000/svg" viewBox="0 0 28.91 40.2"><defs><style>.cls-1{fill:#e3e8f1;}.cls-2{fill:#9dacbb;}.cls-3{fill:#c9d5e3;}.cls-4{fill:#9dacba;}</style></defs><path class="cls-1" d="M36.41,29H53.14v7.71a1.51,1.51,0,0,0,0,.42A2.56,2.56,0,0,0,55.72,39c0,.19.19.28.31.4,1.8,1.81,3.6,3.62,5.41,5.41a1.61,1.61,0,0,1,.5,1.22q0,10.19,0,20.37c0,1-.45,1.49-1.47,1.49H38.16a1.22,1.22,0,0,0-1.35,1.25,2.55,2.55,0,0,1-2.52-2.56V36.07c0-1.53,0-3.06,0-4.59a2.45,2.45,0,0,1,1-2A4.67,4.67,0,0,1,36.41,29ZM48.7,48.43h8.51a1.68,1.68,0,0,0,.39,0,.62.62,0,0,0,0-1.23,1.45,1.45,0,0,0-.36,0h-17a1.36,1.36,0,0,0-.35,0,.62.62,0,0,0,0,1.23,1.77,1.77,0,0,0,.4,0ZM48.78,51H40.27c-.63,0-1,.2-1,.62s.32.63.94.63h17a1.68,1.68,0,0,0,.39,0,.62.62,0,0,0,0-1.23,1.7,1.7,0,0,0-.39,0Zm0,3.77H40.26a1.7,1.7,0,0,0-.39,0,.62.62,0,0,0,0,1.23,1.36,1.36,0,0,0,.35,0h17a1.37,1.37,0,0,0,.35,0,.6.6,0,0,0,.54-.62.61.61,0,0,0-.55-.62,2.54,2.54,0,0,0-.39,0Zm0,5h8.51c.63,0,.95-.21.95-.62s-.32-.64-.94-.64H40.27a2.51,2.51,0,0,0-.39,0,.63.63,0,0,0,0,1.24,1.7,1.7,0,0,0,.39,0Zm0-17h4.94a.67.67,0,0,0,.74-.63c0-.37-.31-.62-.75-.63H43.83a.72.72,0,0,0-.38.07.59.59,0,0,0-.34.68.65.65,0,0,0,.69.51ZM45,63.51h4.9a.64.64,0,1,0,0-1.26h-9.8a.72.72,0,0,0-.38.07c-.26.16-.44.37-.35.68a.65.65,0,0,0,.69.51Z" transform="translate(-34.29 -28.96)"/><path class="cls-2" d="M53.22,29a4.7,4.7,0,0,0,.93,1c1.21,1.24,2.47,2.44,3.68,3.68.94,1,1.9,1.88,2.83,2.84s1.64,1.62,2.44,2.45c-.13.13-.3.07-.45.07H55.72a2.56,2.56,0,0,1-2.53-1.93,1.51,1.51,0,0,1,0-.42V29Z" transform="translate(-34.29 -28.96)"/><path class="cls-3" d="M55.72,39h6.93c.15,0,.32.06.45-.07.15.1.09.26.09.4V66.65a2.49,2.49,0,0,1-2.4,2.51h-24a1.22,1.22,0,0,1,1.35-1.25h22.3c1,0,1.47-.45,1.47-1.49q0-10.19,0-20.37a1.61,1.61,0,0,0-.5-1.22C59.63,43,57.83,41.23,56,39.42,55.91,39.3,55.75,39.21,55.72,39Z" transform="translate(-34.29 -28.96)"/><path class="cls-4" d="M48.7,48.43H40.27a1.77,1.77,0,0,1-.4,0,.62.62,0,0,1,0-1.23,1.36,1.36,0,0,1,.35,0h17a1.45,1.45,0,0,1,.36,0,.62.62,0,0,1,0,1.23,1.68,1.68,0,0,1-.39,0Z" transform="translate(-34.29 -28.96)"/><path class="cls-4" d="M48.78,51h8.44a1.7,1.7,0,0,1,.39,0,.62.62,0,0,1,0,1.23,1.68,1.68,0,0,1-.39,0h-17c-.62,0-.94-.21-.94-.63s.32-.62,1-.62Z" transform="translate(-34.29 -28.96)"/><path class="cls-4" d="M48.74,54.72h8.47a2.54,2.54,0,0,1,.39,0,.61.61,0,0,1,.55.62.6.6,0,0,1-.54.62,1.37,1.37,0,0,1-.35,0h-17a1.36,1.36,0,0,1-.35,0,.62.62,0,0,1,0-1.23,1.7,1.7,0,0,1,.39,0Z" transform="translate(-34.29 -28.96)"/><path class="cls-4" d="M48.7,59.74H40.26a1.7,1.7,0,0,1-.39,0,.63.63,0,0,1,0-1.24,2.51,2.51,0,0,1,.39,0H57.22c.62,0,.94.22.94.64s-.32.62-.95.62Z" transform="translate(-34.29 -28.96)"/><path class="cls-2" d="M48.71,42.78H43.8a.65.65,0,0,1-.69-.51.59.59,0,0,1,.34-.68.72.72,0,0,1,.38-.07h9.81c.44,0,.75.26.75.63a.67.67,0,0,1-.74.63Z" transform="translate(-34.29 -28.96)"/><path class="cls-2" d="M45,63.51H40a.65.65,0,0,1-.69-.51c-.09-.31.09-.52.35-.68a.72.72,0,0,1,.38-.07h9.8a.64.64,0,1,1,0,1.26Z" transform="translate(-34.29 -28.96)"/></svg>