<svg id="Layer_1" data-name="Layer 1" xmlns="http://www.w3.org/2000/svg" viewBox="0 0 28.08 25.48"><defs><style>.cls-1{fill:#5989c7;}.cls-2{fill:#4265ae;}</style></defs><path class="cls-1" d="M49.63,39.53h11.8A1.31,1.31,0,0,1,62.88,41V58.44a1.86,1.86,0,0,1-.08.62,1.24,1.24,0,0,1-1.14.86H36.27a1.28,1.28,0,0,1-1.36-.81,1.86,1.86,0,0,1-.1-.7v-17c0-.63,0-1.26,0-1.88Z" transform="translate(-34.8 -34.44)"/><path class="cls-2" d="M49.63,39.53H34.82c0-1.27,0-2.53,0-3.8a1.24,1.24,0,0,1,1.31-1.29H46.26a1.24,1.24,0,0,1,1.18.71Z" transform="translate(-34.8 -34.44)"/></svg>