<svg xmlns="http://www.w3.org/2000/svg" viewBox="0 0 29.2 38.41"><defs><style>.cls-1{fill:#dfeefa;}.cls-2{fill:#cadff4;}.cls-3{fill:#7dbf76;}.cls-4{fill:#92b6e1;}.cls-5{fill:#ffd032;}.cls-6{fill:#36ae72;}.cls-7{fill:#5fb777;}</style></defs><g id="Layer_2" data-name="Layer 2"><path class="cls-1" d="M42.92,48.75l0,36s-.12,1.08,1.75,1.08H69.88a1.44,1.44,0,0,0,1.47-1.5c0-1.35,0-23,0-27.18a1.66,1.66,0,0,0-.51-1.2l-8-8a1.69,1.69,0,0,0-1.19-.5H44.21S42.76,47.65,42.92,48.75Z" transform="translate(-42.9 -47.38)"/><path class="cls-2" d="M55.76,48.75l0,36s-.11,1.08,1.71,1.08H70.62a1.42,1.42,0,0,0,1.43-1.5c0-1.35,0-23,0-27.18a1.73,1.73,0,0,0-.49-1.2l-7.85-8a1.62,1.62,0,0,0-1.16-.5H57S55.61,47.65,55.76,48.75Z" transform="translate(-42.9 -47.38)"/><path class="cls-3" d="M42.9,80.49l0,4.22s-.12,1.08,1.75,1.08H70.58l-17.7-15a1.84,1.84,0,0,0-2.65.28Z" transform="translate(-42.9 -47.38)"/><path class="cls-4" d="M72.05,57.37H63.23s-1.62-.26-1.8-.83,0-9.1,0-9.1a2.77,2.77,0,0,1,2.35.54c1,1,7.89,8,7.89,8A2.29,2.29,0,0,1,72.05,57.37Z" transform="translate(-42.9 -47.38)"/><circle class="cls-5" cx="6.98" cy="16.12" r="3.11"/><path class="cls-6" d="M54,71.75,58.51,66a1.23,1.23,0,0,1,1.79-.14L72,76.83v7.46s.52,1.5-1.47,1.5Z" transform="translate(-42.9 -47.38)"/><polygon class="cls-7" points="12.85 38.41 12.85 25.82 27.68 38.41 12.85 38.41"/><polygon class="cls-7" points="11.14 24.37 12.85 22.19 12.85 25.82 11.14 24.37"/></g></svg>