<svg width="95" height="30" viewBox="0 0 95 30" fill="none" xmlns="http://www.w3.org/2000/svg">
<path d="M39.9999 19.0109C39.9999 20.8587 39.5157 22.6742 38.5957 24.2768C37.6757 25.8791 36.352 27.2127 34.7564 28.1444C33.1607 29.0762 31.3487 29.5736 29.501 29.5872C27.6532 29.6009 25.8341 29.1303 24.2249 28.2221C23.143 29.0171 21.8563 29.4858 20.5167 29.5729C19.1771 29.66 17.8404 29.3618 16.6648 28.7138C15.2064 29.2951 13.65 29.5918 12.0799 29.5877C5.4189 29.5877 0 24.3319 0 17.8712C0 11.4106 5.4189 6.15477 12.0799 6.15477H12.0828C13.4013 3.95477 15.3567 2.20692 17.6902 1.14241C20.0237 0.0779106 22.6253 -0.253069 25.1511 0.19326C27.6769 0.639588 30.0076 1.8422 31.835 3.64198C33.6622 5.44177 34.9002 7.75392 35.3849 10.2726C36.8123 11.2384 37.98 12.5408 38.7847 14.0648C39.5896 15.5888 40.007 17.2875 39.9999 19.0109ZM24.1178 25.5112C24.3637 25.5111 24.6038 25.5859 24.8061 25.7255C25.7042 26.3426 26.7171 26.7734 27.7846 26.9923C28.8521 27.2112 29.9526 27.2137 31.0212 26.9998C32.0896 26.7858 33.1044 26.3598 34.0054 25.7469C34.9064 25.1339 35.6753 24.3465 36.2666 23.4311C36.8579 22.5159 37.2597 21.4912 37.4482 20.4179C37.6366 19.3446 37.6077 18.2443 37.3636 17.1825C37.1194 16.1204 36.6646 15.1182 36.0264 14.235C35.388 13.3518 34.5789 12.6056 33.6473 12.0405C33.4944 11.9477 33.364 11.8223 33.2654 11.6732C33.1667 11.5241 33.1022 11.3551 33.0764 11.1782C32.7616 9.03528 31.7754 7.0474 30.2597 5.50032C28.7438 3.95326 26.7765 2.92672 24.6405 2.5683C22.5045 2.20988 20.3099 2.53806 18.372 3.50562C16.4343 4.4732 14.8534 6.03032 13.8564 7.95312C13.7486 8.16195 13.5822 8.33483 13.3777 8.45059C13.1731 8.56634 12.9393 8.61995 12.7047 8.60485C12.4648 8.59004 12.2658 8.58293 12.0789 8.58293C6.75629 8.58293 2.42594 12.75 2.42594 17.8718C2.42594 22.9936 6.75688 27.1605 12.0789 27.1605C13.5205 27.1651 14.9457 26.8538 16.254 26.2486C16.4454 26.1601 16.6565 26.123 16.8665 26.1407C17.0765 26.1586 17.2783 26.2309 17.4519 26.3505C18.3294 26.9539 19.3889 27.2343 20.45 27.144C21.511 27.0536 22.5079 26.5981 23.2707 25.855C23.4975 25.6343 23.8014 25.5109 24.1178 25.5112Z" fill="#4F80E1"/>
<path d="M13.6554 13.5798H11.8514C11.7797 13.5798 11.7108 13.6083 11.6601 13.6591C11.6093 13.7099 11.5808 13.7787 11.5808 13.8505V18.0899H11.5854L13.9257 15.7495V13.8506C13.9258 13.7789 13.8973 13.71 13.8466 13.6593C13.7959 13.6085 13.7272 13.5799 13.6554 13.5798Z" fill="#292C44"/>
<path d="M21.0439 11.6026C20.7696 11.3282 20.3974 11.1741 20.0094 11.1741C19.6213 11.1741 19.2493 11.3282 18.9749 11.6026L14.3821 16.1954L13.926 16.6516L11.5857 18.9919L6.22192 24.3557C7.65429 25.4031 9.34049 26.0489 11.1061 26.2261C12.8717 26.4034 14.6526 26.1058 16.2646 25.364C16.456 25.2757 16.6669 25.2387 16.8769 25.2564C17.0868 25.2744 17.2886 25.3467 17.4622 25.466C18.3395 26.0695 19.3992 26.3499 20.4602 26.2595C21.5212 26.1692 22.518 25.7136 23.2807 24.9704C23.4821 24.7748 23.7452 24.6548 24.025 24.6312C24.305 24.6077 24.5843 24.6817 24.8157 24.841C26.1968 25.7922 27.8383 26.2935 29.5152 26.2757C31.192 26.2579 32.8226 25.7223 34.1832 24.742L21.0439 11.6026ZM19.9011 22.6476C19.9011 22.7025 19.8792 22.7553 19.8404 22.7942C19.8015 22.833 19.7487 22.8549 19.6938 22.8549H18.0086C17.9536 22.8549 17.9009 22.833 17.8619 22.7942C17.823 22.7553 17.8012 22.7025 17.8012 22.6476V20.9624C17.8012 20.9074 17.823 20.8547 17.8619 20.8157C17.9009 20.7769 17.9536 20.755 18.0086 20.755H19.6938C19.7487 20.755 19.8015 20.7769 19.8404 20.8157C19.8792 20.8547 19.9011 20.9074 19.9011 20.9624V22.6476ZM19.9011 20.0954C19.9011 20.1504 19.8792 20.2031 19.8404 20.2421C19.8015 20.281 19.7487 20.3028 19.6938 20.3028H18.0086C17.9536 20.3028 17.9009 20.281 17.8619 20.2421C17.823 20.2031 17.8012 20.1504 17.8012 20.0954V18.4102C17.8012 18.3553 17.823 18.3026 17.8619 18.2636C17.9009 18.2248 17.9536 18.2029 18.0086 18.2029H19.6938C19.7487 18.2029 19.8015 18.2248 19.8404 18.2636C19.8792 18.3026 19.9011 18.3553 19.9011 18.4102V20.0954ZM22.6039 22.6476C22.6039 22.7025 22.582 22.7553 22.5432 22.7942C22.5042 22.833 22.4515 22.8549 22.3966 22.8549H20.7114C20.6564 22.8549 20.6037 22.833 20.5647 22.7942C20.5258 22.7553 20.504 22.7025 20.504 22.6476V20.9624C20.504 20.9074 20.5258 20.8547 20.5647 20.8157C20.6037 20.7769 20.6564 20.755 20.7114 20.755H22.3966C22.4515 20.755 22.5042 20.7769 22.5432 20.8157C22.582 20.8547 22.6039 20.9074 22.6039 20.9624V22.6476ZM22.6039 20.0954C22.6039 20.1504 22.582 20.2031 22.5432 20.2421C22.5042 20.281 22.4515 20.3028 22.3966 20.3028H20.7114C20.6564 20.3028 20.6037 20.281 20.5647 20.2421C20.5258 20.2031 20.504 20.1504 20.504 20.0954V18.4102C20.504 18.3553 20.5258 18.3026 20.5647 18.2636C20.6037 18.2248 20.6564 18.2029 20.7114 18.2029H22.3966C22.4515 18.2029 22.5042 18.2248 22.5432 18.2636C22.582 18.3026 22.6039 18.3553 22.6039 18.4102V20.0954Z" fill="#292C44"/>
<path d="M52.305 20V9.35H54.06V18.32H58.935V20H52.305ZM64.7815 18.485C65.8215 18.485 66.7015 18.115 67.4215 17.375C68.1415 16.635 68.5015 15.735 68.5015 14.675C68.5015 13.615 68.1415 12.715 67.4215 11.975C66.7015 11.235 65.8215 10.865 64.7815 10.865C63.7315 10.865 62.8465 11.235 62.1265 11.975C61.4065 12.715 61.0465 13.615 61.0465 14.675C61.0465 15.735 61.4065 16.635 62.1265 17.375C62.8465 18.115 63.7315 18.485 64.7815 18.485ZM68.6815 18.575C67.6115 19.645 66.3115 20.18 64.7815 20.18C63.2515 20.18 61.9515 19.65 60.8815 18.59C59.8115 17.52 59.2765 16.215 59.2765 14.675C59.2765 13.135 59.8115 11.835 60.8815 10.775C61.9515 9.705 63.2515 9.17 64.7815 9.17C66.3115 9.17 67.6115 9.705 68.6815 10.775C69.7515 11.845 70.2865 13.145 70.2865 14.675C70.2865 16.205 69.7515 17.505 68.6815 18.575ZM77.2972 20.18C75.6272 20.18 74.2472 19.655 73.1572 18.605C72.0772 17.555 71.5372 16.245 71.5372 14.675C71.5372 13.125 72.0672 11.82 73.1272 10.76C74.1972 9.7 75.5272 9.17 77.1172 9.17C78.8172 9.17 80.1922 9.705 81.2422 10.775L80.0422 12.02C79.2722 11.25 78.2972 10.865 77.1172 10.865C76.0172 10.865 75.1072 11.235 74.3872 11.975C73.6672 12.705 73.3072 13.605 73.3072 14.675C73.3072 15.775 73.6672 16.685 74.3872 17.405C75.1172 18.125 76.0822 18.485 77.2822 18.485C78.4222 18.485 79.2722 18.255 79.8322 17.795V15.425H77.1622V13.775H81.5422V18.65C81.0822 19.15 80.4722 19.53 79.7122 19.79C78.9522 20.05 78.1472 20.18 77.2972 20.18ZM88.4973 18.485C89.5373 18.485 90.4173 18.115 91.1373 17.375C91.8573 16.635 92.2173 15.735 92.2173 14.675C92.2173 13.615 91.8573 12.715 91.1373 11.975C90.4173 11.235 89.5373 10.865 88.4973 10.865C87.4473 10.865 86.5623 11.235 85.8423 11.975C85.1223 12.715 84.7623 13.615 84.7623 14.675C84.7623 15.735 85.1223 16.635 85.8423 17.375C86.5623 18.115 87.4473 18.485 88.4973 18.485ZM92.3973 18.575C91.3273 19.645 90.0273 20.18 88.4973 20.18C86.9673 20.18 85.6673 19.65 84.5973 18.59C83.5273 17.52 82.9923 16.215 82.9923 14.675C82.9923 13.135 83.5273 11.835 84.5973 10.775C85.6673 9.705 86.9673 9.17 88.4973 9.17C90.0273 9.17 91.3273 9.705 92.3973 10.775C93.4673 11.845 94.0023 13.145 94.0023 14.675C94.0023 16.205 93.4673 17.505 92.3973 18.575Z" fill="black"/>
</svg>
