<svg id="Layer_1" data-name="Layer 1" xmlns="http://www.w3.org/2000/svg" viewBox="0 0 28.65 32.74"><defs><style>.cls-1{fill:#e2e5e6;}.cls-2{fill:#eb5745;}.cls-3{fill:#b1b8bf;}.cls-4{fill:#cad1d8;}.cls-5{fill:#fffdfc;}.cls-6{fill:#fffcfb;}.cls-7{fill:#eb5846;}.cls-8{fill:#eb5947;}</style></defs><path class="cls-1" d="M40.21,34.11H55v.06c-.1.09-.06.21-.06.33v5.7a1.83,1.83,0,0,0,0,.47,2.11,2.11,0,0,0,2.13,1.63c0,.15.14.23.24.33l5.51,5.5a1.86,1.86,0,0,0,.26.23V64.83a2.07,2.07,0,0,1-2,2H40.64a2.07,2.07,0,0,1-2-2c0-.7,0-1.39,0-2.08H58.08a1,1,0,0,0,1-1c0-.28,0-.57,0-.86s0-.34,0-.51V50.75c0-.94-.35-1.3-1.29-1.3H38.61V36.21a2.08,2.08,0,0,1,1.35-2A.5.5,0,0,0,40.21,34.11Z" transform="translate(-34.52 -34.11)"/><path class="cls-2" d="M38.61,61.74H35.67a1,1,0,0,1-1.15-1.14q0-5,0-10a1,1,0,0,1,1.15-1.14H57.78c.94,0,1.29.36,1.29,1.3v9.62c0,.17,0,.34,0,.51a1.11,1.11,0,0,1-1.25.85H38.61Zm5.87-5.91V58c0,.44.18.61.63.62s.78,0,1.18,0a5.71,5.71,0,0,0,1.43-.09,2.87,2.87,0,0,0-.15-5.5A11.13,11.13,0,0,0,45,53c-.34,0-.5.23-.51.58Zm-5.5,0V58c0,.4.22.65.55.65s.51-.23.53-.63,0-.51,0-.77.06-.26.25-.25c.42,0,.83,0,1.25,0a2,2,0,0,0,.16-4,17.49,17.49,0,0,0-2,0c-.49,0-.69.21-.69.71Zm11.84,0c0,.74,0,1.47,0,2.21,0,.41.19.63.55.64s.52-.22.52-.63,0-.89,0-1.34c0-.21.07-.27.27-.26H54a.57.57,0,0,0,.61-.46.63.63,0,0,0-.56-.6H52.19c-.21,0-.31,0-.29-.27a5,5,0,0,0,0-.77c0-.22.07-.27.27-.26h2c.41,0,.66-.21.67-.54s-.21-.51-.63-.52c-.92,0-1.83,0-2.75,0-.48,0-.64.2-.64.67C50.82,54.39,50.82,55.1,50.82,55.81Z" transform="translate(-34.52 -34.11)"/><path class="cls-3" d="M55,34.17l8.06,8.06c-.11.1-.24.06-.37.06H57.15A2.11,2.11,0,0,1,55,40.67a1.83,1.83,0,0,1,0-.47V34.5C55,34.38,54.94,34.26,55,34.17Z" transform="translate(-34.52 -34.11)"/><path class="cls-4" d="M38.61,61.74h19.2a1.11,1.11,0,0,0,1.25-.85c0,.29,0,.58,0,.86a1,1,0,0,1-1,1H38.61Z" transform="translate(-34.52 -34.11)"/><path class="cls-4" d="M57.15,42.3h5.58c.13,0,.26,0,.37-.06.09.08.06.2.06.3v5.83a1.86,1.86,0,0,1-.26-.23l-5.51-5.5C57.29,42.53,57.17,42.45,57.15,42.3Z" transform="translate(-34.52 -34.11)"/><path class="cls-5" d="M44.48,55.83V53.6c0-.35.17-.56.51-.58a11.13,11.13,0,0,1,2.58,0,2.87,2.87,0,0,1,.15,5.5,5.71,5.71,0,0,1-1.43.09c-.4,0-.79,0-1.18,0s-.62-.18-.63-.62Zm1.09,0c0,.53,0,1.06,0,1.59,0,.2.07.26.26.25h1a1.63,1.63,0,0,0,1.69-1.42A1.73,1.73,0,0,0,46.76,54c-.29,0-.59,0-.89,0s-.32,0-.31.29C45.58,54.79,45.57,55.3,45.57,55.82Z" transform="translate(-34.52 -34.11)"/><path class="cls-5" d="M39,55.8V53.63c0-.5.2-.71.69-.71a17.49,17.49,0,0,1,2,0,2,2,0,0,1-.16,4c-.42,0-.83,0-1.25,0-.19,0-.26.05-.25.25s0,.51,0,.77-.22.63-.53.63S39,58.41,39,58ZM40.06,55c0,.28,0,.55,0,.83s.06.2.2.2c.35,0,.7,0,1.06,0a1,1,0,1,0,0-2c-.34,0-.68,0-1,0s-.27,0-.26.25S40.06,54.71,40.06,55Z" transform="translate(-34.52 -34.11)"/><path class="cls-6" d="M50.82,55.81c0-.71,0-1.42,0-2.14,0-.47.16-.66.64-.67.92,0,1.83,0,2.75,0,.42,0,.64.21.63.52s-.26.54-.67.54h-2c-.2,0-.29,0-.27.26a5,5,0,0,1,0,.77c0,.23.08.28.29.27H54a.63.63,0,0,1,.56.6.57.57,0,0,1-.61.46H52.17c-.2,0-.28,0-.27.26,0,.45,0,.9,0,1.34s-.19.63-.52.63-.55-.23-.55-.64C50.82,57.28,50.82,56.55,50.82,55.81Z" transform="translate(-34.52 -34.11)"/><path class="cls-7" d="M45.57,55.82c0-.52,0-1,0-1.54,0-.25.08-.3.31-.29s.6,0,.89,0a1.73,1.73,0,0,1,1.8,2.23,1.63,1.63,0,0,1-1.69,1.42h-1c-.19,0-.26,0-.26-.25C45.57,56.88,45.57,56.35,45.57,55.82Z" transform="translate(-34.52 -34.11)"/><path class="cls-8" d="M40.06,55c0-.25,0-.51,0-.76s.07-.26.26-.25.68,0,1,0a1,1,0,1,1,0,2c-.36,0-.71,0-1.06,0-.14,0-.21-.05-.2-.2S40.06,55.24,40.06,55Z" transform="translate(-34.52 -34.11)"/></svg>