<svg id="Layer_1" data-name="Layer 1" xmlns="http://www.w3.org/2000/svg" viewBox="0 0 28.03 38.97"><defs><style>.cls-1{fill:#e3e8f1;}.cls-2{fill:#9dacbb;}.cls-3{fill:#c9d5e3;}.cls-4{fill:#9dacba;}</style></defs><path class="cls-1" d="M36.89,27.69H53.1c0,2.49,0,5,0,7.48a1.46,1.46,0,0,0,0,.41,2.5,2.5,0,0,0,2.46,1.87c0,.18.18.27.29.39,1.75,1.75,3.49,3.5,5.25,5.24a1.55,1.55,0,0,1,.48,1.18q0,9.87,0,19.75c0,1-.44,1.44-1.43,1.44H38.58a1.2,1.2,0,0,0-1.31,1.22,2.47,2.47,0,0,1-2.44-2.49V34.58c0-1.48,0-3,0-4.45a2.36,2.36,0,0,1,.93-1.9A4.45,4.45,0,0,1,36.89,27.69ZM48.8,46.57h8.25a1.6,1.6,0,0,0,.38,0A.59.59,0,0,0,58,46a.6.6,0,0,0-.53-.6,1.9,1.9,0,0,0-.34,0H40.59a2,2,0,0,0-.35,0,.6.6,0,0,0-.53.6.6.6,0,0,0,.53.6,1.61,1.61,0,0,0,.38,0ZM48.88,49H40.63c-.61,0-.92.2-.92.6s.3.62.91.62H57.05a2.38,2.38,0,0,0,.38,0,.61.61,0,0,0,0-1.2,1.61,1.61,0,0,0-.38,0Zm-.05,3.65H40.62a2.38,2.38,0,0,0-.38,0,.6.6,0,0,0,0,1.2,1.28,1.28,0,0,0,.34,0H57.1a1.29,1.29,0,0,0,.34,0,.61.61,0,0,0,0-1.2,2.38,2.38,0,0,0-.38,0Zm0,4.87h8.25c.61,0,.92-.2.92-.6s-.31-.61-.91-.61H40.63a1.6,1.6,0,0,0-.38,0,.59.59,0,0,0-.54.59.6.6,0,0,0,.53.6,1.6,1.6,0,0,0,.38,0Zm0-16.44H53.6a.64.64,0,0,0,.72-.61.66.66,0,0,0-.74-.61h-9.5a.68.68,0,0,0-.37.07.58.58,0,0,0-.33.66.63.63,0,0,0,.67.49Zm-3.62,20.1h4.75a.64.64,0,0,0,.72-.61c0-.36-.29-.61-.73-.61h-9.5a.6.6,0,0,0-.37.07.58.58,0,0,0-.34.65.64.64,0,0,0,.68.5Z" transform="translate(-34.83 -27.69)"/><path class="cls-2" d="M53.18,27.69a4.2,4.2,0,0,0,.9,1c1.18,1.2,2.4,2.37,3.58,3.57.9.92,1.83,1.82,2.73,2.76s1.59,1.56,2.37,2.37c-.13.12-.29.06-.43.06l-6.72,0a2.5,2.5,0,0,1-2.46-1.87,1.46,1.46,0,0,1,0-.41c0-2.49,0-5,0-7.48Z" transform="translate(-34.83 -27.69)"/><path class="cls-3" d="M55.61,37.45l6.72,0c.14,0,.3.06.43-.06.14.1.08.25.08.38q0,13.24,0,26.49a2.41,2.41,0,0,1-2.32,2.43H37.27a1.2,1.2,0,0,1,1.31-1.22H60.2c1,0,1.43-.44,1.43-1.44q0-9.87,0-19.75a1.55,1.55,0,0,0-.48-1.18c-1.76-1.74-3.5-3.49-5.25-5.24C55.79,37.72,55.64,37.63,55.61,37.45Z" transform="translate(-34.83 -27.69)"/><path class="cls-4" d="M48.8,46.57H40.62a1.61,1.61,0,0,1-.38,0,.6.6,0,0,1-.53-.6.6.6,0,0,1,.53-.6,2,2,0,0,1,.35,0h16.5a1.9,1.9,0,0,1,.34,0A.6.6,0,0,1,58,46a.59.59,0,0,1-.53.6,1.6,1.6,0,0,1-.38,0Z" transform="translate(-34.83 -27.69)"/><path class="cls-4" d="M48.88,49h8.18a1.61,1.61,0,0,1,.38,0,.61.61,0,0,1,0,1.2,2.38,2.38,0,0,1-.38,0H40.62c-.61,0-.92-.21-.91-.62s.31-.6.92-.6Z" transform="translate(-34.83 -27.69)"/><path class="cls-4" d="M48.83,52.66h8.22a2.38,2.38,0,0,1,.38,0,.61.61,0,0,1,0,1.2,1.29,1.29,0,0,1-.34,0H40.59a1.28,1.28,0,0,1-.34,0,.6.6,0,0,1,0-1.2,2.38,2.38,0,0,1,.38,0Z" transform="translate(-34.83 -27.69)"/><path class="cls-4" d="M48.8,57.53H40.62a1.6,1.6,0,0,1-.38,0,.6.6,0,0,1-.53-.6.59.59,0,0,1,.54-.59,1.6,1.6,0,0,1,.38,0H57.06c.6,0,.91.2.91.61s-.31.6-.92.6Z" transform="translate(-34.83 -27.69)"/><path class="cls-2" d="M48.81,41.09H44.05a.63.63,0,0,1-.67-.49.58.58,0,0,1,.33-.66.68.68,0,0,1,.37-.07h9.5a.66.66,0,0,1,.74.61.64.64,0,0,1-.72.61Z" transform="translate(-34.83 -27.69)"/><path class="cls-2" d="M45.19,61.19H40.4a.64.64,0,0,1-.68-.5.58.58,0,0,1,.34-.65.6.6,0,0,1,.37-.07h9.5c.44,0,.73.25.73.61a.64.64,0,0,1-.72.61Z" transform="translate(-34.83 -27.69)"/></svg>