<svg width="15" height="14" viewBox="0 0 15 14" fill="none" xmlns="http://www.w3.org/2000/svg">
<g clip-path="url(#clip0_774_1076)">
<path d="M14.002 4.3692C14.002 5.15427 14.002 5.93933 14.002 6.7244C13.9945 6.75186 13.9827 6.77932 13.9782 6.8084C13.7753 8.04415 12.9234 8.83083 11.7753 8.83568C10.9145 8.83891 10.0538 8.83568 9.19158 8.83568C9.15158 8.83568 9.11158 8.83083 9.05529 8.82599C9.05529 8.73553 9.05825 8.65153 9.05529 8.56914C9.03751 8.09907 8.69677 7.71785 8.26418 7.713C7.42121 7.70492 6.57825 7.70492 5.73529 7.713C5.30269 7.71785 4.96195 8.10069 4.94566 8.57076C4.94269 8.65314 4.94566 8.73714 4.94566 8.82114C4.91158 8.8276 4.89381 8.83406 4.87603 8.83406C3.94714 8.83406 3.01677 8.85345 2.08788 8.82599C1.11306 8.79852 0.317509 8.08292 0.0715828 7.06847C0.0463976 6.96509 0.0256568 6.86009 0.00195312 6.75509C0.00195312 5.96033 0.00195312 5.16396 0.00195312 4.3692C0.00787905 4.36113 0.0167679 4.35466 0.0182494 4.34659C0.203435 3.57767 0.630101 3.21906 1.35899 3.21906C2.21973 3.21906 3.08195 3.21906 3.94269 3.21906C3.99603 3.21906 4.05084 3.21906 4.12047 3.21906C4.12047 3.14799 4.12047 3.09468 4.12047 3.04137C4.12195 2.77322 4.11455 2.50507 4.12492 2.23692C4.16195 1.29032 4.87603 0.532717 5.74418 0.526256C6.58269 0.519794 7.42121 0.514948 8.25973 0.527871C8.84788 0.537563 9.30714 0.828328 9.62862 1.36624C9.81084 1.66993 9.8864 2.00754 9.88343 2.371C9.88047 2.64723 9.88343 2.92507 9.88343 3.21906C9.95455 3.21906 10.0079 3.21906 10.0627 3.21906C10.6375 3.21906 11.2108 3.21745 11.7857 3.21906C12.1501 3.22068 12.516 3.20937 12.879 3.23199C13.3827 3.26268 13.8108 3.65683 13.9531 4.18667C13.9664 4.24805 13.9857 4.30943 14.002 4.3692ZM4.95455 3.20776C6.32788 3.20776 7.6864 3.20776 9.05825 3.20776C9.05825 2.89922 9.06269 2.602 9.05677 2.30638C9.0464 1.81693 8.70862 1.43247 8.25973 1.42601C7.42121 1.41632 6.58269 1.41632 5.74566 1.42601C5.34714 1.43086 4.99603 1.75716 4.96195 2.17392C4.93232 2.51315 4.95455 2.85561 4.95455 3.20776Z" fill="#5B21B6"/>
<path d="M0.00195312 12.8387C0.00195312 11.4672 0.00195312 10.0958 0.00195312 8.72437C0.630101 9.41897 1.39306 9.74527 2.2864 9.73558C3.11455 9.7275 3.94418 9.73397 4.7738 9.73397C4.82714 9.73397 4.88047 9.73397 4.94566 9.73397C4.94566 9.80181 4.94566 9.85027 4.94566 9.89873C4.9501 10.4883 5.28343 10.8502 5.82714 10.8534C6.04047 10.855 6.25529 10.8534 6.46862 10.8534C7.0464 10.8534 7.62566 10.8566 8.20343 10.8518C8.71306 10.847 9.05084 10.477 9.05825 9.92781C9.05973 9.86643 9.05825 9.80343 9.05825 9.73397C9.13084 9.73397 9.18121 9.73397 9.2301 9.73397C10.0597 9.73397 10.8879 9.7275 11.7175 9.73558C12.6108 9.74366 13.3738 9.42059 14.002 8.72437C14.002 10.0958 14.002 11.4672 14.002 12.8387C13.996 12.8468 13.9886 12.8532 13.9871 12.8629C13.8094 13.6318 13.3783 14.0001 12.6553 14.0001C8.8864 14.0001 5.11899 14.0001 1.3501 14.0001C1.29529 14.0001 1.24047 14.0001 1.18566 13.9985C0.674546 13.9694 0.22862 13.6044 0.0656568 13.0794C0.0419531 13.0002 0.0226939 12.9178 0.00195312 12.8387Z" fill="#5B21B6"/>
<path d="M8.2292 9.94557C7.40845 9.94557 6.5966 9.94557 5.77734 9.94557C5.77734 9.50296 5.77734 9.06843 5.77734 8.62097C6.59216 8.62097 7.40697 8.62097 8.2292 8.62097C8.2292 9.05873 8.2292 9.49327 8.2292 9.94557Z" fill="#5B21B6"/>
</g>
<defs>
<clipPath id="clip0_774_1076">
<rect width="14" height="14" fill="white" transform="translate(0.00195312)"/>
</clipPath>
</defs>
</svg>
