<svg width="15" height="14" viewBox="0 0 15 14" fill="none" xmlns="http://www.w3.org/2000/svg">
<g clip-path="url(#clip0_774_1076)">
<path d="M14.002 4.36922C14.002 5.15428 14.002 5.93935 14.002 6.72441C13.9945 6.75188 13.9827 6.77934 13.9782 6.80841C13.7753 8.04417 12.9234 8.83085 11.7753 8.83569C10.9145 8.83892 10.0538 8.83569 9.19158 8.83569C9.15158 8.83569 9.11158 8.83085 9.05529 8.826C9.05529 8.73554 9.05825 8.65154 9.05529 8.56916C9.03751 8.09909 8.69677 7.71786 8.26418 7.71302C7.42121 7.70494 6.57825 7.70494 5.73529 7.71302C5.30269 7.71786 4.96195 8.1007 4.94566 8.57077C4.94269 8.65316 4.94566 8.73716 4.94566 8.82115C4.91158 8.82762 4.89381 8.83408 4.87603 8.83408C3.94714 8.83408 3.01677 8.85346 2.08788 8.826C1.11306 8.79854 0.317509 8.08293 0.0715828 7.06849C0.0463976 6.9651 0.0256568 6.86011 0.00195312 6.75511C0.00195312 5.96035 0.00195312 5.16398 0.00195312 4.36922C0.00787905 4.36114 0.0167679 4.35468 0.0182494 4.3466C0.203435 3.57769 0.630101 3.21908 1.35899 3.21908C2.21973 3.21908 3.08195 3.21908 3.94269 3.21908C3.99603 3.21908 4.05084 3.21908 4.12047 3.21908C4.12047 3.148 4.12047 3.0947 4.12047 3.04139C4.12195 2.77324 4.11455 2.50509 4.12492 2.23694C4.16195 1.29034 4.87603 0.532732 5.74418 0.526271C6.58269 0.51981 7.42121 0.514963 8.25973 0.527886C8.84788 0.537578 9.30714 0.828344 9.62862 1.36626C9.81084 1.66995 9.8864 2.00756 9.88343 2.37101C9.88047 2.64724 9.88343 2.92508 9.88343 3.21908C9.95455 3.21908 10.0079 3.21908 10.0627 3.21908C10.6375 3.21908 11.2108 3.21746 11.7857 3.21908C12.1501 3.22069 12.516 3.20939 12.879 3.232C13.3827 3.26269 13.8108 3.65684 13.9531 4.18668C13.9664 4.24807 13.9857 4.30945 14.002 4.36922ZM4.95455 3.20777C6.32788 3.20777 7.6864 3.20777 9.05825 3.20777C9.05825 2.89924 9.06269 2.60201 9.05677 2.3064C9.0464 1.81695 8.70862 1.43249 8.25973 1.42603C7.42121 1.41634 6.58269 1.41634 5.74566 1.42603C5.34714 1.43087 4.99603 1.75718 4.96195 2.17394C4.93232 2.51317 4.95455 2.85562 4.95455 3.20777Z" fill="#9D9CAF"/>
<path d="M0.00195312 12.8387C0.00195312 11.4673 0.00195312 10.0958 0.00195312 8.72438C0.630101 9.41899 1.39306 9.74529 2.2864 9.7356C3.11455 9.72752 3.94418 9.73398 4.7738 9.73398C4.82714 9.73398 4.88047 9.73398 4.94566 9.73398C4.94566 9.80183 4.94566 9.85029 4.94566 9.89875C4.9501 10.4884 5.28343 10.8502 5.82714 10.8534C6.04047 10.855 6.25529 10.8534 6.46862 10.8534C7.0464 10.8534 7.62566 10.8567 8.20343 10.8518C8.71306 10.847 9.05084 10.477 9.05825 9.92783C9.05973 9.86644 9.05825 9.80344 9.05825 9.73398C9.13084 9.73398 9.18121 9.73398 9.2301 9.73398C10.0597 9.73398 10.8879 9.72752 11.7175 9.7356C12.6108 9.74367 13.3738 9.4206 14.002 8.72438C14.002 10.0958 14.002 11.4673 14.002 12.8387C13.996 12.8468 13.9886 12.8532 13.9871 12.8629C13.8094 13.6319 13.3783 14.0002 12.6553 14.0002C8.8864 14.0002 5.11899 14.0002 1.3501 14.0002C1.29529 14.0002 1.24047 14.0002 1.18566 13.9985C0.674546 13.9695 0.22862 13.6044 0.0656568 13.0794C0.0419531 13.0002 0.0226939 12.9179 0.00195312 12.8387Z" fill="#9D9CAF"/>
<path d="M8.2292 9.9456C7.40845 9.9456 6.5966 9.9456 5.77734 9.9456C5.77734 9.50299 5.77734 9.06846 5.77734 8.621C6.59216 8.621 7.40697 8.621 8.2292 8.621C8.2292 9.05877 8.2292 9.4933 8.2292 9.9456Z" fill="#9D9CAF"/>
</g>
<defs>
<clipPath id="clip0_774_1076">
<rect width="14" height="14" fill="white" transform="translate(0.00195312)"/>
</clipPath>
</defs>
</svg>
