<svg width="14" height="15" viewBox="0 0 14 15" fill="none" xmlns="http://www.w3.org/2000/svg">
<path d="M2.53125 2.35693V0H3.55875V2.35693" fill="#9D9CAF"/>
<path d="M0.402344 2.35689V4.78822H13.0261V2.35689H0.402344ZM3.55828 3.18891H2.53078V2.35693H3.55828V3.18891ZM10.8977 3.18891H9.87016V2.35693H10.8977V3.18891Z" fill="#9D9CAF"/>
<path d="M9.87109 2.35693V0H10.8986V2.35693" fill="#9D9CAF"/>
<path d="M0.402344 5.81766V15H13.0261V5.81766H0.402344ZM9.01216 7.44486H10.1865V8.47425H9.01216V7.44486ZM9.01216 9.94485H10.1865V10.9742H9.01216V9.94485ZM6.07639 7.44486H7.2507V8.47425H6.07639V7.44486ZM4.31493 13.4007H3.14062V12.3713H4.31493V13.4007ZM4.31493 10.9743H3.14062V9.94488H4.31493V10.9743ZM4.31493 8.47425H3.14062V7.44486H4.31493V8.47425ZM7.2507 13.4007H6.07639V12.3713H7.2507V13.4007ZM6.65482 11.1581C6.26976 11.1581 5.95758 10.8454 5.95758 10.4596C5.95758 10.0738 6.26976 9.76102 6.65482 9.76102C7.03988 9.76102 7.35206 10.0738 7.35206 10.4596C7.35206 10.8454 7.03988 11.1581 6.65482 11.1581ZM9.59055 13.5845C9.20549 13.5845 8.89331 13.2718 8.89331 12.886C8.89331 12.5002 9.20549 12.1875 9.59055 12.1875C9.97561 12.1875 10.2878 12.5002 10.2878 12.886C10.2878 13.2718 9.97565 13.5845 9.59055 13.5845Z" fill="#9D9CAF"/>
</svg>
