<svg width="16" height="16" viewBox="0 0 16 16" fill="none" xmlns="http://www.w3.org/2000/svg">
<path d="M0 8.93624C0 8.64299 0 8.35011 0 8.05685C0.0234375 7.85976 0.0432129 7.66194 0.0714111 7.46521C0.301392 5.84957 0.970825 4.44093 2.11743 3.28076C3.88293 1.49409 6.03259 0.761508 8.52063 1.06761C10.0126 1.25112 11.3258 1.86662 12.4508 2.86456C13.7622 4.02803 14.5829 5.47374 14.8846 7.20572C14.9337 7.4876 14.9619 7.77314 15 8.05685C15 8.35011 15 8.64299 15 8.93624C14.9908 8.988 14.9802 9.03938 14.9733 9.0915C14.9377 9.36199 14.9165 9.63543 14.866 9.90335C14.5822 11.3979 13.9021 12.6891 12.8331 13.7685C11.7125 14.9004 10.366 15.6132 8.79272 15.8844C8.51001 15.9332 8.224 15.9618 7.93945 16C7.64648 16 7.35352 16 7.06055 16C6.86279 15.9765 6.66431 15.9563 6.46692 15.9284C4.98816 15.7196 3.68079 15.1283 2.56128 14.1396C1.24292 12.975 0.418213 11.526 0.11499 9.78811C0.0662842 9.50587 0.0377197 9.22032 0 8.93624ZM6.64416 7.70011C6.72766 7.64358 6.78772 7.60211 6.84888 7.56247C7.073 7.41786 7.31616 7.3474 7.58496 7.37309C8.05371 7.41786 8.42139 7.65203 8.7301 7.98895C9.27209 8.5806 9.23328 9.40677 8.63562 9.87583C8.302 10.1375 7.99109 10.4289 7.67065 10.7079C7.54541 10.8169 7.46887 10.9409 7.5271 11.1186C7.5542 11.2012 7.56299 11.2903 7.57397 11.3773C7.63513 11.8611 7.41101 12.2171 6.95837 12.3573C6.70203 12.4369 6.71521 12.4391 6.67273 12.7012C6.62805 12.9783 6.59399 13.2675 6.48633 13.5226C6.19995 14.2008 5.41187 14.3099 4.92517 13.7593C4.72339 13.531 4.62085 13.2561 4.60291 12.9588C4.5813 12.6032 4.45825 12.303 4.23779 12.0237C4.09827 11.8468 3.99353 11.6372 3.90015 11.4302C3.77307 11.1483 3.81592 10.8444 3.84009 10.5482C3.85876 10.317 3.79504 10.1283 3.62805 9.96722C3.52295 9.86555 3.4303 9.75104 3.33179 9.64277C3.06958 9.35392 2.91797 9.01809 2.91064 8.62464C2.90808 8.48334 2.91541 8.34166 2.92566 8.20036C2.93445 8.08291 2.89783 8.0029 2.79785 7.93023C2.25146 7.53238 1.74463 7.09011 1.32312 6.55719C1.31653 6.54875 1.30115 6.54692 1.28943 6.54178C0.370605 9.33116 1.49377 12.8003 4.64063 14.355C7.48206 15.7589 10.626 14.787 12.2216 12.9614C12.1831 12.9313 12.145 12.9012 12.1069 12.8707C11.8359 12.6527 11.6499 12.3804 11.5726 12.038C11.506 11.7421 11.5587 11.457 11.6451 11.1736C11.7345 10.8804 11.8392 10.5897 11.8993 10.2902C11.9659 9.95767 11.892 9.84536 11.5774 9.73159C11.083 9.55248 10.6245 9.30731 10.192 9.01259C9.84265 8.77439 9.64014 8.45361 9.6676 8.01391C9.70386 7.43511 9.90784 6.91688 10.2762 6.47571C10.734 5.92701 11.3148 5.71964 12.0168 5.93876C12.212 5.99968 12.4076 6.06134 12.5988 6.13438C12.9232 6.25807 13.2532 6.24155 13.5992 6.20338C13.3528 5.54714 13.0151 4.95953 12.579 4.41634C12.2988 4.66995 11.9634 4.76685 11.6246 4.63729C11.2335 4.48754 10.9017 4.5448 10.5403 4.72207C10.1946 4.89163 9.82507 4.86301 9.52551 4.59765C9.33874 4.43212 9.17102 4.23393 9.03589 4.02399C8.86304 3.75533 8.87549 3.45547 9.07031 3.19965C9.25598 2.95631 9.47607 2.7394 9.68152 2.51075C9.71521 2.47331 9.74927 2.43697 9.79065 2.39183C8.67627 1.9826 7.55786 1.87983 6.39258 2.07142C6.47131 2.28099 6.54749 2.46597 6.61084 2.65462C6.74048 3.04183 6.91077 3.42317 6.97815 3.82176C7.09167 4.49305 6.84595 5.22012 5.92969 5.27407C5.68176 5.28876 5.47119 5.37023 5.27893 5.53062C5.00207 5.76148 4.67395 5.83269 4.31799 5.78791C4.21179 5.7747 4.10376 5.76809 3.99683 5.77249C3.92468 5.77543 3.85364 5.80259 3.75476 5.82535C3.80347 5.86131 3.82251 5.87599 3.84192 5.88957C4.19861 6.14135 4.60291 6.26027 5.03174 6.29697C5.77039 6.36047 6.28711 6.70914 6.52625 7.42998C6.55481 7.51659 6.59875 7.59771 6.64416 7.70011Z" fill="#9D9CAF"/>
</svg>
