<svg width="15" height="14" viewBox="0 0 15 14" fill="none" xmlns="http://www.w3.org/2000/svg">
<path d="M7.19379 0C7.33593 0.0445325 7.48287 0.0777606 7.61919 0.134968C8.28333 0.414495 8.72381 1.14311 8.66592 1.85358C8.61009 2.54041 8.09392 3.14091 7.41368 3.31013C6.6783 3.49306 5.91792 3.169 5.54423 2.513C5.17877 1.87208 5.30276 1.05131 5.84907 0.503902C6.10356 0.249039 6.40292 0.0787882 6.76256 0.0222662C6.77935 0.0195258 6.79476 0.00753627 6.81086 0C6.93862 0 7.06603 0 7.19379 0Z" fill="#FC7125"/>
<path d="M0.00229564 6.12662C0.0673736 5.90019 0.117038 5.66794 0.201982 5.44904C0.31878 5.14793 0.515726 4.89718 0.7572 4.68068C0.821593 4.62313 0.86749 4.61491 0.944556 4.66287C1.68507 5.12361 2.42833 5.12258 3.16782 4.65945C3.23633 4.61663 3.28633 4.60703 3.34628 4.66835C3.40039 4.7235 3.46273 4.77043 3.51993 4.82216C3.69598 4.98145 3.81107 5.14896 3.73126 5.41479C3.6816 5.58024 3.69907 5.76728 3.6953 5.94472C3.69016 6.17218 3.69393 6.39964 3.69393 6.64628C2.45847 6.64628 1.23021 6.64628 0.00195312 6.64628C0.00229564 6.47295 0.00229564 6.29995 0.00229564 6.12662Z" fill="#FC7125"/>
<path d="M5.62721 3.78143C6.55166 4.31993 7.46686 4.31821 8.38412 3.77869C9.09724 4.27334 9.4699 4.94989 9.49113 5.81793C9.49421 5.94091 9.49284 6.06389 9.49182 6.18687C9.48942 6.48352 9.33118 6.64452 9.03627 6.64555C8.54408 6.64726 8.05222 6.64589 7.56003 6.64589C6.70785 6.64589 5.85601 6.64623 5.00383 6.64589C4.66406 6.64589 4.52157 6.49482 4.51301 6.15261C4.49828 5.56547 4.60789 5.01189 4.9278 4.51005C5.11138 4.22264 5.33881 3.97771 5.62721 3.78143Z" fill="#FC7125"/>
<path d="M0.0273438 7.47186C1.12374 7.47186 2.20232 7.47186 3.26343 7.47186C3.35454 8.2916 3.44496 9.10483 3.53642 9.92834C3.51073 9.92834 3.4662 9.92834 3.42133 9.92834C2.53285 9.92834 1.64402 9.92663 0.755532 9.93074C0.6586 9.93108 0.614073 9.90162 0.575711 9.81153C0.280463 9.11888 0.104067 8.39711 0.0362492 7.64828C0.0311114 7.59416 0.0304264 7.53969 0.0273438 7.47186Z" fill="#FC7125"/>
<path d="M10.4709 9.92251C10.562 9.10483 10.6524 8.29194 10.7435 7.4722C11.8039 7.4722 12.8829 7.4722 13.9912 7.4722C13.957 7.74316 13.932 8.00864 13.8881 8.27036C13.7981 8.80646 13.6402 9.32372 13.4247 9.82317C13.399 9.88278 13.3792 9.93108 13.2932 9.93073C12.3636 9.92697 11.434 9.92834 10.5044 9.92765C10.4863 9.92765 10.4688 9.92217 10.4709 9.92251Z" fill="#FC7125"/>
<path d="M10.3116 6.6456C10.3116 6.45685 10.3188 6.2842 10.3099 6.11258C10.2941 5.80873 10.2667 5.50523 10.2486 5.20138C10.2458 5.1565 10.2534 5.09724 10.2808 5.06641C10.401 4.93076 10.5318 4.80435 10.6558 4.67213C10.7188 4.60464 10.7733 4.61663 10.8446 4.6639C11.2038 4.90095 11.5998 5.01982 12.031 5.00201C12.4023 4.98659 12.7462 4.87526 13.0545 4.66733C13.1346 4.61321 13.1836 4.6204 13.2528 4.68377C13.7313 5.1219 13.9762 5.66623 14.0008 6.31126C14.0084 6.512 13.8967 6.64286 13.7025 6.64354C12.5787 6.648 11.4549 6.6456 10.3116 6.6456Z" fill="#FC7125"/>
<path d="M6.58834 7.47559C6.58834 8.29464 6.58834 9.10068 6.58834 9.91768C5.86357 9.91768 5.14189 9.91768 4.41199 9.91768C4.24484 9.11609 4.14175 8.30526 4.11914 7.47559C4.94049 7.47559 5.75808 7.47559 6.58834 7.47559Z" fill="#FC7125"/>
<path d="M9.88696 7.47522C9.86367 8.30661 9.76126 9.11641 9.59274 9.92314C8.86763 9.92314 8.14938 9.92314 7.42188 9.92314C7.42188 9.10819 7.42188 8.29599 7.42188 7.47522C8.2398 7.47522 9.0567 7.47522 9.88696 7.47522Z" fill="#FC7125"/>
<path d="M5.13621 13.8318C3.3911 13.3327 2.07036 12.2783 1.07227 10.7573C1.98199 10.7573 2.86705 10.7573 3.73806 10.7573C3.93227 11.2924 4.11552 11.8282 4.32137 12.3554C4.52654 12.8812 4.80466 13.3704 5.13621 13.8318Z" fill="#FC7125"/>
<path d="M8.87109 13.8317C9.20128 13.3703 9.47974 12.8821 9.68491 12.3566C9.88974 11.8322 10.072 11.2995 10.2696 10.7552C11.1279 10.7552 12.0147 10.7552 12.9344 10.7552C11.939 12.2775 10.6172 13.3305 8.87109 13.8317Z" fill="#FC7125"/>
<path d="M2.03366 4.18329C1.35445 4.16308 0.80814 3.60026 0.82458 2.93707C0.841364 2.25367 1.41645 1.69872 2.08093 1.72476C2.7639 1.75148 3.30576 2.31601 3.28281 2.97749C3.25952 3.65884 2.69574 4.20282 2.03366 4.18329Z" fill="#FC7125"/>
<path d="M11.9484 1.72411C12.615 1.71828 13.1746 2.27151 13.1839 2.94464C13.1928 3.61502 12.6269 4.1847 11.9532 4.18367C11.2833 4.1823 10.727 3.62633 10.7246 2.95629C10.7222 2.28796 11.2764 1.72993 11.9484 1.72411Z" fill="#FC7125"/>
<path d="M6.58258 13.9938C6.33528 13.8938 6.14827 13.7311 5.97735 13.5478C5.65744 13.2049 5.40775 12.8103 5.2245 12.3841C5.00392 11.872 4.82616 11.3414 4.63058 10.8183C4.62442 10.8022 4.62613 10.783 4.62305 10.7567C5.27622 10.7567 5.92461 10.7567 6.58258 10.7567C6.58258 11.8289 6.58258 12.9011 6.58258 13.9938Z" fill="#FC7125"/>
<path d="M7.41992 14C7.41992 12.9093 7.41992 11.8374 7.41992 10.7573C8.07241 10.7573 8.72148 10.7573 9.39144 10.7573C9.34006 10.9289 9.29485 11.0975 9.23868 11.2626C9.00645 11.945 8.72799 12.6058 8.30943 13.1991C8.1166 13.4724 7.89636 13.7201 7.60933 13.8993C7.55316 13.9342 7.49185 13.9616 7.41992 14Z" fill="#FC7125"/>
</svg>
