<svg width="11" height="13" viewBox="0 0 11 13" fill="none" xmlns="http://www.w3.org/2000/svg">
<path d="M9.75195 1.17151e-07H0.651953C0.56658 -5.11532e-05 0.482033 0.0167267 0.403148 0.0493741C0.324264 0.0820215 0.252588 0.129898 0.19222 0.190266C0.131851 0.250635 0.0839744 0.32231 0.051327 0.401195C0.0186796 0.48008 0.00190197 0.564627 0.00195324 0.65V12.35C0.00190197 12.4354 0.0186796 12.5199 0.051327 12.5988C0.0839744 12.6777 0.131851 12.7494 0.19222 12.8097C0.252588 12.8701 0.324264 12.918 0.403148 12.9506C0.482033 12.9833 0.56658 13.0001 0.651953 13H9.75195C9.83733 13.0001 9.92187 12.9833 10.0008 12.9506C10.0796 12.918 10.1513 12.8701 10.2117 12.8097C10.2721 12.7494 10.3199 12.6777 10.3526 12.5988C10.3852 12.5199 10.402 12.4354 10.402 12.35V0.65C10.402 0.564627 10.3852 0.48008 10.3526 0.401195C10.3199 0.32231 10.2721 0.250635 10.2117 0.190266C10.1513 0.129898 10.0796 0.0820215 10.0008 0.0493741C9.92187 0.0167267 9.83733 -5.11532e-05 9.75195 1.17151e-07ZM1.95195 3.25H5.20195V4.55H1.95195V3.25ZM8.45195 9.75H1.95195V8.45H8.45195V9.75ZM8.45195 7.15H1.95195V5.85H8.45195V7.15Z" fill="#9D9CAF"/>
</svg>
