<svg width="20" height="15" viewBox="0 0 20 15" fill="none" xmlns="http://www.w3.org/2000/svg">
<path d="M9.50212 4.8558C10.843 4.8558 11.93 3.76879 11.93 2.4279C11.93 1.08701 10.843 0 9.50212 0C8.16123 0 7.07422 1.08701 7.07422 2.4279C7.07422 3.76879 8.16123 4.8558 9.50212 4.8558Z" fill="#9D9CAF"/>
<path d="M2.42777 6.87677C3.20983 6.87677 3.84381 6.24279 3.84381 5.46073C3.84381 4.67866 3.20983 4.04468 2.42777 4.04468C1.6457 4.04468 1.01172 4.67866 1.01172 5.46073C1.01172 6.24279 1.6457 6.87677 2.42777 6.87677Z" fill="#9D9CAF"/>
<path d="M16.5684 6.87677C17.3505 6.87677 17.9844 6.24279 17.9844 5.46073C17.9844 4.67866 17.3505 4.04468 16.5684 4.04468C15.7863 4.04468 15.1523 4.67866 15.1523 5.46073C15.1523 6.24279 15.7863 6.87677 16.5684 6.87677Z" fill="#9D9CAF"/>
<path d="M0 11.7326V14.4589H3.84666V11.7326C3.84666 11.1358 3.93889 10.5525 4.12065 9.99098C3.67033 9.55152 3.0681 9.30466 2.4279 9.30466C1.08781 9.30466 0 10.3952 0 11.7326Z" fill="#9D9CAF"/>
<path d="M9.50162 7.28369C7.67052 7.28369 6.05102 8.38235 5.37284 10.0778C5.15853 10.6068 5.05273 11.1629 5.05273 11.7326V14.4589H13.9505V11.7326C13.9505 11.1656 13.8447 10.6068 13.6358 10.0805C12.9522 8.38235 11.3327 7.28369 9.50162 7.28369Z" fill="#9D9CAF"/>
<path d="M16.5709 9.30466C15.9334 9.30466 15.3312 9.55152 14.8809 9.99098C15.0626 10.5552 15.1548 11.1358 15.1548 11.7326V14.4589H19.0015V11.7326C19.0015 10.3952 17.9137 9.30466 16.5709 9.30466Z" fill="#9D9CAF"/>
</svg>
