<svg width="16" height="17" viewBox="0 0 16 17" fill="none" xmlns="http://www.w3.org/2000/svg">
<g clip-path="url(#clip0_270_2086)">
<path d="M15.6536 10.9416C15.6536 11.1804 15.6536 11.4192 15.6536 11.658C15.6251 11.8245 15.601 11.991 15.5703 12.1575C14.9787 15.3188 11.3919 16.9312 8.64213 15.2706C8.50847 15.1895 8.3792 15.1523 8.22363 15.1544C6.08075 15.1588 3.93787 15.1566 1.79499 15.1566C0.909789 15.1566 0.34668 14.5958 0.34668 13.7107C0.34668 11.1651 0.34668 8.61938 0.34668 6.0737C0.34668 4.71761 0.34668 3.36371 0.34668 2.00763C0.34668 1.51909 0.541686 1.12256 0.951419 0.857472C1.12013 0.750125 1.3239 0.701928 1.51234 0.627441C5.57899 0.627441 9.64565 0.627441 13.7101 0.627441C13.7189 0.631823 13.7276 0.640586 13.7364 0.642777C14.5164 0.839946 14.8758 1.30439 14.8758 2.11059C14.8758 4.27069 14.8758 6.43079 14.878 8.5909C14.878 8.67414 14.9042 8.76835 14.9481 8.83845C15.1847 9.22841 15.3775 9.63589 15.4871 10.0784C15.5594 10.3632 15.601 10.6546 15.6536 10.9416ZM14.7574 11.2965C14.7553 9.23717 13.0769 7.56123 11.0195 7.56123C8.95984 7.56123 7.28366 9.23936 7.28366 11.2987C7.28366 13.358 8.96422 15.034 11.0216 15.034C13.0813 15.034 14.7596 13.3558 14.7574 11.2965ZM1.24283 7.43198C3.22577 7.43198 5.19117 7.43198 7.15438 7.43198C7.15438 5.46028 7.15438 3.49954 7.15438 1.52347C7.09303 1.52347 7.04044 1.52347 6.98786 1.52347C5.25471 1.52347 3.51937 1.52347 1.78622 1.52347C1.40716 1.52347 1.24283 1.68997 1.24283 2.07116C1.24283 3.80406 1.24283 5.53915 1.24283 7.27205C1.24283 7.32244 1.24283 7.37283 1.24283 7.43198ZM13.9796 7.70363C13.9796 7.65544 13.9796 7.616 13.9796 7.57657C13.9796 5.73413 13.9796 3.8895 13.9796 2.04706C13.9796 1.69873 13.8065 1.52347 13.4559 1.52347C11.7118 1.52347 9.96773 1.52347 8.22363 1.52347C8.17104 1.52347 8.11846 1.52347 8.07025 1.52347C8.07025 3.59813 8.07025 5.65088 8.07025 7.69487C10.0422 6.31249 12.0011 6.30811 13.9796 7.70363ZM7.15438 8.34991C5.1824 8.34991 3.217 8.34991 1.24502 8.34991C1.24502 8.38934 1.24502 8.42002 1.24502 8.4485C1.24502 10.2208 1.24502 11.9954 1.24502 13.7677C1.24502 14.0744 1.43127 14.2562 1.7424 14.2562C3.60044 14.2562 5.45848 14.2562 7.31652 14.2562C7.35377 14.2562 7.38883 14.2497 7.4436 14.2475C7.40636 14.1971 7.38006 14.162 7.35377 14.127C6.19907 12.6351 6.06322 10.5823 7.02511 8.96552C7.14343 8.76835 7.18506 8.57775 7.15438 8.34991Z" fill="#4559BD"/>
<path d="M11.0217 11.0008C10.6886 11.0008 10.3556 11.0008 10.0225 11.0008C9.73113 11.0008 9.52955 10.8167 9.52736 10.556C9.52517 10.2909 9.72894 10.1047 10.0291 10.1025C10.6908 10.1025 11.3525 10.1025 12.0142 10.1025C12.3144 10.1025 12.5182 10.2866 12.5182 10.5538C12.516 10.8211 12.3122 10.9986 12.0099 10.9986C11.6768 11.0008 11.3503 11.0008 11.0217 11.0008Z" fill="#4559BD"/>
<path d="M11.0192 11.5989C11.3523 11.5989 11.6853 11.5989 12.0184 11.5989C12.3098 11.5989 12.5114 11.7807 12.5136 12.0414C12.5158 12.3087 12.312 12.4927 12.0118 12.4949C11.3501 12.4949 10.6884 12.4949 10.0267 12.4949C9.7265 12.4949 9.52273 12.3109 9.52492 12.0436C9.52711 11.7785 9.73088 11.5989 10.0333 11.5989C10.3619 11.5989 10.6906 11.5989 11.0192 11.5989Z" fill="#4559BD"/>
<path d="M3.75596 4.03621C3.75596 3.83466 3.75377 3.65063 3.75596 3.4688C3.75815 3.19057 3.94658 2.99121 4.20294 2.99121C4.4593 2.99121 4.64773 3.19057 4.65211 3.46661C4.6543 3.64625 4.6543 3.82589 4.65649 4.00335C4.65649 4.00773 4.66088 4.01211 4.67183 4.03621C4.83836 4.03621 5.01583 4.03621 5.19331 4.03621C5.49568 4.0384 5.69945 4.22023 5.69726 4.48751C5.69507 4.75478 5.4913 4.93223 5.18674 4.93223C5.01364 4.93223 4.84055 4.93223 4.64992 4.93223C4.64992 5.12283 4.64992 5.30028 4.64992 5.47774C4.64773 5.77787 4.46149 5.98161 4.19418 5.97723C3.93344 5.97285 3.75377 5.7713 3.75158 5.47774C3.75158 5.30247 3.75158 5.1294 3.75158 4.93004C3.55 4.93004 3.35499 4.93442 3.15779 4.93004C2.80941 4.92128 2.59907 4.57295 2.76121 4.27281C2.84666 4.11508 2.9847 4.03621 3.16437 4.03402C3.35499 4.03402 3.54561 4.03621 3.75596 4.03621Z" fill="#4559BD"/>
<path d="M11.0197 4.93234C10.7304 4.93234 10.4434 4.93453 10.1542 4.93234C9.87591 4.93015 9.67653 4.74174 9.67433 4.48761C9.67214 4.23129 9.87153 4.0385 10.1476 4.03631C10.7304 4.03412 11.3111 4.03412 11.8939 4.03631C12.1678 4.03631 12.3672 4.23129 12.365 4.48761C12.3628 4.74393 12.1634 4.93015 11.8851 4.93234C11.5959 4.93453 11.3089 4.93234 11.0197 4.93234Z" fill="#4559BD"/>
<path d="M4.2052 11.9055C4.05402 12.0654 3.93351 12.2035 3.80423 12.3327C3.59608 12.5386 3.32439 12.5496 3.14034 12.3634C2.95628 12.1772 2.96505 11.9055 3.1732 11.6996C3.30248 11.5703 3.44051 11.4498 3.60046 11.3009C3.44051 11.1519 3.30248 11.0292 3.1732 10.8999C2.96724 10.694 2.95628 10.4202 3.14253 10.2361C3.32658 10.0521 3.59827 10.0631 3.80862 10.2668C3.93789 10.3917 4.06497 10.5166 4.19206 10.6414C4.19425 10.6436 4.20082 10.6436 4.24902 10.6502C4.35639 10.5341 4.4769 10.3983 4.60617 10.2668C4.81213 10.0609 5.08602 10.0499 5.27007 10.2361C5.45412 10.4202 5.44536 10.694 5.23939 10.8999C5.11012 11.0292 4.97208 11.1497 4.80994 11.303C4.98085 11.4608 5.13422 11.5878 5.27007 11.7324C5.51766 11.9975 5.39715 12.4028 5.04877 12.4839C4.87787 12.5233 4.73325 12.4663 4.61494 12.3437C4.48347 12.2078 4.35639 12.0676 4.2052 11.9055Z" fill="#4559BD"/>
</g>
<defs>
<clipPath id="clip0_270_2086">
<rect width="16" height="16" fill="white" transform="translate(0 0.280762)"/>
</clipPath>
</defs>
</svg>
