<svg width="17" height="16" viewBox="0 0 17 16" fill="none" xmlns="http://www.w3.org/2000/svg">
<path d="M5.98344 16.0001C5.75097 15.9788 5.5185 15.9592 5.28603 15.9358C4.2973 15.8373 3.33152 15.6536 2.46049 15.1407C1.49304 14.5709 0.946713 13.7161 0.765578 12.6151C0.525595 11.158 0.960069 9.87286 1.76433 8.6829C2.37576 7.77801 3.1362 7.01128 3.97718 6.32093C4.01725 6.28795 4.05773 6.25498 4.09696 6.22075C4.10406 6.21491 4.10573 6.20322 4.10239 6.21074C3.95423 5.97408 3.81065 5.7466 3.66917 5.51788C3.54897 5.32338 3.55356 5.1318 3.66165 4.92811C3.819 4.63135 3.9968 4.35129 4.25014 4.12924C4.3311 4.05829 4.32443 4.00611 4.28186 3.92013C3.7564 2.85872 3.23428 1.79565 2.71257 0.73257C2.59029 0.483809 2.62201 0.256752 2.8069 0.111085C2.86992 0.0614166 2.95339 0.00882618 3.0281 0.00799142C3.47509 0.00381758 3.92418 -0.00870395 4.36908 0.0263563C4.83736 0.0630861 5.24346 0.275952 5.59738 0.584816C5.61658 0.601512 5.63745 0.61612 5.6675 0.639493C5.96508 0.240892 6.34571 6.11189e-05 6.85448 6.11189e-05C7.36241 6.11189e-05 7.74805 0.230874 8.03978 0.630728C8.20548 0.516783 8.35698 0.39908 8.521 0.302665C8.86825 0.0989811 9.24596 -0.00286057 9.6508 6.11189e-05C9.95256 0.00214804 10.2547 6.11189e-05 10.5565 0.000478503C10.9834 0.00131327 11.1967 0.340647 11.0076 0.725892C10.493 1.77561 9.97551 2.82366 9.45965 3.87255C9.43252 3.92765 9.40832 3.98441 9.37993 4.04618C9.6821 4.30287 9.89997 4.61675 10.0732 4.96484C10.1587 5.13639 10.1683 5.30626 10.0715 5.47113C9.92418 5.72073 9.76766 5.96531 9.61407 6.21408C11.2017 7.57809 12.599 9.09027 12.9425 11.3124C12.993 11.3124 13.049 11.3124 13.1049 11.3124C14.1045 11.3124 15.1041 11.3195 16.1036 11.3078C16.3874 11.3045 16.5849 11.3955 16.6996 11.6559C16.6996 12.9891 16.6996 14.3226 16.6996 15.6557C16.6299 15.8152 16.5156 15.9299 16.3561 15.9996C14.3983 15.9996 12.4405 15.9996 10.4826 15.9996C10.3549 15.8882 10.2276 15.7768 10.0999 15.6653C10.1011 15.629 10.0773 15.6361 10.0527 15.6407C9.58444 15.7304 9.11741 15.8294 8.64705 15.9053C8.34529 15.9541 8.03812 15.9692 7.73344 15.9996C7.14997 16.0001 6.5665 16.0001 5.98344 16.0001ZM11.9734 11.3128C11.89 10.6772 11.6608 10.1074 11.3449 9.57151C10.6566 8.40451 9.70673 7.47958 8.63453 6.66986C8.59362 6.63897 8.52935 6.62687 8.47635 6.62645C7.39872 6.62395 6.32109 6.62353 5.24346 6.62729C5.18169 6.62729 5.10948 6.64982 5.05982 6.68614C4.18169 7.33016 3.39079 8.06559 2.74137 8.94293C2.01474 9.92462 1.52643 10.9877 1.66833 12.2545C1.72468 12.7587 1.86032 13.232 2.16708 13.6448C2.56942 14.1865 3.13244 14.487 3.75681 14.6874C4.53019 14.9353 5.33069 15.0096 6.13786 15.0426C7.16458 15.0847 8.18753 15.0572 9.20005 14.8723C9.51808 14.8143 9.8286 14.7158 10.1278 14.6394C10.1345 14.5901 10.1374 14.5801 10.1374 14.5697C10.1379 13.8251 10.1496 13.0805 10.1358 12.3358C10.1174 11.3462 10.1704 11.2849 11.1546 11.3112C11.4246 11.3191 11.695 11.3128 11.9734 11.3128ZM9.84321 0.952114C9.00347 0.854029 8.30606 1.47885 8.26474 2.34284C8.25139 2.62332 8.05648 2.81532 7.78811 2.81239C7.52267 2.80947 7.32943 2.60704 7.32776 2.32739C7.3261 2.06736 7.32735 1.80692 7.32735 1.54689C7.32735 1.16707 7.14705 0.935419 6.85448 0.938758C6.56524 0.942097 6.38995 1.16915 6.38953 1.53896C6.38953 1.80942 6.39204 2.0803 6.3887 2.35077C6.38536 2.60871 6.18837 2.80697 5.9367 2.81239C5.67376 2.81866 5.47259 2.62916 5.45089 2.36663C5.43962 2.22764 5.42584 2.08573 5.38828 1.95217C5.19254 1.25305 4.49012 0.864881 3.88661 0.957958C3.89287 0.977992 3.89621 0.997609 3.90498 1.01514C4.34863 1.91961 4.79145 2.8245 5.24054 3.72605C5.26224 3.76987 5.34196 3.80911 5.39496 3.80911C6.36783 3.81412 7.34112 3.8112 8.31399 3.81537C8.41458 3.81579 8.45631 3.7778 8.49763 3.69308C8.79354 3.08077 9.09529 2.47139 9.39538 1.86118C9.54187 1.56358 9.68837 1.2664 9.84321 0.952114ZM11.0794 13.1748C12.6366 13.1748 14.193 13.1748 15.7518 13.1748C15.7518 12.8668 15.7518 12.5629 15.7518 12.2616C14.1884 12.2616 12.6358 12.2616 11.0794 12.2616C11.0794 12.5692 11.0794 12.8655 11.0794 13.1748ZM11.0828 15.0513C12.6491 15.0513 14.2017 15.0513 15.7497 15.0513C15.7497 14.7362 15.7497 14.4328 15.7497 14.1331C14.1875 14.1331 12.6387 14.1331 11.0828 14.1331C11.0828 14.4415 11.0828 14.7412 11.0828 15.0513ZM6.85614 5.68775C7.40247 5.68775 7.94963 5.67481 8.49554 5.69401C8.718 5.70194 8.86282 5.62222 8.98052 5.4536C9.01933 5.39809 9.05982 5.34383 9.09529 5.28665C9.11074 5.26202 9.12743 5.22905 9.12367 5.20275C9.09696 5.02453 8.76808 4.74989 8.58653 4.74989C7.46758 4.74989 6.34863 4.7574 5.22968 4.74363C4.99638 4.74071 4.84863 4.82419 4.72176 5.00157C4.56316 5.22237 4.56357 5.21569 4.72342 5.43816C4.85114 5.61555 4.9993 5.70194 5.23302 5.6936C5.77309 5.67481 6.31483 5.68775 6.85614 5.68775Z" fill="#4559BD"/>
<path d="M6.38999 8.24367C6.38999 8.16562 6.3879 8.08757 6.39041 8.00952C6.39917 7.75658 6.60284 7.56292 6.85744 7.5625C7.11244 7.56208 7.31779 7.75491 7.32572 8.00785C7.33031 8.15352 7.33406 8.30002 7.32446 8.44485C7.31779 8.54461 7.35785 8.58509 7.44425 8.62808C7.9647 8.88519 8.24809 9.30383 8.2627 9.88942C8.26937 10.1611 8.07488 10.3652 7.8182 10.374C7.54734 10.3832 7.34909 10.1995 7.32697 9.91905C7.30568 9.64775 7.12997 9.45742 6.88331 9.43864C6.66461 9.42195 6.45468 9.58932 6.40084 9.82264C6.33699 10.0998 6.57113 10.3652 6.88707 10.3744C7.46804 10.3915 7.96303 10.7367 8.17004 11.2693C8.43882 11.9605 8.12914 12.7427 7.45259 13.054C7.34575 13.1033 7.31987 13.1592 7.32488 13.2631C7.33156 13.3984 7.32906 13.534 7.32572 13.6692C7.31904 13.9314 7.11286 14.1271 6.85118 14.1246C6.59784 14.1221 6.39834 13.9259 6.38999 13.6713C6.38916 13.6505 6.38707 13.6292 6.38999 13.6087C6.43507 13.2957 6.36495 13.0849 6.044 12.9088C5.63498 12.6846 5.45468 12.2652 5.45343 11.7893C5.45259 11.5206 5.64834 11.3181 5.90627 11.3127C6.17004 11.3073 6.37163 11.4905 6.38832 11.7597C6.40126 11.9647 6.48807 12.1203 6.67547 12.2063C6.84742 12.2852 7.01144 12.2526 7.15585 12.1333C7.30777 12.0076 7.35952 11.8106 7.29525 11.6266C7.22805 11.4354 7.05026 11.3173 6.82113 11.3123C6.22513 11.2993 5.69884 10.9057 5.51687 10.3364C5.30902 9.68699 5.59199 8.97075 6.20259 8.66648C6.3637 8.58634 6.41336 8.49702 6.39041 8.33758C6.38623 8.3067 6.38999 8.27498 6.38999 8.24367Z" fill="#4559BD"/>
</svg>
