<svg width="17" height="16" viewBox="0 0 17 16" fill="none" xmlns="http://www.w3.org/2000/svg">
<g clip-path="url(#clip0_270_2094)">
<path d="M8.84206 2.70861C9.10073 2.16918 9.43674 1.71199 9.89122 1.35883C11.0129 0.48316 12.2603 0.260615 13.5874 0.771017C14.9267 1.28626 15.7244 2.29738 15.9541 3.71248C16.2079 5.27997 15.4077 6.8281 13.9984 7.57073C13.8896 7.62878 13.8533 7.68926 13.8533 7.81262C13.8582 9.27368 13.8533 10.7372 13.8582 12.1982C13.8606 12.5127 13.7301 12.7086 13.4472 12.8344C11.5496 13.6931 9.65431 14.5543 7.75907 15.4203C7.53425 15.5243 7.3336 15.5267 7.10637 15.4227C5.2087 14.5543 3.3062 13.6907 1.40371 12.832C1.12571 12.7062 1 12.5127 1 12.2079C1.00483 9.94857 1.00483 7.68926 1 5.42994C1 5.13241 1.11845 4.93647 1.3892 4.81311C3.29654 3.94954 5.20387 3.08355 7.10637 2.21272C7.32635 2.11112 7.52458 2.10387 7.74456 2.2103C8.09992 2.38205 8.46253 2.53686 8.84206 2.70861ZM6.88638 14.1406C6.8888 14.0947 6.89363 14.0656 6.89363 14.039C6.89363 12.1861 6.89363 10.3356 6.89605 8.48268C6.89605 8.36899 6.84287 8.3327 6.75584 8.29158C5.54956 7.74489 4.34327 7.19579 3.13699 6.64668C2.78888 6.48945 2.44077 6.33222 2.08058 6.17015C2.07816 6.21853 2.07333 6.24513 2.07333 6.27174C2.07333 8.12467 2.07333 9.97518 2.07091 11.8281C2.07091 11.9297 2.10959 11.9708 2.19662 12.0095C3.40774 12.5586 4.61886 13.1102 5.82998 13.6617C6.17808 13.8238 6.52619 13.9786 6.88638 14.1406ZM7.96454 14.1406C8.0274 14.114 8.07333 14.0971 8.11684 14.0777C9.63255 13.3883 11.1459 12.6989 12.664 12.0144C12.7631 11.9684 12.7873 11.9152 12.7873 11.8136C12.7849 10.5872 12.7849 9.36076 12.7849 8.13193C12.7849 8.08355 12.78 8.03517 12.7776 7.98195C12.7438 7.98195 12.722 7.97953 12.7002 7.98195C11.8082 8.09322 10.9863 7.89487 10.2248 7.42075C10.1765 7.39172 10.0846 7.39898 10.029 7.42317C9.3884 7.70861 8.75262 8.00372 8.11201 8.28916C7.99839 8.33996 7.96213 8.39801 7.96213 8.5238C7.96696 10.3356 7.96454 12.1498 7.96454 13.9616C7.96454 14.0148 7.96454 14.0705 7.96454 14.1406ZM14.9267 4.26158C14.9267 2.78843 13.7252 1.58863 12.2554 1.58621C10.776 1.58379 9.57212 2.78843 9.57212 4.26642C9.57212 5.73715 10.7736 6.9418 12.2434 6.9418C13.7228 6.94422 14.9291 5.73957 14.9267 4.26158ZM9.28928 6.58137C9.2772 6.55234 9.27478 6.54025 9.26753 6.53057C8.6801 5.73473 8.41418 4.84939 8.53022 3.86003C8.53989 3.77053 8.50363 3.73183 8.42869 3.69796C8.1386 3.56976 7.85334 3.42946 7.56084 3.30851C7.4859 3.27706 7.37228 3.27465 7.29976 3.30851C5.86865 3.95196 4.43997 4.60508 3.01128 5.25578C2.96535 5.27755 2.91942 5.30416 2.86865 5.33077C2.89041 5.35012 2.89525 5.35979 2.90492 5.36463C4.38437 6.0371 5.86382 6.71199 7.34569 7.38205C7.3892 7.4014 7.45689 7.40866 7.5004 7.3893C8.09508 7.12564 8.68735 6.85471 9.28928 6.58137Z" fill="#4559BD"/>
<path d="M12.0477 4.39705C12.3136 3.73184 12.5601 3.11258 12.8116 2.49575C12.93 2.20305 13.1935 2.06517 13.4643 2.14258C13.7882 2.23692 13.9381 2.55622 13.8051 2.89004C13.5416 3.55767 13.2733 4.22531 13.0074 4.89052C12.9276 5.0913 12.8478 5.29449 12.7632 5.49526C12.5892 5.91132 12.1637 6.00083 11.847 5.68636C11.5062 5.35012 11.1677 5.00905 10.8293 4.66798C10.5948 4.43092 10.5851 4.11161 10.7979 3.89149C11.0154 3.66652 11.3442 3.67378 11.5859 3.91326C11.7334 4.06323 11.876 4.21805 12.0477 4.39705Z" fill="#4559BD"/>
</g>
<defs>
<clipPath id="clip0_270_2094">
<rect width="15" height="15" fill="white" transform="translate(1 0.5)"/>
</clipPath>
</defs>
</svg>
