<svg width="17" height="16" viewBox="0 0 17 16" fill="none" xmlns="http://www.w3.org/2000/svg">
<g clip-path="url(#clip0_270_2099)">
<path d="M16 6.47656C16 9.48125 16 12.4906 16 15.5C11.0031 15.5 6.00625 15.5 1 15.5C1 12.4953 1 9.48594 1 6.47656C1.04219 6.45312 1.08437 6.42969 1.12187 6.40156C1.67969 5.975 2.23281 5.54375 2.79531 5.11719C2.875 5.05625 2.90781 4.99531 2.90781 4.89219C2.90313 3.425 2.90312 1.9625 2.90312 0.5C6.63437 0.5 10.3656 0.5 14.0969 0.5C14.0969 1.9625 14.0969 3.425 14.0922 4.89219C14.0922 4.99531 14.125 5.06094 14.2047 5.12187C14.5656 5.38906 14.9172 5.67031 15.2734 5.94219C15.5172 6.12031 15.7563 6.29844 16 6.47656ZM3.78906 1.38594C3.78437 1.42344 3.78438 1.44219 3.78438 1.46094C3.78438 4.01562 3.78437 6.57031 3.77969 9.12031C3.77969 9.21875 3.83125 9.25625 3.89687 9.29844C5.39219 10.2406 6.88281 11.1828 8.37344 12.1297C8.47656 12.1953 8.5375 12.1812 8.63125 12.125C10.1125 11.2109 11.5984 10.2969 13.0844 9.39219C13.1781 9.33594 13.2156 9.275 13.2156 9.1625C13.2109 6.62187 13.2109 4.08594 13.2109 1.54531C13.2109 1.49375 13.2109 1.44219 13.2109 1.39062C10.0656 1.38594 6.92969 1.38594 3.78906 1.38594ZM15.1141 9.17656C15.0672 9.20469 15.0344 9.21875 15.0062 9.2375C12.8828 10.5406 10.7594 11.8437 8.63594 13.1516C8.5375 13.2125 8.46719 13.2219 8.36406 13.1562C6.24531 11.8156 4.12656 10.4797 2.00313 9.14375C1.97031 9.12031 1.93281 9.10625 1.88594 9.07812C1.88594 10.9344 1.88594 12.7719 1.88594 14.6188C6.29687 14.6188 10.7031 14.6188 15.1141 14.6188C15.1141 12.8047 15.1141 11 15.1141 9.17656ZM14.1062 6.14844C14.1062 7.02969 14.1062 7.8875 14.1062 8.76406C14.4391 8.55781 14.7578 8.36563 15.0766 8.16875C15.1047 8.15 15.1234 8.09844 15.1234 8.06094C15.1281 7.71406 15.1281 7.36719 15.1234 7.02031C15.1234 6.98281 15.1094 6.92656 15.0859 6.90312C14.7625 6.65 14.4437 6.40625 14.1062 6.14844ZM2.89844 6.14375C2.56094 6.40156 2.24688 6.64063 1.9375 6.88906C1.90469 6.91719 1.88125 6.97813 1.88125 7.025C1.87656 7.32031 1.88125 7.62031 1.87656 7.91562C1.87656 8 1.90937 8.04688 1.975 8.08906C2.2 8.225 2.42031 8.36562 2.64531 8.50625C2.725 8.55781 2.80469 8.60469 2.89844 8.66563C2.89844 7.8125 2.89844 6.99219 2.89844 6.14375Z" fill="#4559BD"/>
<path d="M10.2859 5.09849C9.98588 5.09849 9.70463 5.09849 9.41869 5.09849C9.36244 4.69067 9.10932 4.47036 8.73901 4.38599C8.34526 4.29692 7.98901 4.3813 7.71713 4.70005C7.47807 4.9813 7.52495 5.37974 7.82026 5.62817C8.02651 5.8063 8.27495 5.86255 8.53745 5.86724C9.13276 5.88599 9.62963 6.11567 9.98588 6.59849C10.5906 7.4188 10.2484 8.53911 9.27338 8.96567C9.26401 8.97036 9.25463 8.97036 9.24526 8.97505C9.14213 9.01724 8.99213 9.0313 8.94994 9.1063C8.89838 9.20005 8.9312 9.34067 8.9312 9.46255C8.9312 9.5563 8.9312 9.64536 8.9312 9.74849C8.63588 9.74849 8.34995 9.74849 8.04995 9.74849C8.04995 9.56567 8.04526 9.38286 8.04995 9.20474C8.05463 9.11099 8.02182 9.07349 7.92807 9.04536C7.31401 8.84849 6.88745 8.46411 6.72338 7.82661C6.70463 7.76099 6.69995 7.69067 6.69057 7.62505C6.68588 7.59224 6.69057 7.55474 6.69057 7.51255C6.97651 7.51255 7.26245 7.51255 7.5437 7.51255C7.7687 8.22505 8.54213 8.49224 9.1187 8.04692C9.50307 7.74692 9.50307 7.24536 9.11401 6.95005C8.91245 6.79536 8.67807 6.75317 8.42495 6.7438C7.82963 6.72036 7.33276 6.49067 6.97651 6.00786C6.39057 5.21099 6.70463 4.11411 7.63276 3.67349C7.70776 3.63599 7.78276 3.59849 7.86245 3.58442C8.01245 3.56099 8.05932 3.48599 8.04526 3.33599C8.0312 3.1813 8.04057 3.02661 8.04057 2.86255C8.3312 2.86255 8.61245 2.86255 8.92182 2.86255C8.92182 3.03599 8.92651 3.20942 8.91713 3.38286C8.91245 3.49067 8.94526 3.53755 9.05307 3.57505C9.69526 3.78599 10.1218 4.19849 10.2578 4.88286C10.2671 4.92036 10.2671 4.95786 10.2718 5.00005C10.2906 5.0188 10.2859 5.05161 10.2859 5.09849Z" fill="#4559BD"/>
</g>
<defs>
<clipPath id="clip0_270_2099">
<rect width="15" height="15" fill="white" transform="translate(1 0.5)"/>
</clipPath>
</defs>
</svg>
