<svg width="16" height="18" viewBox="0 0 16 18" fill="none" xmlns="http://www.w3.org/2000/svg">
<g clip-path="url(#clip0_270_2082)">
<path d="M6.214 0.065918C6.45334 0.126212 6.6988 0.163896 6.92893 0.248308C8.11179 0.680921 8.8574 1.74059 8.87274 2.99773C8.87735 3.30674 8.87274 3.61575 8.87274 3.93983C9.67665 3.93983 10.4622 3.93983 11.2676 3.93983C11.3658 5.5919 11.464 7.22889 11.5606 8.85684C11.8767 8.88096 12.1804 8.88699 12.4781 8.92919C14.3421 9.19147 15.8333 10.7561 15.9837 12.5966C16.1632 14.7898 14.6612 16.6921 12.4459 17.0147C10.9776 17.2287 9.72882 16.7539 8.72086 15.6822C8.64108 15.5962 8.56591 15.5601 8.44777 15.5601C6.5055 15.5631 4.56169 15.5676 2.61941 15.5601C1.57156 15.5571 0.786061 15.0958 0.281315 14.1914C0.0680634 13.81 -0.0224534 13.3925 0.000559348 12.9599C0.0788027 11.5686 0.166251 10.1773 0.249097 8.78448C0.321204 7.56955 0.391776 6.35462 0.463883 5.13969C0.486896 4.74778 0.511442 4.35737 0.535989 3.94586C1.33376 3.94586 2.12387 3.94586 2.93238 3.94586C2.93238 3.61123 2.92778 3.2977 2.93392 2.98417C2.94926 2.0481 3.32513 1.28085 4.06615 0.692979C4.48191 0.36739 4.95597 0.171433 5.47913 0.0960652C5.51135 0.0915431 5.5405 0.0764695 5.57118 0.065918C5.78597 0.065918 5.99922 0.065918 6.214 0.065918ZM2.94005 4.95428C2.44298 4.95428 1.97352 4.95428 1.50099 4.95428C1.49485 4.98895 1.48872 5.01006 1.48872 5.03116C1.40741 6.4119 1.32609 7.79114 1.24478 9.17188C1.17268 10.3868 1.11131 11.6017 1.02539 12.8152C0.951753 13.8447 1.61452 14.5667 2.66697 14.5667C4.37298 14.5682 6.07899 14.5667 7.78501 14.5667C7.84484 14.5667 7.90467 14.5667 7.9599 14.5667C7.96757 14.5366 7.97371 14.5245 7.97218 14.5155C7.95837 14.4687 7.94149 14.4205 7.92462 14.3738C7.68528 13.7271 7.59784 13.0609 7.71597 12.3826C7.99212 10.7968 8.90343 9.70699 10.4284 9.12063C10.5343 9.07993 10.5573 9.0332 10.5511 8.92768C10.4852 7.86198 10.4253 6.79628 10.364 5.73058C10.3486 5.47131 10.3302 5.21355 10.3118 4.94976C9.82854 4.94976 9.35908 4.94976 8.87121 4.94976C8.87121 5.36127 8.87121 5.76223 8.87121 6.16771C8.52448 6.16771 8.1977 6.16771 7.85251 6.16771C7.85251 5.75319 7.85251 5.35223 7.85251 4.95278C6.54385 4.95278 5.25207 4.95278 3.94494 4.95278C3.94494 5.3673 3.94494 5.76826 3.94494 6.17223C3.60436 6.17223 3.28064 6.17223 2.94005 6.17223C2.94005 5.76524 2.94005 5.36429 2.94005 4.95428ZM11.8429 16.0696C13.575 16.068 14.9926 14.6752 14.9941 12.9734C14.9957 11.2671 13.5673 9.86375 11.8337 9.86828C10.1001 9.8728 8.68557 11.2641 8.6825 12.9659C8.68097 14.6768 10.1016 16.0711 11.8429 16.0696ZM7.85865 3.93682C7.85865 3.59615 7.86785 3.27056 7.85711 2.94648C7.82796 2.09482 7.27105 1.37883 6.46561 1.14368C5.64942 0.905517 4.78568 1.21151 4.29474 1.89736C3.84522 2.52442 3.96949 3.23439 3.95415 3.93682C5.25821 3.93682 6.54539 3.93682 7.85865 3.93682Z" fill="#4559BD"/>
<path d="M9.64062 12.9719C9.89837 12.7473 10.1423 12.5348 10.4 12.3117C10.7053 12.6509 11.006 12.984 11.3206 13.3322C11.9588 12.684 12.5863 12.0449 13.2245 11.3967C13.4531 11.6439 13.6755 11.8836 13.9087 12.1338C13.0634 12.993 12.1828 13.8899 11.2883 14.8003C10.7345 14.1869 10.1945 13.5884 9.64062 12.9719Z" fill="#4559BD"/>
</g>
<defs>
<clipPath id="clip0_270_2082">
<rect width="16" height="17" fill="white" transform="translate(0 0.065918)"/>
</clipPath>
</defs>
</svg>
