<svg width="17" height="17" viewBox="0 0 17 17" fill="none" xmlns="http://www.w3.org/2000/svg">
<g clip-path="url(#clip0_270_2104)">
<path d="M3.24808 16.9997C3.08464 16.9376 2.90524 16.9004 2.75774 16.8136C2.25943 16.5242 2.00429 16.0736 2.00031 15.4824C1.99632 14.176 2.00031 12.8695 2.00031 11.5673C2.00031 8.541 2.00031 5.51473 2.00031 2.48847C2.00031 1.67402 2.49463 1.06216 3.26403 0.950532C3.49126 0.913324 3.72248 0.933995 3.9537 0.933995C4.34437 0.933995 4.73106 0.938129 5.12174 0.929861C5.18951 0.929861 5.27722 0.892652 5.32505 0.843042C5.85127 0.289053 6.48114 0.00792481 7.2306 0.00379057C8.07973 -0.000343676 8.92487 0.00379057 9.774 0.00379057C10.5195 0.00379057 11.1533 0.289053 11.6795 0.838907C11.7274 0.888518 11.8151 0.925726 11.8829 0.929861C12.4171 0.938129 12.9512 0.933995 13.4814 0.933995C14.3824 0.933995 15.0003 1.57067 15.0003 2.50501C15.0003 6.80875 15.0003 11.1125 15.0003 15.4162C15.0003 16.239 14.5698 16.7929 13.7924 16.9749C13.7764 16.979 13.7645 16.9914 13.7485 16.9955C10.2484 16.9997 6.74824 16.9997 3.24808 16.9997ZM4.6912 1.93862C4.67924 1.93448 4.67127 1.93035 4.65931 1.93035C4.29255 1.93035 3.9218 1.93035 3.55504 1.93035C3.13646 1.93035 2.96106 2.11225 2.96106 2.54221C2.96106 6.82529 2.96106 11.1042 2.96106 15.3873C2.96106 15.8173 3.13646 16.0033 3.55504 16.0033C6.8479 16.0033 10.1368 16.0033 13.4296 16.0033C13.8681 16.0033 14.0396 15.8255 14.0396 15.3749C14.0396 11.1042 14.0396 6.83356 14.0396 2.56289C14.0396 2.52568 14.0396 2.48434 14.0396 2.44713C14.0316 2.14533 13.8323 1.93862 13.5412 1.93448C13.2741 1.93035 13.0071 1.93448 12.74 1.93448C12.5925 1.93448 12.445 1.93448 12.3094 1.93448C12.3373 2.18254 12.3732 2.41405 12.3852 2.64144C12.4051 2.98458 12.2018 3.19542 11.8709 3.19542C9.6265 3.19542 7.37811 3.19542 5.1337 3.19542C4.79485 3.19542 4.59951 2.98044 4.61944 2.6249C4.6314 2.39752 4.66329 2.17427 4.6912 1.93862ZM11.3487 2.18667C11.3287 2.12879 11.3128 2.07505 11.2929 2.02957C10.9979 1.37636 10.5035 1.01668 9.81386 1.00428C8.94082 0.98774 8.06378 1.00014 7.19074 1.00014C7.09108 1.00014 6.98743 1.01255 6.88776 1.03322C6.31769 1.13657 5.77553 1.64508 5.65992 2.18667C7.55351 2.18667 9.44312 2.18667 11.3487 2.18667Z" fill="#4559BD"/>
<path d="M9.05215 6.92893C9.43486 6.53618 9.8056 6.15583 10.1843 5.76721C10.1484 5.75894 10.1166 5.75481 10.0847 5.74654C9.85743 5.70106 9.69398 5.50675 9.68601 5.27524C9.67804 5.03545 9.83351 4.82047 10.0687 4.77499C10.1843 4.75432 10.2999 4.75846 10.4195 4.75432C10.7185 4.75019 11.0175 4.75019 11.3165 4.75432C11.6713 4.75846 11.8626 4.95276 11.8626 5.32071C11.8626 5.68453 11.8626 6.05247 11.8626 6.41629C11.8626 6.77183 11.7112 6.98268 11.4361 7.01575C11.1451 7.04883 10.9537 6.86692 10.8859 6.48657C10.8381 6.53205 10.7943 6.57339 10.7544 6.61473C10.3238 7.06123 9.89729 7.50773 9.46675 7.95422C9.20763 8.22295 8.94452 8.22295 8.68539 7.95422C8.22296 7.47465 7.75654 6.99508 7.28214 6.50311C7.23829 6.54445 7.19444 6.58579 7.15458 6.62713C6.73998 7.05709 6.32937 7.49119 5.91079 7.91702C5.62774 8.20641 5.18923 8.09479 5.08957 7.70617C5.04571 7.53253 5.08558 7.3713 5.20517 7.24727C5.78322 6.64367 6.36126 6.03594 6.94329 5.44061C7.15059 5.22976 7.42566 5.24216 7.64093 5.46541C8.05553 5.89124 8.46215 6.31706 8.87276 6.74289C8.93654 6.8049 8.99634 6.86692 9.05215 6.92893Z" fill="#4559BD"/>
<path d="M10.1325 10.3148C10.7663 10.3148 11.4002 10.3107 12.034 10.3148C12.4207 10.319 12.6479 10.7034 12.4725 11.0425C12.3649 11.245 12.1895 11.3112 11.9782 11.3112C10.9018 11.3112 9.82549 11.3112 8.74914 11.3112C8.57772 11.3112 8.4063 11.3112 8.23886 11.3112C7.91994 11.307 7.70068 11.0962 7.70068 10.8068C7.70467 10.5174 7.91595 10.3148 8.23089 10.3148C8.86474 10.3148 9.4986 10.3148 10.1325 10.3148Z" fill="#4559BD"/>
<path d="M10.1245 13.1758C10.7464 13.1758 11.3723 13.1758 11.9942 13.1758C12.3171 13.1758 12.5324 13.3784 12.5324 13.676C12.5284 13.9654 12.3131 14.1721 12.0022 14.1721C10.7464 14.1721 9.48669 14.1721 8.23094 14.1721C7.92398 14.1721 7.70472 13.9654 7.70074 13.676C7.69675 13.3825 7.91202 13.1799 8.22297 13.1758C8.85682 13.1758 9.49068 13.1758 10.1245 13.1758Z" fill="#4559BD"/>
<path d="M5.40842 10.6704C5.65558 10.4141 5.86687 10.1908 6.08214 9.96759C6.31734 9.72367 6.5964 9.703 6.8037 9.91385C7.01498 10.1247 6.99903 10.4265 6.75984 10.6745C6.44491 11.0053 6.12998 11.3319 5.81105 11.6585C5.55592 11.9231 5.28882 11.919 5.0297 11.6544C4.8822 11.5014 4.7347 11.3526 4.59118 11.1955C4.38389 10.9722 4.3799 10.6704 4.57524 10.4678C4.77058 10.2694 5.06159 10.2777 5.27288 10.4926C5.32071 10.5381 5.35659 10.596 5.40842 10.6704Z" fill="#4559BD"/>
<path d="M5.40834 13.5313C5.6555 13.2708 5.87077 13.0476 6.08206 12.8243C6.31327 12.5845 6.6003 12.5638 6.80361 12.7664C7.01091 12.9773 6.99497 13.2832 6.75976 13.5271C6.44084 13.862 6.12192 14.1927 5.79901 14.5235C5.55584 14.7715 5.28476 14.7715 5.04158 14.5193C4.89408 14.3705 4.74259 14.2134 4.59509 14.0563C4.38779 13.8372 4.3838 13.5313 4.57914 13.3328C4.77448 13.1302 5.06151 13.1385 5.27678 13.3576C5.32063 13.399 5.35253 13.4568 5.40834 13.5313Z" fill="#4559BD"/>
</g>
<defs>
<clipPath id="clip0_270_2104">
<rect width="13" height="17" fill="white" transform="translate(2)"/>
</clipPath>
</defs>
</svg>
