<svg width="16" height="17" viewBox="0 0 16 17" fill="none" xmlns="http://www.w3.org/2000/svg">
<g clip-path="url(#clip0_270_2077)">
<path d="M8.0607 0.0650399C8.27484 0.0650399 8.49135 0.0579106 8.70549 0.0674163C9.07903 0.081675 9.34551 0.373977 9.33599 0.749455C9.32648 1.08691 9.03621 1.36971 8.67931 1.36258C7.77519 1.34357 6.87345 1.37684 6.01216 1.67627C3.42113 2.57931 1.84606 4.3759 1.42968 7.0898C0.88959 10.6259 3.28551 13.8983 6.82349 14.5494C10.4233 15.2125 13.8899 12.8075 14.5466 9.1977C14.6917 8.39447 14.6679 7.60311 14.5276 6.80463C14.4609 6.41727 14.7131 6.06555 15.0795 6.01565C15.4912 5.96099 15.7957 6.20814 15.8671 6.62402C16.1478 8.23762 15.986 9.8037 15.2984 11.2866C14.1112 13.846 12.1197 15.424 9.33361 15.9064C5.11755 16.6383 1.118 13.9268 0.192465 9.7633C-0.76876 5.4453 2.00309 1.15583 6.35001 0.23852C6.56652 0.193368 6.78304 0.145839 7.00431 0.124451C7.35644 0.0888043 7.70857 0.0745457 8.0607 0.0507812C8.0607 0.0555341 8.0607 0.060287 8.0607 0.0650399Z" fill="#4559BD"/>
<path d="M7.23715 4.30339C7.23715 4.01248 7.23443 3.73516 7.23715 3.45784C7.2426 3.01467 7.56924 2.69385 8.00749 2.69929C8.42669 2.70201 8.75334 3.02826 8.75878 3.45512C8.7615 3.73244 8.75878 4.00704 8.75878 4.30067C9.46651 4.39583 10.0681 4.68403 10.5363 5.21419C10.8629 5.58395 11.0371 6.01625 11.0426 6.51107C11.0453 6.88899 10.7459 7.2234 10.3811 7.25875C9.98915 7.29953 9.5754 7.05755 9.54545 6.68236C9.49646 6.08694 9.1072 5.89662 8.62268 5.79874C8.15176 5.70358 7.6754 5.71718 7.20721 5.83409C6.78529 5.94012 6.48314 6.212 6.47498 6.48932C6.46681 6.76936 6.7744 7.07387 7.20993 7.16087C7.52569 7.2234 7.85234 7.24515 8.17626 7.25875C8.79417 7.28322 9.3903 7.39197 9.92382 7.72366C10.6043 8.1478 11.0263 8.74322 11.0371 9.56974C11.048 10.4235 10.4764 11.1902 9.5754 11.5436C9.31408 11.6469 9.03643 11.7149 8.75334 11.8019C8.75334 12.0602 8.75606 12.3212 8.75334 12.5822C8.75334 13.0254 8.42941 13.3516 7.9966 13.3516C7.56652 13.3516 7.2426 13.0226 7.23987 12.5795C7.23715 12.3185 7.23987 12.0575 7.23987 11.859C6.82068 11.6823 6.41237 11.5626 6.06122 11.3533C5.3916 10.9536 4.98057 10.3582 4.95879 9.55343C4.9479 9.14833 5.26366 8.81391 5.65292 8.79216C6.083 8.76769 6.44231 9.05589 6.47498 9.47187C6.49948 9.78725 6.67369 9.9966 6.94317 10.1054C7.64818 10.3908 8.36136 10.3827 9.07182 10.1081C9.07998 10.1054 9.08543 10.0999 9.09359 10.0972C9.61351 9.78725 9.67339 9.42836 9.13987 9.06676C8.77783 8.82207 8.35047 8.82479 7.93128 8.78129C7.46308 8.73235 6.97856 8.68885 6.54031 8.53387C6.18099 8.40609 5.82441 8.17227 5.55764 7.89767C4.65664 6.97055 4.79002 5.66824 5.82441 4.87706C6.22999 4.55896 6.69546 4.37408 7.23715 4.30339Z" fill="#4559BD"/>
<path d="M13.4894 1.69382C13.8593 1.32857 14.1979 0.992374 14.5366 0.65618C14.8067 0.386395 15.0748 0.116609 15.3449 -0.153176C15.6254 -0.433338 15.9806 -0.456166 16.2279 -0.213359C16.4772 0.0356739 16.4544 0.394696 16.1676 0.683159C15.6025 1.24763 15.0374 1.81003 14.4701 2.37243C14.4286 2.41394 14.3912 2.45752 14.3247 2.52808C14.6426 2.52808 14.9231 2.52808 15.2036 2.52808C15.5568 2.53015 15.8124 2.77088 15.8124 3.105C15.8144 3.44119 15.563 3.68815 15.2098 3.68815C14.4473 3.69023 13.6847 3.69023 12.9222 3.68815C12.5732 3.68815 12.3259 3.44327 12.3238 3.09877C12.3217 2.3247 12.3217 1.55062 12.3238 0.778621C12.3259 0.452803 12.5773 0.207921 12.8994 0.205846C13.2318 0.203771 13.4811 0.450728 13.4853 0.786922C13.4915 1.07746 13.4894 1.36592 13.4894 1.69382Z" fill="#4559BD"/>
</g>
<defs>
<clipPath id="clip0_270_2077">
<rect width="16" height="16" fill="white" transform="translate(0 0.0253906)"/>
</clipPath>
</defs>
</svg>
