<svg width="17" height="16" viewBox="0 0 17 16" fill="none" xmlns="http://www.w3.org/2000/svg">
<g clip-path="url(#clip0_270_2113)">
<path d="M8.5 9.875C9.53553 9.875 10.375 9.03553 10.375 8C10.375 6.96447 9.53553 6.125 8.5 6.125C7.46447 6.125 6.625 6.96447 6.625 8C6.625 9.03553 7.46447 9.875 8.5 9.875Z" stroke="#4559BD" stroke-linecap="round" stroke-linejoin="round"/>
<path d="M13.125 9.875C13.0418 10.0635 13.017 10.2726 13.0537 10.4754C13.0905 10.6781 13.1872 10.8652 13.3312 11.0125L13.3688 11.05C13.485 11.1661 13.5772 11.304 13.6401 11.4557C13.703 11.6074 13.7354 11.7701 13.7354 11.9344C13.7354 12.0986 13.703 12.2613 13.6401 12.4131C13.5772 12.5648 13.485 12.7027 13.3688 12.8187C13.2527 12.935 13.1148 13.0272 12.9631 13.0901C12.8113 13.153 12.6486 13.1854 12.4844 13.1854C12.3201 13.1854 12.1574 13.153 12.0057 13.0901C11.854 13.0272 11.7161 12.935 11.6 12.8187L11.5625 12.7812C11.4152 12.6372 11.2281 12.5405 11.0254 12.5037C10.8226 12.467 10.6135 12.4918 10.425 12.575C10.2401 12.6542 10.0825 12.7858 9.97144 12.9535C9.86039 13.1211 9.8008 13.3176 9.8 13.5187V13.625C9.8 13.9565 9.6683 14.2745 9.43388 14.5089C9.19946 14.7433 8.88152 14.875 8.55 14.875C8.21848 14.875 7.90054 14.7433 7.66612 14.5089C7.4317 14.2745 7.3 13.9565 7.3 13.625V13.5687C7.29516 13.3619 7.2282 13.1612 7.10782 12.9929C6.98744 12.8246 6.81921 12.6964 6.625 12.625C6.43649 12.5418 6.22738 12.517 6.02463 12.5537C5.82189 12.5905 5.6348 12.6872 5.4875 12.8312L5.45 12.8688C5.33391 12.985 5.19605 13.0772 5.0443 13.1401C4.89255 13.203 4.72989 13.2354 4.56562 13.2354C4.40136 13.2354 4.2387 13.203 4.08695 13.1401C3.9352 13.0772 3.79734 12.985 3.68125 12.8688C3.56503 12.7527 3.47283 12.6148 3.40993 12.4631C3.34702 12.3113 3.31464 12.1486 3.31464 11.9844C3.31464 11.8201 3.34702 11.6574 3.40993 11.5057C3.47283 11.354 3.56503 11.2161 3.68125 11.1L3.71875 11.0625C3.86284 10.9152 3.95949 10.7281 3.99625 10.5254C4.03301 10.3226 4.0082 10.1135 3.925 9.925C3.84577 9.74014 3.71422 9.58249 3.54654 9.47144C3.37886 9.36039 3.18237 9.3008 2.98125 9.3H2.875C2.54348 9.3 2.22554 9.1683 1.99112 8.93388C1.7567 8.69946 1.625 8.38152 1.625 8.05C1.625 7.71848 1.7567 7.40054 1.99112 7.16612C2.22554 6.9317 2.54348 6.8 2.875 6.8H2.93125C3.13812 6.79516 3.33875 6.7282 3.50706 6.60782C3.67537 6.48744 3.80357 6.31921 3.875 6.125C3.9582 5.93649 3.98301 5.72738 3.94625 5.52463C3.90949 5.32189 3.81284 5.1348 3.66875 4.9875L3.63125 4.95C3.51503 4.83391 3.42283 4.69605 3.35993 4.5443C3.29702 4.39255 3.26464 4.22989 3.26464 4.06562C3.26464 3.90136 3.29702 3.7387 3.35993 3.58695C3.42283 3.4352 3.51503 3.29734 3.63125 3.18125C3.74734 3.06503 3.8852 2.97283 4.03695 2.90993C4.1887 2.84702 4.35136 2.81464 4.51562 2.81464C4.67989 2.81464 4.84255 2.84702 4.9943 2.90993C5.14605 2.97283 5.28391 3.06503 5.4 3.18125L5.4375 3.21875C5.5848 3.36284 5.77188 3.45949 5.97463 3.49625C6.17738 3.53301 6.38649 3.5082 6.575 3.425H6.625C6.80986 3.34577 6.96751 3.21422 7.07856 3.04654C7.18961 2.87886 7.2492 2.68237 7.25 2.48125V2.375C7.25 2.04348 7.3817 1.72554 7.61612 1.49112C7.85054 1.2567 8.16848 1.125 8.5 1.125C8.83152 1.125 9.14946 1.2567 9.38388 1.49112C9.6183 1.72554 9.75 2.04348 9.75 2.375V2.43125C9.7508 2.63237 9.81039 2.82886 9.92144 2.99654C10.0325 3.16422 10.1901 3.29577 10.375 3.375C10.5635 3.4582 10.7726 3.48301 10.9754 3.44625C11.1781 3.40949 11.3652 3.31284 11.5125 3.16875L11.55 3.13125C11.6661 3.01503 11.804 2.92283 11.9557 2.85993C12.1074 2.79702 12.2701 2.76464 12.4344 2.76464C12.5986 2.76464 12.7613 2.79702 12.9131 2.85993C13.0648 2.92283 13.2027 3.01503 13.3187 3.13125C13.435 3.24734 13.5272 3.3852 13.5901 3.53695C13.653 3.6887 13.6854 3.85136 13.6854 4.01562C13.6854 4.17989 13.653 4.34255 13.5901 4.4943C13.5272 4.64605 13.435 4.78391 13.3187 4.9L13.2812 4.9375C13.1372 5.0848 13.0405 5.27188 13.0037 5.47463C12.967 5.67738 12.9918 5.88649 13.075 6.075V6.125C13.1542 6.30986 13.2858 6.46751 13.4535 6.57856C13.6211 6.68961 13.8176 6.7492 14.0187 6.75H14.125C14.4565 6.75 14.7745 6.8817 15.0089 7.11612C15.2433 7.35054 15.375 7.66848 15.375 8C15.375 8.33152 15.2433 8.64946 15.0089 8.88388C14.7745 9.1183 14.4565 9.25 14.125 9.25H14.0687C13.8676 9.2508 13.6711 9.31039 13.5035 9.42144C13.3358 9.53249 13.2042 9.69014 13.125 9.875Z" stroke="#4559BD" stroke-linecap="round" stroke-linejoin="round"/>
</g>
<defs>
<clipPath id="clip0_270_2113">
<rect width="15" height="15" fill="white" transform="translate(1 0.5)"/>
</clipPath>
</defs>
</svg>
