<svg width="16" height="17" viewBox="0 0 16 17" fill="none" xmlns="http://www.w3.org/2000/svg">
<g clip-path="url(#clip0_214_954)">
<path d="M15.6534 11.5949C15.6534 11.8337 15.6534 12.0725 15.6534 12.3113C15.6249 12.4778 15.6008 12.6443 15.5701 12.8108C14.9785 15.9721 11.3917 17.5845 8.64188 15.9239C8.50823 15.8428 8.37895 15.8056 8.22339 15.8078C6.08051 15.8121 3.93762 15.81 1.79474 15.81C0.909544 15.81 0.346436 15.2491 0.346436 14.364C0.346436 11.8184 0.346436 9.2727 0.346436 6.72702C0.346436 5.37093 0.346436 4.01704 0.346436 2.66095C0.346436 2.17241 0.541442 1.77588 0.951175 1.51079C1.11989 1.40344 1.32366 1.35525 1.51209 1.28076C5.57875 1.28076 9.6454 1.28076 13.7099 1.28076C13.7186 1.28514 13.7274 1.29391 13.7362 1.2961C14.5162 1.49327 14.8755 1.95771 14.8755 2.76391C14.8755 4.92401 14.8755 7.08411 14.8777 9.24422C14.8777 9.32746 14.904 9.42167 14.9478 9.49177C15.1845 9.88173 15.3773 10.2892 15.4868 10.7317C15.5591 11.0165 15.6008 11.3079 15.6534 11.5949ZM14.7572 11.9498C14.755 9.89049 13.0766 8.21455 11.0192 8.21455C8.95959 8.21455 7.28341 9.89268 7.28341 11.952C7.28341 14.0113 8.96397 15.6873 11.0214 15.6873C13.081 15.6873 14.7594 14.0091 14.7572 11.9498ZM1.24259 8.0853C3.22552 8.0853 5.19092 8.0853 7.15414 8.0853C7.15414 6.1136 7.15414 4.15286 7.15414 2.17679C7.09279 2.17679 7.0402 2.17679 6.98761 2.17679C5.25447 2.17679 3.51913 2.17679 1.78598 2.17679C1.40692 2.17679 1.24259 2.34329 1.24259 2.72448C1.24259 4.45738 1.24259 6.19247 1.24259 7.92537C1.24259 7.97576 1.24259 8.02615 1.24259 8.0853ZM13.9794 8.35695C13.9794 8.30876 13.9794 8.26932 13.9794 8.22989C13.9794 6.38745 13.9794 4.54282 13.9794 2.70038C13.9794 2.35205 13.8063 2.17679 13.4557 2.17679C11.7116 2.17679 9.96749 2.17679 8.22339 2.17679C8.1708 2.17679 8.11821 2.17679 8.07001 2.17679C8.07001 4.25145 8.07001 6.3042 8.07001 8.34819C10.042 6.96581 12.0008 6.96143 13.9794 8.35695ZM7.15414 9.00323C5.18216 9.00323 3.21676 9.00323 1.24478 9.00323C1.24478 9.04266 1.24478 9.07334 1.24478 9.10182C1.24478 10.8741 1.24478 12.6487 1.24478 14.421C1.24478 14.7277 1.43102 14.9096 1.74216 14.9096C3.6002 14.9096 5.45824 14.9096 7.31628 14.9096C7.35353 14.9096 7.38858 14.903 7.44336 14.9008C7.40611 14.8504 7.37982 14.8153 7.35353 14.7803C6.19882 13.2884 6.06298 11.2356 7.02486 9.61884C7.14318 9.42167 7.18481 9.23107 7.15414 9.00323Z" fill="#383751"/>
<path d="M11.0214 11.6541C10.6884 11.6541 10.3553 11.6541 10.0223 11.6541C9.73089 11.6541 9.52931 11.4701 9.52712 11.2093C9.52493 10.9443 9.7287 10.7581 10.0289 10.7559C10.6906 10.7559 11.3523 10.7559 12.014 10.7559C12.3142 10.7559 12.5179 10.9399 12.5179 11.2072C12.5158 11.4744 12.312 11.6519 12.0096 11.6519C11.6766 11.6541 11.3501 11.6541 11.0214 11.6541Z" fill="#383751"/>
<path d="M11.0192 12.2522C11.3523 12.2522 11.6853 12.2522 12.0184 12.2522C12.3098 12.2522 12.5114 12.434 12.5136 12.6947C12.5158 12.962 12.312 13.146 12.0118 13.1482C11.3501 13.1482 10.6884 13.1482 10.0267 13.1482C9.7265 13.1482 9.52273 12.9642 9.52492 12.6969C9.52711 12.4318 9.73088 12.2522 10.0333 12.2522C10.3619 12.2522 10.6906 12.2522 11.0192 12.2522Z" fill="#383751"/>
<path d="M3.75572 4.68953C3.75572 4.48798 3.75352 4.30395 3.75572 4.12212C3.75791 3.84389 3.94634 3.64453 4.2027 3.64453C4.45905 3.64453 4.64749 3.84389 4.65187 4.11993C4.65406 4.29957 4.65406 4.47922 4.65625 4.65667C4.65625 4.66105 4.66063 4.66543 4.67159 4.68953C4.83811 4.68953 5.01559 4.68953 5.19307 4.68953C5.49544 4.69172 5.69921 4.87355 5.69702 5.14083C5.69483 5.4081 5.49105 5.58555 5.18649 5.58555C5.0134 5.58555 4.8403 5.58555 4.64968 5.58555C4.64968 5.77615 4.64968 5.9536 4.64968 6.13106C4.64749 6.43119 4.46124 6.63493 4.19393 6.63055C3.93319 6.62617 3.75352 6.42462 3.75133 6.13106C3.75133 5.95579 3.75133 5.78272 3.75133 5.58336C3.54975 5.58336 3.35475 5.58775 3.15755 5.58336C2.80917 5.5746 2.59882 5.22627 2.76096 4.92613C2.84641 4.7684 2.98445 4.68953 3.16412 4.68734C3.35475 4.68734 3.54537 4.68953 3.75572 4.68953Z" fill="#383751"/>
<path d="M11.0192 5.58566C10.7299 5.58566 10.4429 5.58785 10.1537 5.58566C9.87543 5.58347 9.67604 5.39506 9.67385 5.14093C9.67165 4.88461 9.87104 4.69182 10.1471 4.68963C10.7299 4.68744 11.3106 4.68744 11.8934 4.68963C12.1673 4.68963 12.3667 4.88461 12.3645 5.14093C12.3623 5.39725 12.1629 5.58347 11.8847 5.58566C11.5954 5.58785 11.3084 5.58566 11.0192 5.58566Z" fill="#383751"/>
<path d="M4.20496 12.5588C4.05377 12.7188 3.93326 12.8568 3.80399 12.986C3.59584 13.192 3.32414 13.2029 3.14009 13.0167C2.95604 12.8305 2.9648 12.5588 3.17296 12.3529C3.30223 12.2236 3.44027 12.1031 3.60022 11.9542C3.44027 11.8052 3.30223 11.6825 3.17296 11.5533C2.967 11.3473 2.95604 11.0735 3.14228 10.8895C3.32633 10.7054 3.59803 10.7164 3.80837 10.9201C3.93765 11.045 4.06473 11.1699 4.19181 11.2948C4.194 11.2969 4.20058 11.2969 4.24878 11.3035C4.35614 11.1874 4.47665 11.0516 4.60593 10.9201C4.81189 10.7142 5.08577 10.7032 5.26983 10.8895C5.45388 11.0735 5.44511 11.3473 5.23915 11.5533C5.10988 11.6825 4.97184 11.803 4.8097 11.9564C4.9806 12.1141 5.13398 12.2412 5.26983 12.3858C5.51742 12.6508 5.39691 13.0561 5.04853 13.1372C4.87762 13.1766 4.73301 13.1197 4.61469 12.997C4.48323 12.8612 4.35614 12.7209 4.20496 12.5588Z" fill="#383751"/>
</g>
<defs>
<clipPath id="clip0_214_954">
<rect width="16" height="16" fill="white" transform="translate(0 0.934082)"/>
</clipPath>
</defs>
</svg>
