<svg id="Layer_1" data-name="Layer 1" xmlns="http://www.w3.org/2000/svg" viewBox="0 0 81.27 81.29"><path d="M31.49,73.08a4.05,4.05,0,0,1,0-5.22c-1.39-2.33-1.28-3.63.49-5.74a13,13,0,0,0-4.38-5.68,31.9,31.9,0,0,1-7.78-7.77A28.3,28.3,0,0,1,15,35.47a2.84,2.84,0,0,0-.06-.31,29.71,29.71,0,0,1-3-.25,8.91,8.91,0,0,1-7.23-7.75c-.47-3.65-1-7.29-1.57-10.92a8.71,8.71,0,0,1,8.35-10c6.47,0,13,0,19.42,0A3.82,3.82,0,0,0,32.27,6,28.87,28.87,0,0,1,71.81,26.26c.43,2,.58,4,.88,6.2h2.66a8.5,8.5,0,0,1,8.83,7.44,16,16,0,0,1-.24,4.3c-.44,3.34-.89,6.69-1.47,10A8.78,8.78,0,0,1,74,61.28c-1.25,0-2.51.06-3.76,0a2.22,2.22,0,0,0-1.91.81c-1.2,1.27-2.47,2.47-3.69,3.72-.51.51-1,.94-1.79.64s-.86-1-.84-1.69c0-1.11,0-2.23,0-3.46-.63,0-1.22,0-1.81,0-1.3,0-2.61-.13-3.91-.15a.91.91,0,0,0-.66.39,1,1,0,0,0-.06.85c1.55,2.16,1.63,3.27.28,5.48a4.08,4.08,0,0,1,0,5.23,4,4,0,0,1,.88,3.42,4,4,0,0,1-2.21,2.79,2.32,2.32,0,0,0-.93.88,8.12,8.12,0,0,1-7.48,4.7q-2.41,0-4.83,0a8.12,8.12,0,0,1-7.52-4.76,1.53,1.53,0,0,0-.59-.69C30.44,78.11,29.77,75.66,31.49,73.08Zm-6.18-38c0,1.25,0,2.42,0,3.59a1.4,1.4,0,0,1-.79,1.55,1.48,1.48,0,0,1-1.74-.54q-2.07-2.1-4.17-4.16a5.33,5.33,0,0,0-1-.61c.09.77.12,1.28.21,1.78A25.71,25.71,0,0,0,28.3,53.61a18.18,18.18,0,0,1,6,7.19,1,1,0,0,0,.7.47q8.64,0,17.27,0a.87.87,0,0,0,.68-.39,19.86,19.86,0,0,1,6.36-7.53C68,46.52,71.39,37.58,69.18,26.79,66.35,13,52.26,3.88,38.48,6.78c-.9.19-1.79.46-2.8.73.49.4.85.66,1.17,1a8.53,8.53,0,0,1,2.8,7.74c-.49,3.67-1.09,7.33-1.56,11a9,9,0,0,1-8.81,7.88Zm-2.82.62.2-.11V34.05c0-1.15.43-1.58,1.57-1.59h4.83a6.13,6.13,0,0,0,6.24-5.17c.64-3.79,1.11-7.6,1.65-11.4a5.94,5.94,0,0,0-5.78-7q-9.82-.12-19.65,0a6,6,0,0,0-5.79,7c.53,3.64,1,7.28,1.53,10.92a6.11,6.11,0,0,0,5.4,5.52,38.48,38.48,0,0,0,5.48.11,2.36,2.36,0,0,1,1.95.79C20.87,34.09,21.7,34.88,22.49,35.7Zm35,22.69.18.28h4.58c2.17,0,2.34.16,2.34,2.3v1.11c1-1,1.83-2,2.75-2.76a2.55,2.55,0,0,1,1.49-.62c1.63-.08,3.27,0,4.91,0a6.11,6.11,0,0,0,6.1-5.13c.64-3.81,1.12-7.65,1.68-11.47a5.82,5.82,0,0,0-4.31-6.68,29.49,29.49,0,0,0-4.72-.4l-1.42,6.7h6.58v2.57h-.85c-2.08,0-4.15,0-6.23,0-.25,0-.64.1-.74.28-1,1.61-1.85,3.25-2.81,5H77.69v2.59H65.37a1.55,1.55,0,0,0-.88.26c-1.72,1.42-3.42,2.87-5.12,4.33C58.74,57.25,58.14,57.83,57.53,58.39ZM43.74,63.91H35c-1.15,0-1.81.49-1.8,1.32s.67,1.3,1.84,1.3h3.6c4.58,0,9.17,0,13.75,0A2.29,2.29,0,0,0,53.81,66,1.5,1.5,0,0,0,54,64.7c-.17-.62-.76-.79-1.38-.79Zm-.08,7.86h8.76c1.07,0,1.73-.52,1.71-1.33s-.65-1.28-1.67-1.29-1.91,0-2.87,0H35.35c-.2,0-.39,0-.58,0-1,0-1.57.53-1.59,1.29s.61,1.32,1.56,1.33C37.71,71.78,40.68,71.77,43.66,71.77ZM43.59,77h6.06c1,0,2.08,0,3.11,0a1.33,1.33,0,0,0,1.37-1.34,1.36,1.36,0,0,0-1.36-1.26c-.22,0-.44,0-.66,0H36.31c-.6,0-1.2,0-1.8,0a1.29,1.29,0,0,0-1.24,1.69,1.42,1.42,0,0,0,1.56.92Zm-7.05,2.67a4.74,4.74,0,0,0,3.53,2.38,57.41,57.41,0,0,0,6.69.1,4.93,4.93,0,0,0,3.69-2,2.22,2.22,0,0,0,.24-.46Z" transform="translate(-2.98 -3.6)"/><path d="M31.9,40.32a3.93,3.93,0,1,1-4,3.89A3.89,3.89,0,0,1,31.9,40.32Zm1.26,4a1.3,1.3,0,1,0-1.35,1.27A1.38,1.38,0,0,0,33.16,44.28Z" transform="translate(-2.98 -3.6)"/><path d="M47.59,44.32a3.93,3.93,0,1,1-3.86-4A3.89,3.89,0,0,1,47.59,44.32ZM43.69,43a1.36,1.36,0,0,0-1.33,1.29A1.3,1.3,0,1,0,43.69,43Z" transform="translate(-2.98 -3.6)"/><path d="M59.38,44.26a3.93,3.93,0,1,1-3.92-3.94A3.89,3.89,0,0,1,59.38,44.26Zm-3.94,1.29a1.3,1.3,0,1,0-1.29-1.33A1.37,1.37,0,0,0,55.44,45.55Z" transform="translate(-2.98 -3.6)"/><path d="M9.62,25.85V23.33H33.13v2.52Z" transform="translate(-2.98 -3.6)"/><path d="M33.13,15.48V18h-17V15.48Z" transform="translate(-2.98 -3.6)"/></svg>