<svg id="Layer_1" data-name="Layer 1" xmlns="http://www.w3.org/2000/svg" viewBox="0 0 79.74 79.75"><defs><style>.cls-1{fill:#465aa5;}</style></defs><path class="cls-1" d="M35.32,5.68A25.75,25.75,0,0,1,45.59,4.45a26.79,26.79,0,0,1,18.1,8.69A26.46,26.46,0,0,1,71,33.85,26.82,26.82,0,0,1,59.7,54.14a19.12,19.12,0,0,0-6.26,7.47,1,1,0,0,1-.74.48q-9.11,0-18.2,0a1,1,0,0,1-.73-.51,18.69,18.69,0,0,0-6.19-7.41A27,27,0,0,1,16.75,37.73c-.22-1-.34-2-.51-3l.22-.18a4.24,4.24,0,0,1,.93.53c1.35,1.31,2.67,2.67,4,4,.57.57,1.08,1.35,2.09.93s.89-1.29.88-2.12V34.63h3.49c5.53,0,9.26-3.37,9.94-8.84.46-3.72,1.06-7.41,1.55-11.11a8.8,8.8,0,0,0-3.45-8.39l-.59-.48S35.32,5.76,35.32,5.68ZM27.13,44.24a4.12,4.12,0,1,0,4.11-4.11A4.2,4.2,0,0,0,27.13,44.24Zm12.37,0a4.12,4.12,0,1,0,4-4.16A4.2,4.2,0,0,0,39.5,44.29Zm12.36,0A4.12,4.12,0,1,0,56,40.13,4.2,4.2,0,0,0,51.86,44.25Z" transform="translate(-3.75 -4.37)"/><path class="cls-1" d="M21.41,35.31c-.89-.92-1.75-1.89-2.71-2.74a2.82,2.82,0,0,0-1.58-.66c-1.71-.08-3.43,0-5.15,0a6.59,6.59,0,0,1-6.46-5.63C5,22.32,4.37,18.4,3.82,14.47A6.34,6.34,0,0,1,10.2,7.15q10.08,0,20.17,0a6.37,6.37,0,0,1,6.32,7.45Q35.81,20.32,35,26a6.58,6.58,0,0,1-6.62,5.84h-5c-1.31,0-1.8.51-1.81,1.83v1.52ZM7.94,25H32.56V22.31H7.94Zm6.87-10.9v2.67H32.57V14.05Z" transform="translate(-3.75 -4.37)"/><path class="cls-1" d="M79.3,52.5V49.77H68.1c1-1.82,2-3.56,3-5.27.1-.17.48-.24.73-.24,2.2,0,4.4,0,6.6,0h.89V41.53H72.35l1.45-6.76a26.06,26.06,0,0,1,4.67,0A6.24,6.24,0,0,1,83.41,42q-.87,5.8-1.67,11.62a6.61,6.61,0,0,1-6.48,5.71c-1.72,0-3.44,0-5.15,0a2.82,2.82,0,0,0-1.58.66c-1,.85-1.82,1.82-2.93,2.69V61.63c0-1.91-.35-2.27-2.23-2.27H58.24l-.13-.2c.75-.71,1.48-1.44,2.26-2.12q2.46-2.13,5-4.2a1.63,1.63,0,0,1,1-.33c4,0,8,0,11.93,0Z" transform="translate(-3.75 -4.37)"/><path class="cls-1" d="M43.58,67.61H34.32c-1.1,0-1.69-.48-1.69-1.37s.58-1.38,1.67-1.38H52.92c1.1,0,1.68.48,1.68,1.37s-.58,1.38-1.67,1.38Z" transform="translate(-3.75 -4.37)"/><path class="cls-1" d="M43.7,70.36h9.44a1.32,1.32,0,0,1,1.42,1,1.26,1.26,0,0,1-.54,1.5,1.94,1.94,0,0,1-1,.24q-9.44,0-18.87,0c-1,0-1.53-.5-1.55-1.33s.55-1.41,1.55-1.41C37.36,70.35,40.53,70.36,43.7,70.36Z" transform="translate(-3.75 -4.37)"/><path class="cls-1" d="M43.52,78.6H34.09c-.69,0-1.26-.28-1.36-.92a2.3,2.3,0,0,1,.38-1.46,1.32,1.32,0,0,1,1-.35q9.52,0,19,0a1.37,1.37,0,1,1,0,2.74C49.93,78.61,46.73,78.6,43.52,78.6Z" transform="translate(-3.75 -4.37)"/><path class="cls-1" d="M36.05,81.38h15a2.69,2.69,0,0,1-.25.51,5.65,5.65,0,0,1-4.37,2.2c-1.89,0-3.78,0-5.66,0A5.82,5.82,0,0,1,36.05,81.38Z" transform="translate(-3.75 -4.37)"/><path class="cls-1" d="M32.62,44.21a1.37,1.37,0,1,1-2.74.07,1.37,1.37,0,0,1,2.74-.07Z" transform="translate(-3.75 -4.37)"/><path class="cls-1" d="M43.61,42.88a1.37,1.37,0,1,1-1.37,1.33A1.34,1.34,0,0,1,43.61,42.88Z" transform="translate(-3.75 -4.37)"/><path class="cls-1" d="M56,45.62a1.37,1.37,0,1,1,1.35-1.34A1.34,1.34,0,0,1,56,45.62Z" transform="translate(-3.75 -4.37)"/></svg>