<svg width="21" height="19" viewBox="0 0 21 19" fill="none" xmlns="http://www.w3.org/2000/svg">
<path d="M18.75 4.5H14.95C14.8395 4.5 14.75 4.41046 14.75 4.3V2.58284C14.75 2.5298 14.7289 2.47893 14.6914 2.44142L12.8086 0.558579C12.7711 0.521071 12.7202 0.5 12.6672 0.5H8.83284C8.7798 0.5 8.72893 0.521071 8.69142 0.558579L6.80858 2.44142C6.77107 2.47893 6.75 2.5298 6.75 2.58284V4.3C6.75 4.41046 6.66046 4.5 6.55 4.5H2.75C1.65 4.5 0.75 5.4 0.75 6.5V11.5C0.75 12.2085 1.10701 12.81 1.65239 13.1694C1.71178 13.2086 1.75 13.2737 1.75 13.3449V16.5C1.75 17.61 2.64 18.5 3.75 18.5H17.75C18.86 18.5 19.75 17.61 19.75 16.5V13.3339C19.75 13.2633 19.7877 13.1985 19.8463 13.1592C20.3842 12.7988 20.75 12.1896 20.75 11.5V6.5C20.75 5.4 19.85 4.5 18.75 4.5ZM8.75 2.7C8.75 2.58954 8.83954 2.5 8.95 2.5H12.55C12.6605 2.5 12.75 2.58954 12.75 2.7V4.3C12.75 4.41046 12.6605 4.5 12.55 4.5H8.95C8.83954 4.5 8.75 4.41046 8.75 4.3V2.7ZM2.75 6.7C2.75 6.58954 2.83954 6.5 2.95 6.5H18.55C18.6605 6.5 18.75 6.58954 18.75 6.7V11.3C18.75 11.4105 18.6605 11.5 18.55 11.5H13.95C13.8395 11.5 13.75 11.4105 13.75 11.3V8.7C13.75 8.58954 13.6605 8.5 13.55 8.5H7.95C7.83954 8.5 7.75 8.58954 7.75 8.7V11.3C7.75 11.4105 7.66046 11.5 7.55 11.5H2.95C2.83954 11.5 2.75 11.4105 2.75 11.3V6.7ZM11.75 12.3C11.75 12.4105 11.6605 12.5 11.55 12.5H9.95C9.83954 12.5 9.75 12.4105 9.75 12.3V10.7C9.75 10.5895 9.83954 10.5 9.95 10.5H11.55C11.6605 10.5 11.75 10.5895 11.75 10.7V12.3ZM17.75 16.3C17.75 16.4105 17.6605 16.5 17.55 16.5H3.95C3.83954 16.5 3.75 16.4105 3.75 16.3V13.7C3.75 13.5895 3.83954 13.5 3.95 13.5H7.55C7.66046 13.5 7.75 13.5895 7.75 13.7V14.3C7.75 14.4105 7.83954 14.5 7.95 14.5H13.55C13.6605 14.5 13.75 14.4105 13.75 14.3V13.7C13.75 13.5895 13.8395 13.5 13.95 13.5H17.55C17.6605 13.5 17.75 13.5895 17.75 13.7V16.3Z" fill="black"/>
</svg>
