<svg width="21" height="19" viewBox="0 0 21 19" fill="none" xmlns="http://www.w3.org/2000/svg">
<path d="M11.5 13.5H9.5C8.95 13.5 8.5 13.05 8.5 12.5H1.51V16.5C1.51 17.6 2.41 18.5 3.51 18.5H17.5C18.6 18.5 19.5 17.6 19.5 16.5V12.5H12.5C12.5 13.05 12.05 13.5 11.5 13.5ZM18.5 4.5H14.5C14.5 2.29 12.71 0.5 10.5 0.5C8.29 0.5 6.5 2.29 6.5 4.5H2.5C1.4 4.5 0.5 5.4 0.5 6.5V9.5C0.5 10.61 1.39 11.5 2.5 11.5H8.5V10.5C8.5 9.95 8.95 9.5 9.5 9.5H11.5C12.05 9.5 12.5 9.95 12.5 10.5V11.5H18.5C19.6 11.5 20.5 10.6 20.5 9.5V6.5C20.5 5.4 19.6 4.5 18.5 4.5ZM8.5 4.5C8.5 3.4 9.4 2.5 10.5 2.5C11.6 2.5 12.5 3.4 12.5 4.5H8.49H8.5Z" fill="#4559BD"/>
</svg>
