<svg id="Layer_1" data-name="Layer 1" xmlns="http://www.w3.org/2000/svg" viewBox="0 0 109.07 76.71"><path d="M8.23,54.51a32.79,32.79,0,0,1,1-3.33A16,16,0,0,1,21.85,40.86l.51-.12a1.71,1.71,0,0,0,.29-.16c-6.35-1.61-8.56-6.69-8-10.81a9.8,9.8,0,0,1,10.25-8.28,9.66,9.66,0,0,1,9,8.41c.61,5-2.55,9.31-8,10.71l2.22.48A16,16,0,0,1,40.4,56.57a3.15,3.15,0,0,1-3.3,3.26q-12.78,0-25.55,0a3.51,3.51,0,0,1-3.32-2.35Zm25.12-1.1a9.5,9.5,0,0,0-9.55-6.33c-3.95.36-8,3.44-8.37,6.33ZM27.61,31.07a3.3,3.3,0,0,0-3.21-3.19A3.5,3.5,0,0,0,21,31.07a3.5,3.5,0,0,0,3.38,3.19A3.3,3.3,0,0,0,27.61,31.07Z" transform="translate(-8.23 -8.7)"/><path d="M64.59,47l2.08.42A19.12,19.12,0,0,1,81.94,66.26c0,1.1,0,2.2,0,3.3a3.08,3.08,0,0,1-3.07,3q-16.06,0-32.15,0a3,3,0,0,1-3.08-2.69c-.23-4.36-.06-8.66,2.14-12.61A19,19,0,0,1,60,47.25c.23,0,.46-.13,1-.27a13.16,13.16,0,0,1-8.49-5.18,12.36,12.36,0,0,1-2.35-9.34,12.81,12.81,0,0,1,25.42.38C76.14,38.94,72.48,45.34,64.59,47ZM75.51,66.17a12.81,12.81,0,0,0-13-12.71,12.68,12.68,0,0,0-12.4,12.71ZM62.79,40.65a6.39,6.39,0,1,0-6.41-6.36A6.48,6.48,0,0,0,62.79,40.65Z" transform="translate(-8.23 -8.7)"/><path d="M99.57,40.6c-5.66-1.31-8.54-5.92-8-10.71a9.61,9.61,0,0,1,9.25-8.4,9.75,9.75,0,0,1,10,8.3c.61,4.2-1.71,9.22-8.06,10.83,1.07.25,2,.43,3,.7A16,16,0,0,1,117.3,56.48,3.14,3.14,0,0,1,114,59.83H88.43a3.15,3.15,0,0,1-3.29-3.27A16,16,0,0,1,98.5,40.86C98.77,40.82,99,40.73,99.57,40.6Zm10.59,12.8C109.24,49.91,105,47,101,47.05S93,50,92.25,53.4Zm-9-19.14A3.5,3.5,0,0,0,104.51,31a3.5,3.5,0,0,0-3.41-3.16,3.19,3.19,0,1,0,.07,6.38Z" transform="translate(-8.23 -8.7)"/><path d="M85.14,79c0-1.2,0-2.23,0-3.26a3.19,3.19,0,0,1,6.38,0c0,2.17,0,4.33,0,6.5a3.09,3.09,0,0,1-3.1,3.12q-6.49,0-13,0a3.19,3.19,0,0,1,0-6.37c2.8,0,5.61,0,8.41,0Z" transform="translate(-8.23 -8.7)"/><path d="M40.4,15.09c0,1.18,0,2.21,0,3.24a3.19,3.19,0,0,1-6.38,0c0-2.16,0-4.33,0-6.49A3.11,3.11,0,0,1,37.2,8.71q6.39,0,12.78,0a3.13,3.13,0,0,1,3.2,3.14A3.13,3.13,0,0,1,50,15.09C46.83,15.11,43.67,15.09,40.4,15.09Z" transform="translate(-8.23 -8.7)"/><path d="M85.14,15.09h-9.3a3.2,3.2,0,1,1,0-6.38q6.18,0,12.35,0a3.14,3.14,0,0,1,3.37,3.39q0,3,0,6.07a3.19,3.19,0,1,1-6.38,0C85.13,17.2,85.14,16.21,85.14,15.09Z" transform="translate(-8.23 -8.7)"/><path d="M40.4,79c3.2,0,6.24,0,9.29,0a3.2,3.2,0,1,1,0,6.38q-6.18,0-12.35,0A3.15,3.15,0,0,1,34,82c0-2,0-4,0-6.07a3.2,3.2,0,1,1,6.39,0Z" transform="translate(-8.23 -8.7)"/></svg>