<svg id="Layer_1" data-name="Layer 1" xmlns="http://www.w3.org/2000/svg" viewBox="0 0 119.74 84.2"><defs><style>.cls-1{fill:#465aa5;}</style></defs><path class="cls-1" d="M2.9,55.24c.27-1,.48-2,.84-3a17.59,17.59,0,0,1,14.11-12l.57-.13a1.65,1.65,0,0,0,.31-.18c-7-1.77-9.4-7.37-8.74-11.87.81-5.46,5.53-9.21,11.27-9.09a10.62,10.62,0,0,1,9.9,9.25c.66,5.46-2.8,10.19-8.79,11.74,1,.21,1.71.36,2.44.53a17.54,17.54,0,0,1,13.4,17,3.45,3.45,0,0,1-3.62,3.58c-9.35,0-18.7,0-28.05,0A3.86,3.86,0,0,1,2.9,58.51Z" transform="translate(-2.9 -4.95)"/><path class="cls-1" d="M64.79,47c.94.19,1.61.32,2.27.47A21,21,0,0,1,83.81,68.14c0,1.17,0,2.34,0,3.51a3.43,3.43,0,0,1-3.5,3.46q-17.52,0-35.06,0a3.32,3.32,0,0,1-3.48-3c-.18-4.09-.22-8.18,1.5-12,3.21-7.2,8.64-11.52,16.43-12.84.26,0,.5-.14,1.06-.3a14.43,14.43,0,0,1-9.26-5.59,13.47,13.47,0,0,1-2.66-10.23,14.05,14.05,0,0,1,27.89.2C77.51,37.87,73.67,45.09,64.79,47Z" transform="translate(-2.9 -4.95)"/><path class="cls-1" d="M106.56,40c1.3.3,2.32.49,3.32.78a17.61,17.61,0,0,1,12.75,16.7A3.46,3.46,0,0,1,119,61.08H91a3.47,3.47,0,0,1-3.7-3.74A17.54,17.54,0,0,1,101.9,40.27c.34-.06.67-.15,1.34-.31a10.87,10.87,0,0,1-7-4.46,10,10,0,0,1-1.69-7.88A10.51,10.51,0,0,1,105.85,19a10.91,10.91,0,0,1,9.75,9.48C116,34,112.52,38.57,106.56,40Z" transform="translate(-2.9 -4.95)"/><path class="cls-1" d="M87.32,82.13c0-1.29,0-2.41,0-3.54a3.5,3.5,0,0,1,7,0q0,3.56,0,7.13a3.41,3.41,0,0,1-3.49,3.46q-7,0-14,0a3.5,3.5,0,1,1,0-7C80.26,82.12,83.72,82.13,87.32,82.13Z" transform="translate(-2.9 -4.95)"/><path class="cls-1" d="M38.21,12c0,1.3,0,2.43,0,3.55a3.51,3.51,0,0,1-7,0c0-2.37,0-4.75,0-7.12A3.42,3.42,0,0,1,34.71,5c4.67,0,9.35,0,14,0a3.43,3.43,0,0,1,3.51,3.45A3.43,3.43,0,0,1,48.72,12C45.26,12,41.81,12,38.21,12Z" transform="translate(-2.9 -4.95)"/><path class="cls-1" d="M87.32,12H77.13c-2.29,0-3.82-1.4-3.84-3.48S74.82,5,77.18,5H90.51a3.49,3.49,0,0,1,3.83,3.83c0,2.18,0,4.36,0,6.54a3.5,3.5,0,1,1-7,0C87.32,14.29,87.32,13.21,87.32,12Z" transform="translate(-2.9 -4.95)"/><path class="cls-1" d="M38.21,82.13c3.59,0,7,0,10.51,0a3.49,3.49,0,0,1,1,6.84,4,4,0,0,1-1.25.16q-6.78,0-13.56,0a3.46,3.46,0,0,1-3.75-3.79q0-3.33,0-6.66a3.51,3.51,0,1,1,7,0C38.22,79.78,38.21,80.86,38.21,82.13Z" transform="translate(-2.9 -4.95)"/></svg>