<svg width="17" height="16" viewBox="0 0 17 16" fill="none" xmlns="http://www.w3.org/2000/svg">
<path d="M5.46928 16.0001C5.23681 15.9788 5.00434 15.9592 4.77187 15.9358C3.78314 15.8373 2.81736 15.6536 1.94633 15.1407C0.97888 14.5709 0.432553 13.7161 0.251418 12.6151C0.0114344 11.158 0.445908 9.87286 1.25017 8.6829C1.8616 7.77801 2.62204 7.01128 3.46302 6.32093C3.50309 6.28795 3.54357 6.25498 3.5828 6.22075C3.5899 6.21491 3.59157 6.20322 3.58823 6.21074C3.44007 5.97408 3.29649 5.7466 3.15501 5.51788C3.03481 5.32338 3.0394 5.1318 3.14749 4.92811C3.30484 4.63135 3.48264 4.35129 3.73598 4.12924C3.81694 4.05829 3.81027 4.00611 3.76769 3.92013C3.24224 2.85872 2.72012 1.79565 2.19841 0.73257C2.07613 0.483809 2.10785 0.256752 2.29274 0.111085C2.35576 0.0614166 2.43923 0.00882618 2.51394 0.00799142C2.96093 0.00381758 3.41002 -0.00870395 3.85492 0.0263563C4.3232 0.0630861 4.7293 0.275952 5.08322 0.584816C5.10242 0.601512 5.12329 0.61612 5.15334 0.639493C5.45092 0.240892 5.83155 6.11189e-05 6.34032 6.11189e-05C6.84825 6.11189e-05 7.23389 0.230874 7.52562 0.630728C7.69132 0.516783 7.84282 0.39908 8.00684 0.302665C8.35409 0.0989811 8.7318 -0.00286057 9.13664 6.11189e-05C9.4384 0.00214804 9.74057 6.11189e-05 10.0423 0.000478503C10.4693 0.00131327 10.6826 0.340647 10.4935 0.725892C9.97888 1.77561 9.46135 2.82366 8.94549 3.87255C8.91836 3.92765 8.89416 3.98441 8.86577 4.04618C9.16794 4.30287 9.38581 4.61675 9.55901 4.96484C9.64457 5.13639 9.65417 5.30626 9.55734 5.47113C9.41002 5.72073 9.2535 5.96531 9.09991 6.21408C10.6876 7.57809 12.0849 9.09027 12.4284 11.3124C12.4789 11.3124 12.5348 11.3124 12.5907 11.3124C13.5903 11.3124 14.5899 11.3195 15.5895 11.3078C15.8733 11.3045 16.0707 11.3955 16.1855 11.6559C16.1855 12.9891 16.1855 14.3226 16.1855 15.6557C16.1158 15.8152 16.0014 15.9299 15.842 15.9996C13.8841 15.9996 11.9263 15.9996 9.96845 15.9996C9.84073 15.8882 9.71344 15.7768 9.58572 15.6653C9.58698 15.629 9.56319 15.6361 9.53856 15.6407C9.07028 15.7304 8.60325 15.8294 8.13289 15.9053C7.83113 15.9541 7.52395 15.9692 7.21928 15.9996C6.63581 16.0001 6.05234 16.0001 5.46928 16.0001ZM11.4593 11.3128C11.3758 10.6772 11.1467 10.1074 10.8307 9.57151C10.1425 8.40451 9.19257 7.47958 8.12037 6.66986C8.07946 6.63897 8.01519 6.62687 7.96219 6.62645C6.88456 6.62395 5.80693 6.62353 4.7293 6.62729C4.66753 6.62729 4.59532 6.64982 4.54566 6.68614C3.66753 7.33016 2.87663 8.06559 2.22721 8.94293C1.50058 9.92462 1.01227 10.9877 1.15417 12.2545C1.21052 12.7587 1.34616 13.232 1.65292 13.6448C2.05526 14.1865 2.61828 14.487 3.24265 14.6874C4.01603 14.9353 4.81653 15.0096 5.6237 15.0426C6.65042 15.0847 7.67337 15.0572 8.68589 14.8723C9.00392 14.8143 9.31444 14.7158 9.61369 14.6394C9.62037 14.5901 9.62329 14.5801 9.62329 14.5697C9.6237 13.8251 9.63539 13.0805 9.62162 12.3358C9.60325 11.3462 9.65626 11.2849 10.6404 11.3112C10.9104 11.3191 11.1809 11.3128 11.4593 11.3128ZM9.32905 0.952114C8.48931 0.854029 7.7919 1.47885 7.75058 2.34284C7.73723 2.62332 7.54232 2.81532 7.27395 2.81239C7.00851 2.80947 6.81527 2.60704 6.8136 2.32739C6.81193 2.06736 6.81319 1.80692 6.81319 1.54689C6.81319 1.16707 6.63289 0.935419 6.34032 0.938758C6.05108 0.942097 5.87579 1.16915 5.87537 1.53896C5.87537 1.80942 5.87788 2.0803 5.87454 2.35077C5.8712 2.60871 5.67421 2.80697 5.42254 2.81239C5.1596 2.81866 4.95843 2.62916 4.93673 2.36663C4.92546 2.22764 4.91168 2.08573 4.87412 1.95217C4.67838 1.25305 3.97596 0.864881 3.37245 0.957958C3.37871 0.977992 3.38205 0.997609 3.39082 1.01514C3.83447 1.91961 4.27729 2.8245 4.72638 3.72605C4.74808 3.76987 4.8278 3.80911 4.8808 3.80911C5.85367 3.81412 6.82696 3.8112 7.79983 3.81537C7.90042 3.81579 7.94215 3.7778 7.98347 3.69308C8.27938 3.08077 8.58113 2.47139 8.88122 1.86118C9.02771 1.56358 9.17421 1.2664 9.32905 0.952114ZM10.5653 13.1748C12.1225 13.1748 13.6788 13.1748 15.2376 13.1748C15.2376 12.8668 15.2376 12.5629 15.2376 12.2616C13.6742 12.2616 12.1216 12.2616 10.5653 12.2616C10.5653 12.5692 10.5653 12.8655 10.5653 13.1748ZM10.5686 15.0513C12.135 15.0513 13.6876 15.0513 15.2356 15.0513C15.2356 14.7362 15.2356 14.4328 15.2356 14.1331C13.6734 14.1331 12.1245 14.1331 10.5686 14.1331C10.5686 14.4415 10.5686 14.7412 10.5686 15.0513ZM6.34198 5.68775C6.88831 5.68775 7.43547 5.67481 7.98138 5.69401C8.20384 5.70194 8.34866 5.62222 8.46636 5.4536C8.50517 5.39809 8.54566 5.34383 8.58113 5.28665C8.59658 5.26202 8.61327 5.22905 8.60951 5.20275C8.5828 5.02453 8.25392 4.74989 8.07237 4.74989C6.95342 4.74989 5.83447 4.7574 4.71552 4.74363C4.48222 4.74071 4.33447 4.82419 4.20759 5.00157C4.049 5.22237 4.04941 5.21569 4.20926 5.43816C4.33698 5.61555 4.48514 5.70194 4.71886 5.6936C5.25893 5.67481 5.80067 5.68775 6.34198 5.68775Z" fill="#201F37"/>
<path d="M5.87583 8.24367C5.87583 8.16562 5.87374 8.08757 5.87625 8.00952C5.88501 7.75658 6.08868 7.56292 6.34328 7.5625C6.59828 7.56208 6.80363 7.75491 6.81156 8.00785C6.81615 8.15352 6.8199 8.30002 6.8103 8.44485C6.80363 8.54461 6.84369 8.58509 6.93009 8.62808C7.45054 8.88519 7.73393 9.30383 7.74853 9.88942C7.75521 10.1611 7.56072 10.3652 7.30404 10.374C7.03318 10.3832 6.83493 10.1995 6.81281 9.91905C6.79152 9.64775 6.61581 9.45742 6.36915 9.43864C6.15045 9.42195 5.94052 9.58932 5.88668 9.82264C5.82283 10.0998 6.05697 10.3652 6.37291 10.3744C6.95388 10.3915 7.44887 10.7367 7.65588 11.2693C7.92466 11.9605 7.61498 12.7427 6.93843 13.054C6.83159 13.1033 6.80571 13.1592 6.81072 13.2631C6.8174 13.3984 6.8149 13.534 6.81156 13.6692C6.80488 13.9314 6.5987 14.1271 6.33702 14.1246C6.08368 14.1221 5.88418 13.9259 5.87583 13.6713C5.875 13.6505 5.87291 13.6292 5.87583 13.6087C5.92091 13.2957 5.85079 13.0849 5.52984 12.9088C5.12082 12.6846 4.94052 12.2652 4.93927 11.7893C4.93843 11.5206 5.13418 11.3181 5.39211 11.3127C5.65588 11.3073 5.85747 11.4905 5.87416 11.7597C5.8871 11.9647 5.97391 12.1203 6.16131 12.2063C6.33326 12.2852 6.49728 12.2526 6.64169 12.1333C6.79361 12.0076 6.84536 11.8106 6.78109 11.6266C6.71389 11.4354 6.5361 11.3173 6.30697 11.3123C5.71097 11.2993 5.18468 10.9057 5.00271 10.3364C4.79486 9.68699 5.07783 8.97075 5.68843 8.66648C5.84954 8.58634 5.8992 8.49702 5.87625 8.33758C5.87207 8.3067 5.87583 8.27498 5.87583 8.24367Z" fill="#201F37"/>
</svg>
