<svg width="19" height="18" viewBox="0 0 19 18" fill="none" xmlns="http://www.w3.org/2000/svg">
<path d="M16.25 10V15C16.25 15.55 15.8 16 15.25 16H3.25C2.7 16 2.25 15.55 2.25 15V10C2.25 9.45 1.8 9 1.25 9C0.7 9 0.25 9.45 0.25 10V16C0.25 17.1 1.15 18 2.25 18H16.25C17.35 18 18.25 17.1 18.25 16V10C18.25 9.45 17.8 9 17.25 9C16.7 9 16.25 9.45 16.25 10ZM10.25 9.67L12.13 7.79C12.52 7.4 13.15 7.4 13.54 7.79C13.93 8.18 13.93 8.81 13.54 9.2L9.95 12.79C9.56 13.18 8.93 13.18 8.54 12.79L4.95 9.2C4.56 8.81 4.56 8.18 4.95 7.79C5.34 7.4 5.97 7.4 6.36 7.79L8.25 9.67V1C8.25 0.45 8.7 0 9.25 0C9.8 0 10.25 0.45 10.25 1V9.67Z" fill="#4559BD"/>
</svg>
