<svg width="23" height="18" viewBox="0 0 23 18" fill="none" xmlns="http://www.w3.org/2000/svg">
<g clip-path="url(#clip0_3451_56577)">
<path d="M20.2804 0.199219H2.68047C1.47047 0.199219 0.480469 1.18922 0.480469 2.39922V15.5993C0.480469 16.8093 1.47047 17.7993 2.68047 17.7993H20.2804C21.4904 17.7993 22.4804 16.8093 22.4804 15.5993V2.39922C22.4804 1.18922 21.4904 0.199219 20.2804 0.199219ZM19.8404 4.87422L12.6464 9.37322C11.9314 9.82422 11.0294 9.82422 10.3144 9.37322L3.12047 4.87422C2.84547 4.69822 2.68047 4.40122 2.68047 4.08222C2.68047 3.34522 3.48347 2.90522 4.11047 3.29022L11.4804 7.89922L18.8504 3.29022C19.4774 2.90522 20.2804 3.34522 20.2804 4.08222C20.2804 4.40122 20.1154 4.69822 19.8404 4.87422Z" fill="#4559BD"/>
</g>
<defs>
<clipPath id="clip0_3451_56577">
<rect width="23" height="18" fill="white"/>
</clipPath>
</defs>
</svg>
