<svg width="23" height="18" viewBox="0 0 23 18" fill="none" xmlns="http://www.w3.org/2000/svg">
<path d="M20.2803 0.199951H2.68035C1.47035 0.199951 0.480347 1.18995 0.480347 2.39995V15.6C0.480347 16.81 1.47035 17.8 2.68035 17.8H20.2803C21.4903 17.8 22.4803 16.81 22.4803 15.6V2.39995C22.4803 1.18995 21.4903 0.199951 20.2803 0.199951ZM19.8403 4.87495L12.6463 9.37395C11.9313 9.82495 11.0293 9.82495 10.3143 9.37395L3.12035 4.87495C2.84535 4.69895 2.68035 4.40195 2.68035 4.08295C2.68035 3.34595 3.48335 2.90595 4.11035 3.29095L11.4803 7.89995L18.8503 3.29095C19.4773 2.90595 20.2803 3.34595 20.2803 4.08295C20.2803 4.40195 20.1153 4.69895 19.8403 4.87495Z" fill="black"/>
</svg>
