<svg width="23" height="18" viewBox="0 0 23 18" fill="none" xmlns="http://www.w3.org/2000/svg">
<path d="M20.2803 0.199951H2.68035C1.47035 0.199951 0.491347 1.18995 0.491347 2.39995L0.480347 15.6C0.480347 16.81 1.47035 17.8 2.68035 17.8H20.2803C21.4903 17.8 22.4803 16.81 22.4803 15.6V2.39995C22.4803 1.18995 21.4903 0.199951 20.2803 0.199951ZM19.1803 15.6H3.78035C3.17535 15.6 2.68035 15.105 2.68035 14.5V4.59995L10.3143 9.37395C11.0293 9.82495 11.9313 9.82495 12.6463 9.37395L20.2803 4.59995V14.5C20.2803 15.105 19.7853 15.6 19.1803 15.6ZM11.4803 7.89995L2.68035 2.39995H20.2803L11.4803 7.89995Z" fill="black"/>
</svg>
