<svg id="Layer_1" data-name="Layer 1" xmlns="http://www.w3.org/2000/svg" viewBox="0 0 73.85 73.8"><defs><style>.cls-1{fill:#fff;}.cls-2{fill:#4659a4;}</style></defs><path class="cls-1" d="M24.65,14.29c0-.85,0-1.67,0-2.49,0-2,1.17-3.18,2.93-3.15s2.8,1.31,2.81,3.2v2.42H54.88c0-.87,0-1.72,0-2.56a2.86,2.86,0,0,1,2.77-3.06,2.82,2.82,0,0,1,3,2.94c0,.88,0,1.76,0,2.71a46,46,0,0,0,4.85,0A12.81,12.81,0,0,1,79.4,24.87,22.23,22.23,0,0,1,79.53,28c0,.32,0,.65,0,1,0,12.87,0,25.75,0,38.62a19.86,19.86,0,0,1-.35,5.27,12.74,12.74,0,0,1-13.57,9.49,8.72,8.72,0,0,0-.89,0c-14.7,0-29.41,0-44.11,0A20.27,20.27,0,0,1,15.15,82a12.78,12.78,0,0,1-9.4-13.56c0-.27,0-.53,0-.8,0-12.87,0-25.75,0-38.62a20.44,20.44,0,0,1,.36-5.35,12.86,12.86,0,0,1,13.57-9.42C21.29,14.41,22.92,14.29,24.65,14.29ZM11.44,37v1.11q0,14.54,0,29.06a29.86,29.86,0,0,0,.18,3.27A6.16,6.16,0,0,0,17,76.35a18.91,18.91,0,0,0,3.6.33q21.89,0,43.76,0a32.55,32.55,0,0,0,3.27-.17,6.19,6.19,0,0,0,5.91-5.38,17.91,17.91,0,0,0,.32-3.34q0-14.93,0-29.85V37ZM30.38,20c0,1,0,1.85,0,2.73a2.85,2.85,0,0,1-1.26,2.42,2.8,2.8,0,0,1-4.4-2,27.64,27.64,0,0,1,0-3c-2.49,0-4.8-.13-7.08,0a5.92,5.92,0,0,0-5,2.94c-1.46,2.57-1.19,5.38-1.17,8.14H74c-.19-2.11-.23-4.17-.59-6.18a5.61,5.61,0,0,0-4.11-4.55c-2.82-.86-5.71-.49-8.67-.56,0,.9,0,1.7,0,2.48a4.65,4.65,0,0,1-.42,1.78,2.76,2.76,0,0,1-3.09,1.36,2.91,2.91,0,0,1-2.2-2.78c0-.93,0-1.86,0-2.81Z" transform="translate(-5.69 -8.65)"/><path class="cls-2" d="M11.44,37H73.82v.9q0,14.93,0,29.85a17.91,17.91,0,0,1-.32,3.34,6.19,6.19,0,0,1-5.91,5.38,32.55,32.55,0,0,1-3.27.17q-21.89,0-43.76,0a18.91,18.91,0,0,1-3.6-.33,6.16,6.16,0,0,1-5.32-5.87,29.86,29.86,0,0,1-.18-3.27q0-14.53,0-29.06ZM39.62,59.19c-.37-.35-.59-.54-.8-.75-1.19-1.18-2.36-2.39-3.58-3.55a2.84,2.84,0,0,0-4.06,4q3.15,3.24,6.4,6.38a2.68,2.68,0,0,0,3.9,0q6.35-6.31,12.64-12.67a2.86,2.86,0,0,0-1.64-4.81,3,3,0,0,0-2.68,1.07c-3,3-6,6-9,9C40.38,58.22,40,58.7,39.62,59.19Z" transform="translate(-5.69 -8.65)"/><path class="cls-2" d="M30.38,20h24.5c0,.95,0,1.88,0,2.81a2.91,2.91,0,0,0,2.2,2.78,2.76,2.76,0,0,0,3.09-1.36,4.65,4.65,0,0,0,.42-1.78c.06-.78,0-1.58,0-2.48,3,.07,5.85-.3,8.67.56a5.61,5.61,0,0,1,4.11,4.55c.36,2,.4,4.07.59,6.18H11.47c0-2.76-.29-5.57,1.17-8.14a5.92,5.92,0,0,1,5-2.94c2.28-.17,4.59,0,7.08,0a27.64,27.64,0,0,0,0,3,2.8,2.8,0,0,0,4.4,2,2.85,2.85,0,0,0,1.26-2.42C30.4,21.87,30.38,21,30.38,20Z" transform="translate(-5.69 -8.65)"/><path class="cls-1" d="M39.62,59.19c.41-.49.76-1,1.18-1.38,3-3,6-6,9-9a3,3,0,0,1,2.68-1.07,2.86,2.86,0,0,1,1.64,4.81Q47.8,58.86,41.48,65.19a2.68,2.68,0,0,1-3.9,0q-3.26-3.13-6.4-6.38a2.84,2.84,0,0,1,4.06-4c1.22,1.16,2.39,2.37,3.58,3.55C39,58.65,39.25,58.84,39.62,59.19Z" transform="translate(-5.69 -8.65)"/></svg>