<svg id="Layer_1" data-name="Layer 1" xmlns="http://www.w3.org/2000/svg" viewBox="0 0 71.38 71.34"><path d="M26.26,14c0-.82,0-1.62,0-2.41,0-1.89,1.13-3.07,2.83-3a2.81,2.81,0,0,1,2.71,3.1c0,.76,0,1.53,0,2.34H55.48c0-.84,0-1.66,0-2.48a2.77,2.77,0,0,1,2.67-3A2.74,2.74,0,0,1,61,11.42c0,.85,0,1.7,0,2.62a45.71,45.71,0,0,0,4.69,0A12.37,12.37,0,0,1,79.18,24.25a22.32,22.32,0,0,1,.13,3.07c0,.31,0,.62,0,.94,0,12.44,0,24.89,0,37.33A19.31,19.31,0,0,1,79,70.68a12.36,12.36,0,0,1-13.13,9.18,8,8,0,0,0-.85,0c-14.22,0-28.43,0-42.65,0a19.76,19.76,0,0,1-5.26-.35A12.36,12.36,0,0,1,8,66.39a6.61,6.61,0,0,0,0-.77C8,53.17,8,40.73,8,28.28a19.5,19.5,0,0,1,.35-5.17A12.41,12.41,0,0,1,21.45,14C23,14.15,24.58,14,26.26,14ZM13.49,36v1.07q0,14.05,0,28.09a30.26,30.26,0,0,0,.17,3.16A6,6,0,0,0,18.81,74a18.46,18.46,0,0,0,3.48.31q21.15,0,42.31,0a30.07,30.07,0,0,0,3.15-.17A6,6,0,0,0,73.47,69a16.67,16.67,0,0,0,.3-3.23c0-9.62,0-19.24,0-28.86V36ZM31.8,19.56c0,.94,0,1.8,0,2.65a2.76,2.76,0,0,1-1.22,2.33,2.71,2.71,0,0,1-4.26-1.93,28.14,28.14,0,0,1,0-2.9c-2.41,0-4.64-.13-6.85,0a5.72,5.72,0,0,0-4.82,2.84c-1.4,2.48-1.14,5.2-1.12,7.87H73.94c-.18-2-.22-4-.57-6a5.4,5.4,0,0,0-4-4.39c-2.72-.84-5.52-.48-8.38-.54,0,.87,0,1.64,0,2.4a4.76,4.76,0,0,1-.4,1.72,2.69,2.69,0,0,1-3,1.31,2.82,2.82,0,0,1-2.13-2.68c0-.9,0-1.8,0-2.73Z" transform="translate(-7.93 -8.57)"/><path d="M40.73,57.43c.4-.47.74-.94,1.13-1.34,2.9-2.91,5.81-5.81,8.71-8.73a2.91,2.91,0,0,1,2.59-1A2.77,2.77,0,0,1,54.74,51q-6.09,6.13-12.22,12.24a2.59,2.59,0,0,1-3.77.05q-3.14-3-6.18-6.17a2.75,2.75,0,0,1,3.93-3.84c1.17,1.12,2.31,2.29,3.46,3.44C40.16,56.91,40.37,57.09,40.73,57.43Z" transform="translate(-7.93 -8.57)"/></svg>