<svg width="16" height="17" viewBox="0 0 16 17" fill="none" xmlns="http://www.w3.org/2000/svg">
<g clip-path="url(#clip0_214_1090)">
<g clip-path="url(#clip1_214_1090)">
<path d="M8.34206 3.14269C8.60073 2.60326 8.93674 2.14608 9.39122 1.79291C10.5129 0.917242 11.7603 0.694697 13.0874 1.2051C14.4267 1.72034 15.2244 2.73147 15.4541 4.14656C15.7079 5.71405 14.9077 7.26219 13.4984 8.00481C13.3896 8.06286 13.3533 8.12334 13.3533 8.24671C13.3582 9.70776 13.3533 11.1712 13.3582 12.6323C13.3606 12.9468 13.2301 13.1427 12.9472 13.2685C11.0496 14.1272 9.15431 14.9884 7.25907 15.8543C7.03425 15.9584 6.8336 15.9608 6.60637 15.8568C4.7087 14.9884 2.8062 14.1248 0.903707 13.2661C0.625705 13.1403 0.5 12.9468 0.5 12.642C0.504835 10.3827 0.504835 8.12334 0.5 5.86403C0.5 5.56649 0.618453 5.37056 0.889202 5.24719C2.79654 4.38362 4.70387 3.51763 6.60637 2.6468C6.82635 2.54521 7.02458 2.53795 7.24456 2.64438C7.59992 2.81613 7.96253 2.97094 8.34206 3.14269ZM6.38638 14.5747C6.3888 14.5288 6.39363 14.4997 6.39363 14.4731C6.39363 12.6202 6.39363 10.7697 6.39605 8.91676C6.39605 8.80307 6.34287 8.76678 6.25584 8.72566C5.04956 8.17897 3.84327 7.62987 2.63699 7.08076C2.28888 6.92353 1.94077 6.7663 1.58058 6.60423C1.57816 6.65261 1.57333 6.67922 1.57333 6.70583C1.57333 8.55875 1.57333 10.4093 1.57091 12.2622C1.57091 12.3638 1.60959 12.4049 1.69662 12.4436C2.90774 12.9927 4.11886 13.5442 5.32998 14.0958C5.67808 14.2578 6.02619 14.4126 6.38638 14.5747ZM7.46454 14.5747C7.5274 14.5481 7.57333 14.5312 7.61684 14.5118C9.13255 13.8224 10.6459 13.133 12.164 12.4484C12.2631 12.4025 12.2873 12.3493 12.2873 12.2477C12.2849 11.0213 12.2849 9.79484 12.2849 8.56601C12.2849 8.51763 12.28 8.46925 12.2776 8.41603C12.2438 8.41603 12.222 8.41361 12.2002 8.41603C11.3082 8.52731 10.4863 8.32895 9.72482 7.85483C9.67647 7.82581 9.58461 7.83306 9.52901 7.85725C8.8884 8.14269 8.25262 8.4378 7.61201 8.72324C7.49839 8.77404 7.46213 8.83209 7.46213 8.95788C7.46696 10.7697 7.46454 12.5839 7.46454 14.3957C7.46454 14.4489 7.46454 14.5046 7.46454 14.5747ZM14.4267 4.69567C14.4267 3.22252 13.2252 2.02271 11.7554 2.02029C10.276 2.01787 9.07212 3.22252 9.07212 4.7005C9.07212 6.17123 10.2736 7.37588 11.7434 7.37588C13.2228 7.3783 14.4291 6.17365 14.4267 4.69567ZM8.78928 7.01545C8.7772 6.98642 8.77478 6.97433 8.76753 6.96465C8.1801 6.16881 7.91418 5.28347 8.03022 4.29412C8.03989 4.20462 8.00363 4.16591 7.92869 4.13205C7.6386 4.00384 7.35334 3.86354 7.06084 3.74259C6.9859 3.71115 6.87228 3.70873 6.79976 3.74259C5.36865 4.38604 3.93997 5.03916 2.51128 5.68986C2.46535 5.71163 2.41942 5.73824 2.36865 5.76485C2.39041 5.7842 2.39525 5.79388 2.40492 5.79871C3.88437 6.47119 5.36382 7.14608 6.84569 7.81613C6.8892 7.83548 6.95689 7.84274 7.0004 7.82339C7.59508 7.55972 8.18735 7.2888 8.78928 7.01545Z" fill="#201F37"/>
<path d="M11.5477 4.83113C11.8136 4.16592 12.0601 3.54666 12.3116 2.92983C12.43 2.63713 12.6935 2.49925 12.9643 2.57666C13.2882 2.671 13.4381 2.9903 13.3051 3.32412C13.0416 3.99175 12.7733 4.65939 12.5074 5.3246C12.4276 5.52538 12.3478 5.72857 12.2632 5.92934C12.0892 6.34541 11.6637 6.43491 11.347 6.12044C11.0062 5.78421 10.6677 5.44313 10.3293 5.10206C10.0948 4.865 10.0851 4.5457 10.2979 4.32557C10.5154 4.10061 10.8442 4.10786 11.0859 4.34734C11.2334 4.49732 11.376 4.65213 11.5477 4.83113Z" fill="#201F37"/>
</g>
</g>
<defs>
<clipPath id="clip0_214_1090">
<rect width="16" height="16" fill="white" transform="translate(0 0.434082)"/>
</clipPath>
<clipPath id="clip1_214_1090">
<rect width="15" height="15" fill="white" transform="translate(0.5 0.934082)"/>
</clipPath>
</defs>
</svg>
