<svg width="21" height="22" viewBox="0 0 21 22" fill="none" xmlns="http://www.w3.org/2000/svg">
<path d="M0 11.3529C0 10.9484 0 10.5445 0 10.1401C0.0323233 9.86823 0.0595961 9.5954 0.098485 9.32408C0.415657 7.09584 1.33889 5.15309 2.92021 3.55303C5.35506 1.0889 8.31971 0.0785498 11.751 0.500711C13.8086 0.753805 15.6197 1.60268 17.1712 2.97901C18.9798 4.58363 20.1117 6.5775 20.5278 8.9662C20.5955 9.35496 20.6344 9.74877 20.6869 10.1401C20.6869 10.5445 20.6869 10.9484 20.6869 11.3529C20.6743 11.4243 20.6596 11.4951 20.65 11.567C20.601 11.9401 20.5718 12.3172 20.5021 12.6867C20.1106 14.7479 19.1728 16.5287 17.6985 18.0174C16.1531 19.5784 14.296 20.5615 12.1263 20.9355C11.7364 21.0029 11.3419 21.0423 10.9495 21.095C10.5455 21.095 10.1414 21.095 9.73739 21.095C9.46466 21.0626 9.19092 21.0347 8.9187 20.9963C6.8793 20.7083 5.07627 19.8928 3.53233 18.5291C1.71414 16.923 0.576769 14.9245 0.158586 12.5277C0.0914143 12.1385 0.0520203 11.7447 0 11.3529ZM9.16315 9.64804C9.2783 9.57009 9.36113 9.51289 9.44547 9.45822C9.75456 9.25878 10.0899 9.16159 10.4606 9.19703C11.1071 9.25878 11.6142 9.58173 12.0399 10.0464C12.7874 10.8624 12.7339 12.0018 11.9096 12.6487C11.4495 13.0096 11.0207 13.4116 10.5788 13.7963C10.4061 13.9466 10.3005 14.1177 10.3808 14.3627C10.4182 14.4766 10.4303 14.5996 10.4455 14.7195C10.5298 15.3867 10.2207 15.8777 9.59648 16.0711C9.24295 16.1809 9.26113 16.1839 9.20254 16.5454C9.14093 16.9275 9.09396 17.3264 8.94547 17.6782C8.55052 18.6136 7.46365 18.764 6.79244 18.0047C6.51415 17.6899 6.37274 17.3107 6.34799 16.9007C6.31819 16.4102 6.1485 15.9961 5.84445 15.6109C5.65203 15.367 5.50759 15.0779 5.3788 14.7924C5.20354 14.4037 5.26264 13.9846 5.29597 13.5761C5.32173 13.2572 5.23385 12.997 5.00354 12.7748C4.85859 12.6346 4.73082 12.4766 4.59496 12.3273C4.23334 11.9289 4.02425 11.4658 4.01415 10.9231C4.01061 10.7282 4.02071 10.5329 4.03486 10.338C4.04698 10.176 3.99647 10.0656 3.85859 9.96542C3.10506 9.41671 2.40606 8.80676 1.82475 8.07177C1.81566 8.06013 1.79445 8.0576 1.77829 8.05051C0.511112 11.8975 2.0601 16.682 6.40001 18.8262C10.3187 20.7624 14.6546 19.422 16.8551 16.9043C16.8021 16.8627 16.7495 16.8212 16.697 16.7792C16.3233 16.4785 16.0667 16.103 15.9601 15.6307C15.8682 15.2227 15.9409 14.8294 16.0601 14.4386C16.1834 14.0342 16.3278 13.6333 16.4106 13.2202C16.5026 12.7616 16.4005 12.6067 15.9667 12.4498C15.2849 12.2028 14.6526 11.8646 14.0561 11.4582C13.5743 11.1297 13.295 10.6872 13.3329 10.0808C13.3829 9.28257 13.6642 8.56783 14.1722 7.9594C14.8036 7.20264 15.6046 6.91665 16.5728 7.21884C16.8419 7.30287 17.1116 7.38791 17.3753 7.48864C17.8228 7.65923 18.2778 7.63645 18.7551 7.5838C18.4152 6.67874 17.9495 5.86833 17.348 5.11917C16.9616 5.46895 16.499 5.60258 16.0318 5.4239C15.4925 5.21737 15.0349 5.29634 14.5364 5.54083C14.0596 5.77469 13.55 5.7352 13.1369 5.36923C12.8793 5.14094 12.648 4.8676 12.4616 4.57806C12.2233 4.20753 12.2404 3.79397 12.5091 3.44116C12.7652 3.10556 13.0687 2.8064 13.352 2.49104C13.3985 2.43941 13.4455 2.3893 13.5025 2.32704C11.9657 1.76264 10.4233 1.62091 8.81618 1.88514C8.92476 2.17417 9.02981 2.42929 9.11719 2.68947C9.29598 3.2235 9.53082 3.74943 9.62375 4.29915C9.78032 5.22497 9.44143 6.22773 8.17779 6.30214C7.83587 6.32238 7.54547 6.43476 7.28032 6.65596C6.8985 6.97435 6.44597 7.07255 5.95506 7.0108C5.8086 6.99258 5.65961 6.98346 5.51213 6.98954C5.41264 6.99359 5.31466 7.03105 5.17829 7.06243C5.24546 7.11204 5.27173 7.13228 5.29849 7.15101C5.79041 7.49826 6.34799 7.66226 6.93941 7.71288C7.95809 7.80045 8.67072 8.28133 9.00052 9.27549C9.03992 9.39495 9.10052 9.50681 9.16315 9.64804Z" fill="#4559BD"/>
</svg>
