<svg width="22" height="21" viewBox="0 0 22 21" fill="none" xmlns="http://www.w3.org/2000/svg">
<path d="M0.364746 11.0262C0.364746 10.6218 0.364746 10.2178 0.364746 9.8134C0.397069 9.54157 0.424342 9.26874 0.463231 8.99742C0.780403 6.76918 1.70364 4.82643 3.28495 3.22637C5.71981 0.762242 8.68446 -0.24811 12.1158 0.174051C14.1734 0.427145 15.9845 1.27602 17.536 2.65235C19.3446 4.25697 20.4764 6.25084 20.8926 8.63954C20.9602 9.0283 20.9991 9.42211 21.0517 9.8134C21.0517 10.2178 21.0517 10.6218 21.0517 11.0262C21.039 11.0976 21.0244 11.1685 21.0148 11.2403C20.9658 11.6134 20.9365 11.9905 20.8668 12.36C20.4754 14.4212 19.5375 16.202 18.0633 17.6907C16.5178 19.2518 14.6607 20.2348 12.491 20.6089C12.1011 20.6762 11.7067 20.7157 11.3143 20.7683C10.9102 20.7683 10.5062 20.7683 10.1021 20.7683C9.82941 20.7359 9.55567 20.7081 9.28345 20.6696C7.24405 20.3816 5.44102 19.5661 3.89708 18.2025C2.07889 16.5963 0.941515 14.5979 0.523332 12.2011C0.45616 11.8118 0.416766 11.418 0.364746 11.0262ZM9.52789 9.32138C9.64304 9.24343 9.72587 9.18623 9.81022 9.13156C10.1193 8.93212 10.4547 8.83493 10.8254 8.87037C11.4718 8.93212 11.9789 9.25507 12.4047 9.71975C13.1521 10.5357 13.0986 11.6752 12.2744 12.3221C11.8143 12.683 11.3855 13.0849 10.9436 13.4696C10.7708 13.6199 10.6653 13.791 10.7456 14.036C10.7829 14.1499 10.7951 14.2729 10.8102 14.3929C10.8946 15.06 10.5855 15.551 9.96123 15.7444C9.60769 15.8542 9.62587 15.8573 9.56729 16.2187C9.50567 16.6009 9.4587 16.9998 9.31022 17.3516C8.91527 18.287 7.8284 18.4373 7.15718 17.678C6.8789 17.3632 6.73748 16.9841 6.71274 16.574C6.68294 16.0836 6.51324 15.6695 6.2092 15.2843C6.01678 15.0403 5.87233 14.7513 5.74354 14.4658C5.56829 14.077 5.62738 13.6579 5.66071 13.2494C5.68647 12.9305 5.59859 12.6703 5.36829 12.4481C5.22334 12.3079 5.09556 12.15 4.9597 12.0006C4.59809 11.6023 4.389 11.1391 4.37889 10.5965C4.37536 10.4016 4.38546 10.2062 4.3996 10.0113C4.41172 9.84933 4.36122 9.73899 4.22334 9.63876C3.4698 9.09005 2.77081 8.4801 2.1895 7.74511C2.18041 7.73347 2.15919 7.73094 2.14303 7.72385C0.875858 11.5709 2.42485 16.3554 6.76476 18.4996C10.6835 20.4358 15.0193 19.0954 17.2198 16.5776C17.1668 16.5361 17.1143 16.4946 17.0617 16.4526C16.688 16.1519 16.4314 15.7763 16.3249 15.304C16.233 14.896 16.3057 14.5027 16.4249 14.1119C16.5481 13.7075 16.6926 13.3066 16.7754 12.8936C16.8673 12.4349 16.7653 12.2801 16.3314 12.1231C15.6496 11.8761 15.0173 11.538 14.4208 11.1315C13.939 10.803 13.6597 10.3606 13.6976 9.75417C13.7476 8.95591 14.0289 8.24117 14.537 7.63274C15.1683 6.87598 15.9693 6.58999 16.9375 6.89218C17.2067 6.97621 17.4764 7.06125 17.74 7.16198C18.1875 7.33257 18.6426 7.30979 19.1198 7.25714C18.7799 6.35208 18.3143 5.54167 17.7128 4.79251C17.3264 5.14229 16.8638 5.27592 16.3966 5.09724C15.8572 4.89071 15.3996 4.96968 14.9011 5.21417C14.4244 5.44803 13.9148 5.40854 13.5016 5.04257C13.2441 4.81428 13.0127 4.54094 12.8264 4.2514C12.588 3.88087 12.6052 3.46731 12.8739 3.1145C13.1299 2.7789 13.4335 2.47974 13.7168 2.16438C13.7633 2.11275 13.8102 2.06264 13.8673 2.00038C12.3304 1.43598 10.788 1.29425 9.18092 1.55848C9.28951 1.84751 9.39456 2.10263 9.48193 2.36281C9.66072 2.89684 9.89557 3.42277 9.9885 3.97249C10.1451 4.89831 9.80618 5.90107 8.54254 5.97548C8.20062 5.99572 7.91021 6.1081 7.64506 6.3293C7.26324 6.64769 6.81072 6.74589 6.31981 6.68414C6.17334 6.66592 6.02435 6.6568 5.87688 6.66288C5.77738 6.66693 5.6794 6.70439 5.54304 6.73577C5.61021 6.78538 5.63647 6.80562 5.66324 6.82435C6.15516 7.1716 6.71274 7.3356 7.30415 7.38622C8.32284 7.47379 9.03547 7.95467 9.36527 8.94883C9.40466 9.06829 9.46527 9.18015 9.52789 9.32138Z" fill="#131313"/>
</svg>
