<svg id="Layer_1" data-name="Layer 1" xmlns="http://www.w3.org/2000/svg" viewBox="0 0 66.31 87.07"><defs><style>.cls-1{fill:#4659a4;}</style></defs><path class="cls-1" d="M31.65,101.56v-87h5.1c0,1.83,0,3.63,0,5.44a1,1,0,0,0,.62,1,29.9,29.9,0,0,0,10,3.49,18.67,18.67,0,0,0,10.8-1.84c2.85-1.36,5.61-2.92,8.42-4.39a32.11,32.11,0,0,1,9.34-3.44,24.49,24.49,0,0,1,12.13,1,38,38,0,0,1,9.36,4.53,1.43,1.43,0,0,1,.58,1q0,22.91,0,45.82c0,.13,0,.26,0,.52l-3.24-2.14a33.79,33.79,0,0,0-9.75-4.46,19.37,19.37,0,0,0-14.16,1.66c-3.26,1.63-6.43,3.44-9.7,5.06a25.22,25.22,0,0,1-12.36,2.79,29.58,29.58,0,0,1-10.92-2.84l-1-.44v34.23Z" transform="translate(-31.65 -14.5)"/></svg>