<svg id="Layer_1" data-name="Layer 1" xmlns="http://www.w3.org/2000/svg" viewBox="0 0 64.34 84.4"><path d="M81.8,15.83c1.47.32,2.94.59,4.39,1a38.12,38.12,0,0,1,10.34,4.78c.48.3.45.69.45,1.12V67.48c-.44-.29-.78-.49-1.1-.72a41,41,0,0,0-9.62-5.14,19.21,19.21,0,0,0-15.7,1c-3.16,1.59-6.24,3.34-9.41,4.91a24.59,24.59,0,0,1-12,2.7A29.53,29.53,0,0,1,38.4,67.45c-.2-.09-.4-.19-.6-.27,0,0-.1,0-.2,0v33h-5V15.83h5c0,1.73,0,3.46,0,5.19a1.13,1.13,0,0,0,.77,1.24c1.4.62,2.77,1.33,4.19,1.89a18.84,18.84,0,0,0,12.94.72,46.45,46.45,0,0,0,8.53-4,40.9,40.9,0,0,1,9.67-4.26c1.22-.3,2.45-.51,3.68-.76ZM92,58.42V27.71c0-1,.33-2.29-.15-3s-1.84-1.1-2.83-1.58c-6.4-3.06-12.77-3.19-19.11.21-2.59,1.39-5.17,2.79-7.78,4.13a25.81,25.81,0,0,1-12.87,3.19,27.89,27.89,0,0,1-9.48-2.23c-.72-.29-1.44-.61-2.16-.92,0,.12,0,.15,0,.18q0,16.62,0,33.23a1,1,0,0,0,.46.73c1.66.8,3.3,1.64,5,2.28A18.92,18.92,0,0,0,52,65.19a23.16,23.16,0,0,0,7.72-2.45c3-1.55,6-3.23,9.05-4.72a23,23,0,0,1,16.4-1.89C87.44,56.74,89.69,57.63,92,58.42Z" transform="translate(-32.64 -15.83)"/></svg>