<svg id="Layer_1" data-name="Layer 1" xmlns="http://www.w3.org/2000/svg" viewBox="0 0 280.62 261.75"><path d="M54.71,284.89V212.57a6.08,6.08,0,0,0,.51-1.22,40.34,40.34,0,0,1,13.14-24.56c8.8-8,19.27-11.41,31.12-11,5.44.19,10.9,0,16.64,0V72.92c0-8.75,4.39-13.17,13.09-13.17q96.56,0,193.1-.09c7.16,0,13.05,4.65,13,13-.18,65.83-.09,131.66-.12,197.49a68.09,68.09,0,0,1-.55,8.44c-2.85,23.12-23.93,42.3-47.16,42.36-60.8.16-121.61.08-182.42.1-1.37,0-2.74,0-4.1.11A41.68,41.68,0,0,1,55.79,289C55.45,287.65,55.07,286.28,54.71,284.89Zm79.88,13.83H137q73.68,0,147.35,0a32.67,32.67,0,0,0,6.25-.48c13.18-2.59,22.39-14.64,22.36-27.88-.17-61.71-.08-123.42-.08-185.14V82.33H138.52V86q0,95.72,0,191.44a36.87,36.87,0,0,1-.43,7.36C137.13,289.42,135.81,293.93,134.59,298.72ZM116.12,198.28c-7,0-13.77-.16-20.49,0A19,19,0,0,0,77.18,217q-.24,31.6,0,63.22C77.25,292,88.35,301.8,102,298.31c8.45-2.17,14.13-9.88,14.15-18.91q.06-39.54,0-79.09Z" transform="translate(-54.71 -59.66)"/><path d="M225.44,205.46c-16.16,0-32.31.08-48.46,0a11,11,0,0,1-9.47-16.15c2.32-4.48,6.26-6.15,11.06-6.16,9.85,0,19.71,0,29.57,0h64.07c5.26,0,9.49,1.82,11.72,6.87a11,11,0,0,1-10,15.46C257.75,205.53,241.59,205.46,225.44,205.46Z" transform="translate(-54.71 -59.66)"/><path d="M212.26,151.75c-11.23,0-22.46-.21-33.68.08-6.22.17-12.15-4-12.35-11.08-.18-6.57,5-11.35,12.38-11.36,15.79,0,31.58,0,47.37,0,6.84,0,13.69-.12,20.53,0,8.55.18,14,8.05,10.79,15.49A10.55,10.55,0,0,1,247,151.73C235.44,151.78,223.85,151.75,212.26,151.75Z" transform="translate(-54.71 -59.66)"/><path d="M212.1,255.85c-11.69,0-23.37.05-35,0a10.8,10.8,0,0,1-10.61-9.21,11,11,0,0,1,7.48-12.42,16.11,16.11,0,0,1,4.58-.67q33.67-.06,67.35,0c7.74,0,12.76,5.15,12.2,12.24a10.74,10.74,0,0,1-10.64,10.07C235.64,255.9,223.87,255.85,212.1,255.85Z" transform="translate(-54.71 -59.66)"/></svg>