<svg id="Layer_1" data-name="Layer 1" xmlns="http://www.w3.org/2000/svg" viewBox="0 0 97.51 89.58"><defs><style>.cls-1{fill:#4659a4;}</style></defs><path class="cls-1" d="M39.84,102.7c.5-2,1-3.85,1.44-5.75a15.38,15.38,0,0,0,.18-3q0-39.57,0-79.14V13.24h72.07v1.19c0,25.51,0,51,0,76.53a11.69,11.69,0,0,1-9.24,11.53,13.89,13.89,0,0,1-2.58.2H39.84ZM77.4,64.14c6.67,0,13.35,0,20,0a4.54,4.54,0,0,0,4.15-6.39c-.92-2.09-2.67-2.84-4.85-2.84H58a4.73,4.73,0,0,0-4.57,2.55,4.53,4.53,0,0,0,3.91,6.67C64,64.18,70.72,64.14,77.4,64.14ZM72,41.94c4.79,0,9.58,0,14.37,0a4.38,4.38,0,0,0,4.25-2.82c1.33-3.08-.93-6.33-4.46-6.41-2.83-.06-5.66,0-8.49,0H58c-3,0-5.2,2-5.12,4.7A4.74,4.74,0,0,0,58,42C62.66,41.85,67.31,41.94,72,41.94Zm-.07,43c4.87,0,9.73,0,14.6,0a4.44,4.44,0,0,0,4.4-4.16c.23-2.93-1.85-5-5-5.06q-13.92,0-27.84,0A6.69,6.69,0,0,0,56.1,76,4.53,4.53,0,0,0,53,81.16,4.45,4.45,0,0,0,57.39,85C62.22,85,67.05,85,71.88,85Z" transform="translate(-16.06 -13.24)"/><path class="cls-1" d="M32.2,61.17V62q0,16.35,0,32.7a7.91,7.91,0,0,1-5.85,7.81A8,8,0,0,1,16.1,95Q16,82,16.11,68.9a7.83,7.83,0,0,1,7.62-7.71C26.51,61.11,29.29,61.17,32.2,61.17Z" transform="translate(-16.06 -13.24)"/></svg>