<svg width="16" height="17" viewBox="0 0 16 17" fill="none" xmlns="http://www.w3.org/2000/svg">
<g clip-path="url(#clip0_256_1734)">
<path d="M15.5 6.91064C15.5 9.91533 15.5 12.9247 15.5 15.9341C10.5031 15.9341 5.50625 15.9341 0.5 15.9341C0.5 12.9294 0.5 9.92002 0.5 6.91064C0.542188 6.88721 0.584375 6.86377 0.621875 6.83564C1.17969 6.40908 1.73281 5.97783 2.29531 5.55127C2.375 5.49033 2.40781 5.42939 2.40781 5.32627C2.40313 3.85908 2.40312 2.39658 2.40312 0.934082C6.13437 0.934082 9.86563 0.934082 13.5969 0.934082C13.5969 2.39658 13.5969 3.85908 13.5922 5.32627C13.5922 5.42939 13.625 5.49502 13.7047 5.55596C14.0656 5.82314 14.4172 6.10439 14.7734 6.37627C15.0172 6.55439 15.2563 6.73252 15.5 6.91064ZM3.28906 1.82002C3.28437 1.85752 3.28438 1.87627 3.28438 1.89502C3.28438 4.44971 3.28437 7.00439 3.27969 9.55439C3.27969 9.65283 3.33125 9.69033 3.39687 9.73252C4.89219 10.6747 6.38281 11.6169 7.87344 12.5638C7.97656 12.6294 8.0375 12.6153 8.13125 12.5591C9.6125 11.645 11.0984 10.731 12.5844 9.82627C12.6781 9.77002 12.7156 9.70908 12.7156 9.59658C12.7109 7.05596 12.7109 4.52002 12.7109 1.97939C12.7109 1.92783 12.7109 1.87627 12.7109 1.82471C9.56562 1.82002 6.42969 1.82002 3.28906 1.82002ZM14.6141 9.61064C14.5672 9.63877 14.5344 9.65283 14.5062 9.67158C12.3828 10.9747 10.2594 12.2778 8.13594 13.5856C8.0375 13.6466 7.96719 13.656 7.86406 13.5903C5.74531 12.2497 3.62656 10.9138 1.50313 9.57783C1.47031 9.55439 1.43281 9.54033 1.38594 9.51221C1.38594 11.3685 1.38594 13.206 1.38594 15.0528C5.79687 15.0528 10.2031 15.0528 14.6141 15.0528C14.6141 13.2388 14.6141 11.4341 14.6141 9.61064ZM13.6062 6.58252C13.6062 7.46377 13.6062 8.32158 13.6062 9.19814C13.9391 8.99189 14.2578 8.79971 14.5766 8.60283C14.6047 8.58408 14.6234 8.53252 14.6234 8.49502C14.6281 8.14814 14.6281 7.80127 14.6234 7.45439C14.6234 7.41689 14.6094 7.36064 14.5859 7.33721C14.2625 7.08408 13.9437 6.84033 13.6062 6.58252ZM2.39844 6.57783C2.06094 6.83564 1.74688 7.07471 1.4375 7.32314C1.40469 7.35127 1.38125 7.41221 1.38125 7.45908C1.37656 7.75439 1.38125 8.05439 1.37656 8.34971C1.37656 8.43408 1.40937 8.48096 1.475 8.52314C1.7 8.65908 1.92031 8.79971 2.14531 8.94033C2.225 8.99189 2.30469 9.03877 2.39844 9.09971C2.39844 8.24658 2.39844 7.42627 2.39844 6.57783Z" fill="black"/>
<path d="M9.78588 5.53257C9.48588 5.53257 9.20463 5.53257 8.91869 5.53257C8.86244 5.12476 8.60932 4.90444 8.23901 4.82007C7.84526 4.73101 7.48901 4.81538 7.21713 5.13413C6.97807 5.41538 7.02495 5.81382 7.32026 6.06226C7.52651 6.24038 7.77495 6.29663 8.03745 6.30132C8.63276 6.32007 9.12963 6.54976 9.48588 7.03257C10.0906 7.85288 9.74838 8.97319 8.77338 9.39976C8.76401 9.40444 8.75463 9.40444 8.74526 9.40913C8.64213 9.45132 8.49213 9.46538 8.44994 9.54038C8.39838 9.63413 8.4312 9.77476 8.4312 9.89663C8.4312 9.99038 8.4312 10.0794 8.4312 10.1826C8.13588 10.1826 7.84995 10.1826 7.54995 10.1826C7.54995 9.99976 7.54526 9.81694 7.54995 9.63882C7.55463 9.54507 7.52182 9.50757 7.42807 9.47944C6.81401 9.28257 6.38745 8.89819 6.22338 8.26069C6.20463 8.19507 6.19995 8.12476 6.19057 8.05913C6.18588 8.02632 6.19057 7.98882 6.19057 7.94663C6.47651 7.94663 6.76245 7.94663 7.0437 7.94663C7.2687 8.65913 8.04213 8.92632 8.6187 8.48101C9.00307 8.18101 9.00307 7.67944 8.61401 7.38413C8.41245 7.22944 8.17807 7.18726 7.92495 7.17788C7.32963 7.15444 6.83276 6.92476 6.47651 6.44194C5.89057 5.64507 6.20463 4.54819 7.13276 4.10757C7.20776 4.07007 7.28276 4.03257 7.36245 4.01851C7.51245 3.99507 7.55932 3.92007 7.54526 3.77007C7.5312 3.61538 7.54057 3.46069 7.54057 3.29663C7.8312 3.29663 8.11245 3.29663 8.42182 3.29663C8.42182 3.47007 8.42651 3.64351 8.41713 3.81694C8.41245 3.92476 8.44526 3.97163 8.55307 4.00913C9.19526 4.22007 9.62182 4.63257 9.75776 5.31694C9.76713 5.35444 9.76713 5.39194 9.77182 5.43413C9.79057 5.45288 9.78588 5.48569 9.78588 5.53257Z" fill="black"/>
</g>
<defs>
<clipPath id="clip0_256_1734">
<rect width="15" height="15" fill="white" transform="translate(0.5 0.934082)"/>
</clipPath>
</defs>
</svg>
