<svg id="Layer_1" data-name="Layer 1" xmlns="http://www.w3.org/2000/svg" viewBox="0 0 78.52 75.78"><defs><style>.cls-1{fill:#4659a4;}</style></defs><path class="cls-1" d="M82.88,76.22c-.15.43-.28.86-.44,1.29A6.88,6.88,0,0,1,78,81.75c-.23.08-.47.12-.8.2V66.74H74.47V82.06H60.39c1.62-2,1.47-4.37,1.46-6.67q0-4.4,0-8.81a19,19,0,0,0-.78-6.92h12a9.76,9.76,0,0,1,9.65,8.1,1.61,1.61,0,0,0,.15.33Z" transform="translate(-4.36 -6.35)"/><path class="cls-1" d="M63.26,42.53a19.66,19.66,0,1,0-39.27,0l-.69-.31a8.32,8.32,0,0,0-11.16,4.24.89.89,0,0,1-1,.62c-2.4,0-2.65-.25-2.65-2.62V37.65c0-1.34.52-1.85,1.87-1.85,2.17,0,4.34,0,6.52,0a.89.89,0,0,0,.69-.36c.52-1.44.9-2.92,1.48-4.33s1.34-2.74,2.07-4.18L18.44,24.2c-.81-.81-1.64-1.61-2.44-2.44a1.41,1.41,0,0,1,0-2.27c1.89-1.91,3.79-3.8,5.7-5.69a1.42,1.42,0,0,1,2.27,0c1.55,1.52,3.08,3.07,4.62,4.6.2.19.4.38.56.36l6.73-2.85.21-.08c.61-.18,1.47-.18,1.77-.59S38,14,38,13.34c0-1.71,0-3.43,0-5.14,0-1.33.52-1.84,1.87-1.84,2.51,0,5,0,7.52,0,1.4,0,1.9.5,1.91,1.88,0,2.12,0,4.24,0,6.36,0,.54.1.8.69.94a25.47,25.47,0,0,1,7.52,3.14l.63.34,5-5c1-1,1.7-1,2.72,0l5.26,5.26c1,1,1,1.64,0,2.66C69.53,23.49,68,25,66.45,26.55a.65.65,0,0,0-.12,1,25.06,25.06,0,0,1,3.2,7.66c.12.49.34.63.84.63,2.15,0,4.29,0,6.44,0,1.4,0,1.9.5,1.9,1.89v7.52c0,1.34-.53,1.79-1.85,1.88a1.84,1.84,0,0,1-2.07-1.2,8.23,8.23,0,0,0-10.61-3.76Z" transform="translate(-4.36 -6.35)"/><path class="cls-1" d="M53.44,82.1V62.52H50.66V82.05h-14V62.53H33.83V82a4.32,4.32,0,0,1-5.65-4c-.07-4.8-.11-9.61,0-14.41A9.75,9.75,0,0,1,37.8,54q5.79-.12,11.58,0A9.84,9.84,0,0,1,59.07,64c0,4.48,0,9,0,13.42a4.39,4.39,0,0,1-4.77,4.73Z" transform="translate(-4.36 -6.35)"/><path class="cls-1" d="M36.27,48.46c-2.57,0-5.07,0-7.57,0-.2,0-.49-.31-.58-.54-2.46-6.26-1.69-12.14,2.64-17.27A15.88,15.88,0,0,1,47.7,25.14C54.41,26.8,58.53,31.29,60.11,38a15.67,15.67,0,0,1-1,9.89,1,1,0,0,1-.65.54c-2.48,0-5,0-7.49,0,1.95-4.73,1.2-8.72-3.25-11.51a8.16,8.16,0,0,0-9.44.79C35.23,40.29,34.59,43.58,36.27,48.46Z" transform="translate(-4.36 -6.35)"/><path class="cls-1" d="M26.83,82.05h-14V66.76H10V81.88a2.51,2.51,0,0,1-.59,0A7,7,0,0,1,4.37,75.2q0-3,0-6a9.78,9.78,0,0,1,9.53-9.56c3.81,0,7.62,0,11.42,0,.25,0,.5,0,.82,0-.94,2.6-.73,5.24-.74,7.86,0,2.78,0,5.57,0,8.35C25.37,78,25.37,80.16,26.83,82.05Z" transform="translate(-4.36 -6.35)"/><path class="cls-1" d="M25.39,49.88a5.61,5.61,0,1,1-5.61-5.68A5.63,5.63,0,0,1,25.39,49.88Z" transform="translate(-4.36 -6.35)"/><path class="cls-1" d="M43.59,38.63A5.61,5.61,0,1,1,38,44.23,5.63,5.63,0,0,1,43.59,38.63Z" transform="translate(-4.36 -6.35)"/><path class="cls-1" d="M61.85,49.85a5.61,5.61,0,1,1,5.57,5.64A5.64,5.64,0,0,1,61.85,49.85Z" transform="translate(-4.36 -6.35)"/></svg>