<svg width="16" height="18" viewBox="0 0 16 18" fill="none" xmlns="http://www.w3.org/2000/svg">
<g clip-path="url(#clip0_214_1062)">
<path d="M6.214 0.434082C6.45334 0.494376 6.6988 0.53206 6.92893 0.616473C8.11179 1.04908 8.8574 2.10876 8.87274 3.3659C8.87735 3.6749 8.87274 3.98391 8.87274 4.308C9.67665 4.308 10.4622 4.308 11.2676 4.308C11.3658 5.96006 11.464 7.59705 11.5606 9.225C11.8767 9.24912 12.1804 9.25515 12.4781 9.29736C14.3421 9.55964 15.8333 11.1243 15.9837 12.9648C16.1632 15.158 14.6612 17.0603 12.4459 17.3828C10.9776 17.5969 9.72882 17.1221 8.72086 16.0503C8.64108 15.9644 8.56591 15.9282 8.44777 15.9282C6.5055 15.9312 4.56169 15.9358 2.61941 15.9282C1.57156 15.9252 0.786061 15.464 0.281315 14.5595C0.0680634 14.1782 -0.0224534 13.7606 0.000559348 13.328C0.0788027 11.9367 0.166251 10.5454 0.249097 9.15265C0.321204 7.93772 0.391776 6.72279 0.463883 5.50785C0.486896 5.11594 0.511442 4.72553 0.535989 4.31403C1.33376 4.31403 2.12387 4.31403 2.93238 4.31403C2.93238 3.97939 2.92778 3.66586 2.93392 3.35233C2.94926 2.41626 3.32513 1.64901 4.06615 1.06114C4.48191 0.735554 4.95597 0.539597 5.47913 0.464229C5.51135 0.459707 5.5405 0.444634 5.57118 0.434082C5.78597 0.434082 5.99922 0.434082 6.214 0.434082ZM2.94005 5.32245C2.44298 5.32245 1.97352 5.32245 1.50099 5.32245C1.49485 5.35712 1.48872 5.37822 1.48872 5.39932C1.40741 6.78007 1.32609 8.1593 1.24478 9.54004C1.17268 10.755 1.11131 11.9699 1.02539 13.1833C0.951753 14.2129 1.61452 14.9349 2.66697 14.9349C4.37298 14.9364 6.07899 14.9349 7.78501 14.9349C7.84484 14.9349 7.90467 14.9349 7.9599 14.9349C7.96757 14.9047 7.97371 14.8927 7.97218 14.8836C7.95837 14.8369 7.94149 14.7887 7.92462 14.7419C7.68528 14.0953 7.59784 13.429 7.71597 12.7507C7.99212 11.165 8.90343 10.0752 10.4284 9.48879C10.5343 9.44809 10.5573 9.40136 10.5511 9.29585C10.4852 8.23015 10.4253 7.16444 10.364 6.09874C10.3486 5.83947 10.3302 5.58171 10.3118 5.31793C9.82854 5.31793 9.35908 5.31793 8.87121 5.31793C8.87121 5.72944 8.87121 6.13039 8.87121 6.53587C8.52448 6.53587 8.1977 6.53587 7.85251 6.53587C7.85251 6.12135 7.85251 5.72039 7.85251 5.32094C6.54385 5.32094 5.25207 5.32094 3.94494 5.32094C3.94494 5.73546 3.94494 6.13642 3.94494 6.54039C3.60436 6.54039 3.28064 6.54039 2.94005 6.54039C2.94005 6.13341 2.94005 5.73245 2.94005 5.32245ZM11.8429 16.4377C13.575 16.4362 14.9926 15.0434 14.9941 13.3416C14.9957 11.6353 13.5673 10.2319 11.8337 10.2364C10.1001 10.241 8.68557 11.6323 8.6825 13.3341C8.68097 15.0449 10.1016 16.4392 11.8429 16.4377ZM7.85865 4.30498C7.85865 3.96432 7.86785 3.63873 7.85711 3.31465C7.82796 2.46299 7.27105 1.74699 6.46561 1.51184C5.64942 1.27368 4.78568 1.57968 4.29474 2.26552C3.84522 2.89259 3.96949 3.60255 3.95415 4.30498C5.25821 4.30498 6.54539 4.30498 7.85865 4.30498Z" fill="#383751"/>
<path d="M9.64087 13.3401C9.89861 13.1155 10.1425 12.9029 10.4003 12.6799C10.7056 13.019 11.0063 13.3521 11.3208 13.7003C11.959 13.0522 12.5865 12.4131 13.2247 11.7649C13.4533 12.0121 13.6758 12.2518 13.909 12.502C13.0636 13.3612 12.183 14.2581 11.2886 15.1685C10.7347 14.555 10.1947 13.9566 9.64087 13.3401Z" fill="#383751"/>
</g>
<defs>
<clipPath id="clip0_214_1062">
<rect width="16" height="17" fill="white" transform="translate(0 0.434082)"/>
</clipPath>
</defs>
</svg>
