<svg width="17" height="18" viewBox="0 0 17 18" fill="none" xmlns="http://www.w3.org/2000/svg">
<g clip-path="url(#clip0_214_1031)">
<path d="M3.24808 17.4337C3.08464 17.3717 2.90524 17.3345 2.75774 17.2477C2.25943 16.9583 2.00429 16.5077 2.00031 15.9165C1.99632 14.6101 2.00031 13.3036 2.00031 12.0013C2.00031 8.97508 2.00031 5.94882 2.00031 2.92255C2.00031 2.10811 2.49463 1.49624 3.26403 1.38461C3.49126 1.34741 3.72248 1.36808 3.9537 1.36808C4.34437 1.36808 4.73106 1.37221 5.12174 1.36394C5.18951 1.36394 5.27722 1.32673 5.32505 1.27712C5.85127 0.723135 6.48114 0.442007 7.2306 0.437873C8.07973 0.433738 8.92487 0.437873 9.774 0.437873C10.5195 0.437873 11.1533 0.723135 11.6795 1.27299C11.7274 1.3226 11.8151 1.35981 11.8829 1.36394C12.4171 1.37221 12.9512 1.36808 13.4814 1.36808C14.3824 1.36808 15.0003 2.00475 15.0003 2.93909C15.0003 7.24283 15.0003 11.5466 15.0003 15.8503C15.0003 16.673 14.5698 17.227 13.7924 17.4089C13.7764 17.4131 13.7645 17.4255 13.7485 17.4296C10.2484 17.4337 6.74824 17.4337 3.24808 17.4337ZM4.6912 2.3727C4.67924 2.36856 4.67127 2.36443 4.65931 2.36443C4.29255 2.36443 3.9218 2.36443 3.55504 2.36443C3.13646 2.36443 2.96106 2.54634 2.96106 2.9763C2.96106 7.25937 2.96106 11.5383 2.96106 15.8214C2.96106 16.2513 3.13646 16.4374 3.55504 16.4374C6.8479 16.4374 10.1368 16.4374 13.4296 16.4374C13.8681 16.4374 14.0396 16.2596 14.0396 15.809C14.0396 11.5383 14.0396 7.26764 14.0396 2.99697C14.0396 2.95976 14.0396 2.91842 14.0396 2.88121C14.0316 2.57941 13.8323 2.3727 13.5412 2.36856C13.2741 2.36443 13.0071 2.36856 12.74 2.36856C12.5925 2.36856 12.445 2.36856 12.3094 2.36856C12.3373 2.61662 12.3732 2.84814 12.3852 3.07552C12.4051 3.41866 12.2018 3.62951 11.8709 3.62951C9.6265 3.62951 7.37811 3.62951 5.1337 3.62951C4.79485 3.62951 4.59951 3.41453 4.61944 3.05898C4.6314 2.8316 4.66329 2.60835 4.6912 2.3727ZM11.3487 2.62075C11.3287 2.56287 11.3128 2.50913 11.2929 2.46365C10.9979 1.81044 10.5035 1.45076 9.81386 1.43836C8.94082 1.42182 8.06378 1.43422 7.19074 1.43422C7.09108 1.43422 6.98743 1.44663 6.88776 1.4673C6.31769 1.57065 5.77553 2.07917 5.65992 2.62075C7.55351 2.62075 9.44312 2.62075 11.3487 2.62075Z" fill="black"/>
<path d="M9.05215 7.36301C9.43486 6.97026 9.8056 6.58991 10.1843 6.20129C10.1484 6.19302 10.1166 6.18889 10.0847 6.18062C9.85743 6.13514 9.69398 5.94084 9.68601 5.70932C9.67804 5.46953 9.83351 5.25455 10.0687 5.20907C10.1843 5.1884 10.2999 5.19254 10.4195 5.1884C10.7185 5.18427 11.0175 5.18427 11.3165 5.1884C11.6713 5.19254 11.8626 5.38685 11.8626 5.75479C11.8626 6.11861 11.8626 6.48656 11.8626 6.85037C11.8626 7.20591 11.7112 7.41676 11.4361 7.44983C11.1451 7.48291 10.9537 7.301 10.8859 6.92065C10.8381 6.96613 10.7943 7.00747 10.7544 7.04881C10.3238 7.49531 9.89729 7.94181 9.46675 8.38831C9.20763 8.65703 8.94452 8.65703 8.68539 8.38831C8.22296 7.90873 7.75654 7.42916 7.28214 6.93719C7.23829 6.97853 7.19444 7.01987 7.15458 7.06122C6.73998 7.49118 6.32937 7.92527 5.91079 8.3511C5.62774 8.64049 5.18923 8.52887 5.08957 8.14025C5.04571 7.96661 5.08558 7.80538 5.20517 7.68135C5.78322 7.07775 6.36126 6.47002 6.94329 5.87469C7.15059 5.66384 7.42566 5.67624 7.64093 5.89949C8.05553 6.32532 8.46215 6.75115 8.87276 7.17697C8.93654 7.23899 8.99634 7.301 9.05215 7.36301Z" fill="black"/>
<path d="M10.1325 10.7489C10.7663 10.7489 11.4002 10.7448 12.034 10.7489C12.4207 10.753 12.6479 11.1375 12.4725 11.4765C12.3649 11.6791 12.1895 11.7453 11.9782 11.7453C10.9018 11.7453 9.82549 11.7453 8.74914 11.7453C8.57772 11.7453 8.4063 11.7453 8.23886 11.7453C7.91994 11.7411 7.70068 11.5303 7.70068 11.2409C7.70467 10.9515 7.91595 10.7489 8.23089 10.7489C8.86474 10.7489 9.4986 10.7489 10.1325 10.7489Z" fill="black"/>
<path d="M10.1245 13.6099C10.7464 13.6099 11.3723 13.6099 11.9942 13.6099C12.3171 13.6099 12.5324 13.8124 12.5324 14.1101C12.5284 14.3995 12.3131 14.6062 12.0022 14.6062C10.7464 14.6062 9.48669 14.6062 8.23094 14.6062C7.92398 14.6062 7.70472 14.3995 7.70074 14.1101C7.69675 13.8166 7.91202 13.614 8.22297 13.6099C8.85682 13.6099 9.49068 13.6099 10.1245 13.6099Z" fill="black"/>
<path d="M5.40842 11.1045C5.65558 10.8482 5.86687 10.6249 6.08214 10.4017C6.31734 10.1578 6.5964 10.1371 6.8037 10.3479C7.01498 10.5588 6.99903 10.8606 6.75984 11.1086C6.44491 11.4394 6.12998 11.766 5.81105 12.0926C5.55592 12.3572 5.28882 12.353 5.0297 12.0884C4.8822 11.9355 4.7347 11.7866 4.59118 11.6295C4.38389 11.4063 4.3799 11.1045 4.57524 10.9019C4.77058 10.7035 5.06159 10.7117 5.27288 10.9267C5.32071 10.9722 5.35659 11.0301 5.40842 11.1045Z" fill="black"/>
<path d="M5.40858 13.9653C5.65574 13.7049 5.87102 13.4816 6.0823 13.2584C6.31352 13.0186 6.60055 12.9979 6.80386 13.2005C7.01116 13.4114 6.99521 13.7173 6.76001 13.9612C6.44109 14.2961 6.12217 14.6268 5.79926 14.9576C5.55608 15.2056 5.285 15.2056 5.04182 14.9534C4.89432 14.8046 4.74283 14.6475 4.59533 14.4904C4.38804 14.2713 4.38405 13.9653 4.57939 13.7669C4.77473 13.5643 5.06176 13.5726 5.27703 13.7917C5.32088 13.833 5.35277 13.8909 5.40858 13.9653Z" fill="black"/>
</g>
<defs>
<clipPath id="clip0_214_1031">
<rect width="13" height="17" fill="white" transform="translate(2 0.434082)"/>
</clipPath>
</defs>
</svg>
