<svg width="16" height="17" viewBox="0 0 16 17" fill="none" xmlns="http://www.w3.org/2000/svg">
<g clip-path="url(#clip0_214_1207)">
<path d="M8.0607 0.973731C8.27484 0.973731 8.49135 0.966602 8.70549 0.976108C9.07903 0.990366 9.34551 1.28267 9.33599 1.65815C9.32648 1.9956 9.03621 2.2784 8.67932 2.27127C7.77519 2.25226 6.87345 2.28553 6.01216 2.58496C3.42113 3.48801 1.84606 5.28459 1.42968 7.99849C0.88959 11.5346 3.28551 14.807 6.82349 15.4581C10.4233 16.1212 13.8899 13.7162 14.5466 10.1064C14.6917 9.30316 14.6679 8.5118 14.5276 7.71332C14.4609 7.32596 14.7131 6.97424 15.0795 6.92434C15.4912 6.86968 15.7957 7.11683 15.8671 7.53271C16.1478 9.14631 15.986 10.7124 15.2984 12.1953C14.1112 14.7547 12.1197 16.3327 9.33361 16.8151C5.11755 17.547 1.118 14.8355 0.192465 10.672C-0.76876 6.35399 2.00309 2.06452 6.35001 1.14721C6.56652 1.10206 6.78304 1.05453 7.00431 1.03314C7.35644 0.997496 7.70857 0.983237 8.0607 0.959473C8.0607 0.964226 8.0607 0.968978 8.0607 0.973731Z" fill="#383751"/>
<path d="M7.23715 5.21208C7.23715 4.92117 7.23443 4.64385 7.23715 4.36653C7.2426 3.92336 7.56924 3.60254 8.00749 3.60798C8.42669 3.6107 8.75334 3.93696 8.75878 4.36381C8.7615 4.64113 8.75878 4.91573 8.75878 5.20936C9.46651 5.30452 10.0681 5.59272 10.5363 6.12289C10.8629 6.49265 11.0371 6.92494 11.0426 7.41976C11.0453 7.79768 10.7459 8.13209 10.3811 8.16744C9.98915 8.20822 9.5754 7.96625 9.54545 7.59105C9.49646 6.99563 9.1072 6.80531 8.62268 6.70743C8.15176 6.61227 7.6754 6.62587 7.20721 6.74278C6.78529 6.84881 6.48314 7.12069 6.47498 7.39801C6.46681 7.67805 6.7744 7.98256 7.20993 8.06956C7.52569 8.13209 7.85234 8.15384 8.17626 8.16744C8.79417 8.19191 9.3903 8.30066 9.92382 8.63236C10.6043 9.05649 11.0263 9.65191 11.0371 10.4784C11.048 11.3321 10.4764 12.0989 9.5754 12.4523C9.31408 12.5556 9.03643 12.6236 8.75334 12.7106C8.75334 12.9689 8.75606 13.2299 8.75334 13.4909C8.75334 13.9341 8.42941 14.2603 7.9966 14.2603C7.56652 14.2603 7.2426 13.9313 7.23987 13.4882C7.23715 13.2272 7.23987 12.9662 7.23987 12.7677C6.82068 12.591 6.41237 12.4713 6.06122 12.262C5.3916 11.8623 4.98057 11.2669 4.95879 10.4621C4.9479 10.057 5.26366 9.7226 5.65292 9.70085C6.083 9.67638 6.44231 9.96458 6.47498 10.3806C6.49948 10.6959 6.67369 10.9053 6.94317 11.014C7.64818 11.2995 8.36136 11.2914 9.07182 11.0168C9.07998 11.014 9.08543 11.0086 9.09359 11.0059C9.61351 10.6959 9.67339 10.3371 9.13987 9.97545C8.77783 9.73076 8.35047 9.73348 7.93128 9.68998C7.46308 9.64104 6.97856 9.59754 6.54031 9.44256C6.18099 9.31478 5.82441 9.08096 5.55764 8.80636C4.65664 7.87924 4.79002 6.57693 5.82441 5.78575C6.22999 5.46765 6.69546 5.28277 7.23715 5.21208Z" fill="#383751"/>
<path d="M13.4894 2.60251C13.8593 2.23726 14.1979 1.90107 14.5366 1.56487C14.8067 1.29509 15.0748 1.0253 15.3449 0.755516C15.6254 0.475354 15.9806 0.452526 16.2279 0.695333C16.4772 0.944365 16.4544 1.30339 16.1676 1.59185C15.6025 2.15632 15.0374 2.71872 14.4701 3.28112C14.4286 3.32263 14.3912 3.36621 14.3247 3.43677C14.6426 3.43677 14.9231 3.43677 15.2036 3.43677C15.5568 3.43884 15.8123 3.67957 15.8123 4.01369C15.8144 4.34989 15.563 4.59684 15.2098 4.59684C14.4473 4.59892 13.6847 4.59892 12.9222 4.59684C12.5732 4.59684 12.3259 4.35196 12.3238 4.00747C12.3217 3.23339 12.3217 2.45931 12.3238 1.68731C12.3259 1.36149 12.5773 1.11661 12.8994 1.11454C13.2318 1.11246 13.4811 1.35942 13.4853 1.69561C13.4915 1.98615 13.4894 2.27461 13.4894 2.60251Z" fill="#383751"/>
</g>
<defs>
<clipPath id="clip0_214_1207">
<rect width="16" height="16" fill="white" transform="translate(0 0.934082)"/>
</clipPath>
</defs>
</svg>
