<svg width="16" height="16" viewBox="0 0 16 16" fill="none" xmlns="http://www.w3.org/2000/svg">
<g clip-path="url(#clip0_214_937)">
<path d="M8 9.80908C9.03553 9.80908 9.875 8.96962 9.875 7.93408C9.875 6.89855 9.03553 6.05908 8 6.05908C6.96447 6.05908 6.125 6.89855 6.125 7.93408C6.125 8.96962 6.96447 9.80908 8 9.80908Z" stroke="black" stroke-linecap="round" stroke-linejoin="round"/>
<path d="M12.625 9.80908C12.5418 9.99759 12.517 10.2067 12.5537 10.4094C12.5905 10.6122 12.6872 10.7993 12.8312 10.9466L12.8688 10.9841C12.985 11.1002 13.0772 11.238 13.1401 11.3898C13.203 11.5415 13.2354 11.7042 13.2354 11.8685C13.2354 12.0327 13.203 12.1954 13.1401 12.3471C13.0772 12.4989 12.985 12.6367 12.8688 12.7528C12.7527 12.8691 12.6148 12.9613 12.4631 13.0242C12.3113 13.0871 12.1486 13.1194 11.9844 13.1194C11.8201 13.1194 11.6574 13.0871 11.5057 13.0242C11.354 12.9613 11.2161 12.8691 11.1 12.7528L11.0625 12.7153C10.9152 12.5712 10.7281 12.4746 10.5254 12.4378C10.3226 12.4011 10.1135 12.4259 9.925 12.5091C9.74014 12.5883 9.58249 12.7199 9.47144 12.8875C9.36039 13.0552 9.3008 13.2517 9.3 13.4528V13.5591C9.3 13.8906 9.1683 14.2085 8.93388 14.443C8.69946 14.6774 8.38152 14.8091 8.05 14.8091C7.71848 14.8091 7.40054 14.6774 7.16612 14.443C6.9317 14.2085 6.8 13.8906 6.8 13.5591V13.5028C6.79516 13.296 6.7282 13.0953 6.60782 12.927C6.48744 12.7587 6.31921 12.6305 6.125 12.5591C5.93649 12.4759 5.72738 12.4511 5.52463 12.4878C5.32189 12.5246 5.1348 12.6212 4.9875 12.7653L4.95 12.8028C4.83391 12.9191 4.69605 13.0113 4.5443 13.0742C4.39255 13.1371 4.22989 13.1694 4.06562 13.1694C3.90136 13.1694 3.7387 13.1371 3.58695 13.0742C3.4352 13.0113 3.29734 12.9191 3.18125 12.8028C3.06503 12.6867 2.97283 12.5489 2.90993 12.3971C2.84702 12.2454 2.81464 12.0827 2.81464 11.9185C2.81464 11.7542 2.84702 11.5915 2.90993 11.4398C2.97283 11.288 3.06503 11.1502 3.18125 11.0341L3.21875 10.9966C3.36284 10.8493 3.45949 10.6622 3.49625 10.4594C3.53301 10.2567 3.5082 10.0476 3.425 9.85908C3.34577 9.67423 3.21422 9.51657 3.04654 9.40552C2.87886 9.29448 2.68237 9.23488 2.48125 9.23408H2.375C2.04348 9.23408 1.72554 9.10239 1.49112 8.86797C1.2567 8.63354 1.125 8.3156 1.125 7.98408C1.125 7.65256 1.2567 7.33462 1.49112 7.1002C1.72554 6.86578 2.04348 6.73408 2.375 6.73408H2.43125C2.63812 6.72924 2.83875 6.66228 3.00706 6.5419C3.17537 6.42152 3.30357 6.25329 3.375 6.05908C3.4582 5.87057 3.48301 5.66146 3.44625 5.45871C3.40949 5.25597 3.31284 5.06888 3.16875 4.92158L3.13125 4.88408C3.01503 4.76799 2.92283 4.63013 2.85993 4.47838C2.79702 4.32663 2.76464 4.16398 2.76464 3.99971C2.76464 3.83544 2.79702 3.67278 2.85993 3.52103C2.92283 3.36928 3.01503 3.23142 3.13125 3.11533C3.24734 2.99911 3.3852 2.90691 3.53695 2.84401C3.6887 2.7811 3.85136 2.74872 4.01562 2.74872C4.17989 2.74872 4.34255 2.7811 4.4943 2.84401C4.64605 2.90691 4.78391 2.99911 4.9 3.11533L4.9375 3.15283C5.0848 3.29692 5.27188 3.39357 5.47463 3.43033C5.67738 3.4671 5.88649 3.44228 6.075 3.35908H6.125C6.30986 3.27986 6.46751 3.1483 6.57856 2.98062C6.68961 2.81294 6.7492 2.61645 6.75 2.41533V2.30908C6.75 1.97756 6.8817 1.65962 7.11612 1.4252C7.35054 1.19078 7.66848 1.05908 8 1.05908C8.33152 1.05908 8.64946 1.19078 8.88388 1.4252C9.1183 1.65962 9.25 1.97756 9.25 2.30908V2.36533C9.2508 2.56645 9.31039 2.76294 9.42144 2.93062C9.53249 3.0983 9.69014 3.22986 9.875 3.30908C10.0635 3.39228 10.2726 3.4171 10.4754 3.38033C10.6781 3.34357 10.8652 3.24692 11.0125 3.10283L11.05 3.06533C11.1661 2.94911 11.304 2.85691 11.4557 2.79401C11.6074 2.7311 11.7701 2.69872 11.9344 2.69872C12.0986 2.69872 12.2613 2.7311 12.4131 2.79401C12.5648 2.85691 12.7027 2.94911 12.8187 3.06533C12.935 3.18142 13.0272 3.31928 13.0901 3.47103C13.153 3.62278 13.1854 3.78544 13.1854 3.94971C13.1854 4.11398 13.153 4.27663 13.0901 4.42838C13.0272 4.58013 12.935 4.71799 12.8187 4.83408L12.7812 4.87158C12.6372 5.01888 12.5405 5.20597 12.5037 5.40871C12.467 5.61146 12.4918 5.82057 12.575 6.00908V6.05908C12.6542 6.24394 12.7858 6.40159 12.9535 6.51264C13.1211 6.62369 13.3176 6.68328 13.5187 6.68408H13.625C13.9565 6.68408 14.2745 6.81578 14.5089 7.0502C14.7433 7.28462 14.875 7.60256 14.875 7.93408C14.875 8.2656 14.7433 8.58354 14.5089 8.81797C14.2745 9.05239 13.9565 9.18408 13.625 9.18408H13.5687C13.3676 9.18488 13.1711 9.24448 13.0035 9.35552C12.8358 9.46657 12.7042 9.62423 12.625 9.80908Z" stroke="black" stroke-linecap="round" stroke-linejoin="round"/>
</g>
<defs>
<clipPath id="clip0_214_937">
<rect width="15" height="15" fill="white" transform="translate(0.5 0.434082)"/>
</clipPath>
</defs>
</svg>
