<svg width="20" height="20" viewBox="0 0 20 20" fill="none" xmlns="http://www.w3.org/2000/svg">
<path d="M17.4308 10.98C17.4708 10.66 17.5008 10.34 17.5008 10C17.5008 9.66 17.4708 9.34 17.4308 9.02L19.5408 7.37C19.7308 7.22 19.7808 6.95 19.6608 6.73L17.6608 3.27C17.5708 3.11 17.4008 3.02 17.2208 3.02C17.1608 3.02 17.1008 3.03 17.0508 3.05L14.5608 4.05C14.0408 3.65 13.4808 3.32 12.8708 3.07L12.4908 0.42C12.4608 0.18 12.2508 0 12.0008 0H8.00082C7.75082 0 7.54082 0.18 7.51082 0.42L7.13082 3.07C6.52082 3.32 5.96082 3.66 5.44082 4.05L2.95082 3.05C2.89082 3.03 2.83082 3.02 2.77082 3.02C2.60082 3.02 2.43082 3.11 2.34082 3.27L0.340816 6.73C0.210816 6.95 0.270816 7.22 0.460816 7.37L2.57082 9.02C2.53082 9.34 2.50082 9.67 2.50082 10C2.50082 10.33 2.53082 10.66 2.57082 10.98L0.460816 12.63C0.270816 12.78 0.220816 13.05 0.340816 13.27L2.34082 16.73C2.43082 16.89 2.60082 16.98 2.78082 16.98C2.84082 16.98 2.90082 16.97 2.95082 16.95L5.44082 15.95C5.96082 16.35 6.52082 16.68 7.13082 16.93L7.51082 19.58C7.54082 19.82 7.75082 20 8.00082 20H12.0008C12.2508 20 12.4608 19.82 12.4908 19.58L12.8708 16.93C13.4808 16.68 14.0408 16.34 14.5608 15.95L17.0508 16.95C17.1108 16.97 17.1708 16.98 17.2308 16.98C17.4008 16.98 17.5708 16.89 17.6608 16.73L19.6608 13.27C19.7808 13.05 19.7308 12.78 19.5408 12.63L17.4308 10.98V10.98ZM15.4508 9.27C15.4908 9.58 15.5008 9.79 15.5008 10C15.5008 10.21 15.4808 10.43 15.4508 10.73L15.3108 11.86L16.2008 12.56L17.2808 13.4L16.5808 14.61L15.3108 14.1L14.2708 13.68L13.3708 14.36C12.9408 14.68 12.5308 14.92 12.1208 15.09L11.0608 15.52L10.9008 16.65L10.7008 18H9.30082L9.11082 16.65L8.95082 15.52L7.89082 15.09C7.46082 14.91 7.06082 14.68 6.66082 14.38L5.75082 13.68L4.69082 14.11L3.42082 14.62L2.72082 13.41L3.80082 12.57L4.69082 11.87L4.55082 10.74C4.52082 10.43 4.50082 10.2 4.50082 10C4.50082 9.8 4.52082 9.57 4.55082 9.27L4.69082 8.14L3.80082 7.44L2.72082 6.6L3.42082 5.39L4.69082 5.9L5.73082 6.32L6.63082 5.64C7.06082 5.32 7.47082 5.08 7.88082 4.91L8.94082 4.48L9.10082 3.35L9.30082 2H10.6908L10.8808 3.35L11.0408 4.48L12.1008 4.91C12.5308 5.09 12.9308 5.32 13.3308 5.62L14.2408 6.32L15.3008 5.89L16.5708 5.38L17.2708 6.59L16.2008 7.44L15.3108 8.14L15.4508 9.27ZM10.0008 6C7.79082 6 6.00082 7.79 6.00082 10C6.00082 12.21 7.79082 14 10.0008 14C12.2108 14 14.0008 12.21 14.0008 10C14.0008 7.79 12.2108 6 10.0008 6ZM10.0008 12C8.90082 12 8.00082 11.1 8.00082 10C8.00082 8.9 8.90082 8 10.0008 8C11.1008 8 12.0008 8.9 12.0008 10C12.0008 11.1 11.1008 12 10.0008 12Z" fill="black"/>
</svg>
