<svg width="20" height="15" viewBox="0 0 20 15" fill="none" xmlns="http://www.w3.org/2000/svg">
<path d="M7 9.33167C4.66 9.33167 0 10.5017 0 12.8317V14.5817H14V12.8317C14 10.5017 9.34 9.33167 7 9.33167ZM2.34 12.5817C3.18 12.0017 5.21 11.3317 7 11.3317C8.79 11.3317 10.82 12.0017 11.66 12.5817H2.34ZM7 7.58167C8.93 7.58167 10.5 6.01166 10.5 4.08167C10.5 2.15167 8.93 0.581665 7 0.581665C5.07 0.581665 3.5 2.15167 3.5 4.08167C3.5 6.01166 5.07 7.58167 7 7.58167ZM7 2.58167C7.83 2.58167 8.5 3.25167 8.5 4.08167C8.5 4.91167 7.83 5.58167 7 5.58167C6.17 5.58167 5.5 4.91167 5.5 4.08167C5.5 3.25167 6.17 2.58167 7 2.58167ZM14.04 9.39167C15.2 10.2317 16 11.3517 16 12.8317V14.5817H20V12.8317C20 10.8117 16.5 9.66167 14.04 9.39167V9.39167ZM13 7.58167C14.93 7.58167 16.5 6.01166 16.5 4.08167C16.5 2.15167 14.93 0.581665 13 0.581665C12.46 0.581665 11.96 0.711665 11.5 0.931665C12.13 1.82166 12.5 2.91167 12.5 4.08167C12.5 5.25166 12.13 6.34166 11.5 7.23166C11.96 7.45166 12.46 7.58167 13 7.58167Z" fill="black"/>
</svg>
