<svg id="Layer_1" data-name="Layer 1" xmlns="http://www.w3.org/2000/svg" viewBox="0 0 73.82 73.88"><path d="M35,78.62V61.47h2.41V81.18a35.83,35.83,0,0,1-5.1-.3A5.89,5.89,0,0,1,27.66,75c0-4.15,0-8.3,0-12.45A31.77,31.77,0,0,1,28.1,59c-.27,0-.59-.06-.92-.06h-9a8.62,8.62,0,0,0-9,9,53.53,53.53,0,0,0,.17,5.67,5.73,5.73,0,0,0,4.72,4.76V65.16h2.47V78.6h11V81a1.1,1.1,0,0,1-.26.06c-4.15,0-8.3.06-12.45,0a8.38,8.38,0,0,1-8.07-7.63A42.58,42.58,0,0,1,7,65.7a10.69,10.69,0,0,1,9.24-9,54.22,54.22,0,0,1,6-.16c2.3,0,4.6.09,6.9.11a.9.9,0,0,0,.6-.34,11.08,11.08,0,0,1,9.5-4.7c3,0,6.09,0,9.14,0a11,11,0,0,1,9.24,4.63,1.09,1.09,0,0,0,.71.4c.81,0,1.63-.1,2.44-.1q4.31,0,8.61,0A11.07,11.07,0,0,1,80.53,67.75v4.84a8.5,8.5,0,0,1-8.2,8.48c-4.1.1-8.2,0-12.3,0l-.35,0V78.64h11V65.15h2.47V78.42a5.51,5.51,0,0,0,4.69-4.53,32.28,32.28,0,0,0-.08-8.16c-.65-4-4-6.62-8.19-6.73-3.28-.09-6.56,0-9.84,0a4.2,4.2,0,0,0-.51.07c.82,5.51.33,11,.37,16.49,0,2.86-2.72,5.41-5.61,5.53-1.35.05-2.71,0-4.12,0V61.46h2.37v17a3.79,3.79,0,0,0,4.94-3.59c0-4.13.06-8.25,0-12.38a8.45,8.45,0,0,0-8.21-8.4,97.82,97.82,0,0,0-10.83,0,8.29,8.29,0,0,0-7.95,8.21c-.13,4.22-.07,8.45,0,12.68a3.62,3.62,0,0,0,3.75,3.57Z" transform="translate(-6.71 -7.3)"/><path d="M20.91,28.21q-1.61-1.56-3.18-3.13a3.7,3.7,0,0,1,0-5.63c1.58-1.59,3.18-3.19,4.78-4.78a3.76,3.76,0,0,1,5.7,0c.92.89,1.84,1.79,2.71,2.72a.72.72,0,0,0,1,.15c1.25-.57,2.52-1.11,3.81-1.6a.68.68,0,0,0,.54-.76c0-1.38,0-2.76,0-4.15A3.66,3.66,0,0,1,40,7.32q3.69,0,7.38,0A3.66,3.66,0,0,1,51,11c0,1.39,0,2.77,0,4.15a.67.67,0,0,0,.54.76c1.31.5,2.6,1,3.88,1.63a.66.66,0,0,0,.91-.18c.91-.94,1.83-1.86,2.77-2.77a3.74,3.74,0,0,1,5.59,0q2.49,2.45,5,4.94a3.67,3.67,0,0,1,0,5.41c-1.07,1.1-2.18,2.16-3.2,3.17.63,1.6,1.21,3.12,1.84,4.62a.81.81,0,0,0,.63.35c1.33,0,2.66,0,4,0A3.69,3.69,0,0,1,76.84,37c0,2.46,0,4.92,0,7.38a3.57,3.57,0,0,1-3.62,3.48v-2.4c1-.19,1.19-.93,1.18-1.86,0-2.08,0-4.15,0-6.23,0-1.37-.39-1.76-1.79-1.76-1.8,0-3.59,0-5.38,0-.51,0-.76-.1-.9-.65a23.09,23.09,0,0,0-3.07-7.14c1.45-1.45,2.89-2.87,4.32-4.29,1-1,1-1.52,0-2.56l-4.45-4.46c-.91-.9-1.44-.91-2.34,0l-4.21,4.24-8-3.32V11.78c0-1.66-.32-2-2-2-2.08,0-4.15,0-6.23,0-1.23,0-1.64.43-1.65,1.68v6.18a15.94,15.94,0,0,0-2.06.6c-1.69.71-3.38,1.45-5,2.28a.88.88,0,0,1-1.28-.19c-1.28-1.33-2.6-2.62-3.91-3.92a1.3,1.3,0,0,0-2.17,0q-2.37,2.36-4.73,4.73c-.8.8-.79,1.41,0,2.23,1.33,1.34,2.67,2.69,4,4a.65.65,0,0,1,.14,1A21.41,21.41,0,0,0,21,35a.7.7,0,0,1-.82.64c-1.85,0-3.69,0-5.54,0-1.29,0-1.7.41-1.71,1.69v6.45c0,1.07.19,1.34,1.2,1.72v2.35a3.48,3.48,0,0,1-3.64-3.29c-.05-2.66,0-5.33,0-8a3.64,3.64,0,0,1,3.59-3.41c1.41,0,2.82,0,4.23,0,.41,0,.65-.08.78-.51a22,22,0,0,1,.82-2.23C20.18,29.7,20.53,29,20.91,28.21Z" transform="translate(-6.71 -7.3)"/><path d="M60.91,40.49H58.47a14.82,14.82,0,0,0-29.64,0H26.41a17.23,17.23,0,0,1,25.65-15C57.76,28.81,60.6,33.87,60.91,40.49Z" transform="translate(-6.71 -7.3)"/><path d="M43.62,50.36A7.39,7.39,0,1,1,51,43,7.33,7.33,0,0,1,43.62,50.36Zm0-2.48A4.9,4.9,0,1,0,38.73,43,4.93,4.93,0,0,0,43.61,47.88Z" transform="translate(-6.71 -7.3)"/><path d="M22.72,55.28A7.39,7.39,0,1,1,30.12,48,7.34,7.34,0,0,1,22.72,55.28Zm0-2.48a4.9,4.9,0,1,0-4.84-4.93A4.93,4.93,0,0,0,22.67,52.8Z" transform="translate(-6.71 -7.3)"/><path d="M64.52,55.28A7.39,7.39,0,1,1,71.92,48,7.33,7.33,0,0,1,64.52,55.28Zm0-2.48a4.9,4.9,0,1,0-4.85-4.91A4.93,4.93,0,0,0,64.48,52.8Z" transform="translate(-6.71 -7.3)"/><path d="M48.52,78.68v2.38H38.78V78.68Z" transform="translate(-6.71 -7.3)"/></svg>